{"glyphs":{"0":{"ha":833,"x_min":71,"x_max":763,"o":"m 417 -11 q 159 117 247 -11 q 71 494 71 246 q 159 872 71 743 q 417 1000 247 1000 q 674 872 586 1000 q 763 496 763 743 q 674 118 763 247 q 417 -11 586 -11 m 417 85 q 591 185 535 85 q 647 496 647 285 q 592 804 647 706 q 417 903 536 903 q 242 804 299 903 q 186 496 186 706 q 242 185 186 286 q 417 85 299 85 z "},"1":{"ha":833,"x_min":178,"x_max":729,"o":"m 729 96 l 729 0 l 178 0 l 178 96 l 396 96 l 396 847 l 193 718 l 193 828 l 446 989 l 511 989 l 511 96 l 729 96 z "},"2":{"ha":833,"x_min":89,"x_max":751,"o":"m 751 96 l 751 0 l 115 0 l 115 86 l 461 469 q 563 610 531 547 q 594 735 594 672 q 547 860 594 817 q 413 904 500 904 q 132 790 271 904 l 89 878 q 236 967 147 933 q 415 1000 325 1000 q 631 930 551 1000 q 710 740 710 860 q 672 577 710 656 q 544 401 633 499 l 263 96 l 751 96 z "},"3":{"ha":833,"x_min":74,"x_max":732,"o":"m 553 508 q 686 422 640 483 q 732 268 732 361 q 644 65 732 139 q 407 -10 557 -10 q 223 22 311 -10 q 74 113 135 54 l 118 200 q 404 86 256 86 q 565 133 510 86 q 619 272 619 181 q 392 454 619 454 l 278 454 l 278 550 l 369 550 q 538 599 479 550 q 596 738 596 647 q 548 861 596 818 q 413 904 500 904 q 132 790 271 904 l 89 878 q 235 967 149 935 q 417 1000 322 1000 q 630 932 550 1000 q 710 749 710 864 q 668 600 710 664 q 553 508 626 536 z "},"4":{"ha":833,"x_min":68,"x_max":788,"o":"m 788 215 l 638 215 l 638 0 l 524 0 l 524 215 l 68 215 l 68 301 l 544 989 l 638 989 l 638 310 l 788 310 l 788 215 m 524 310 l 524 796 l 186 310 l 524 310 z "},"5":{"ha":833,"x_min":107,"x_max":767,"o":"m 458 621 q 622 581 551 621 q 729 471 692 542 q 767 307 767 400 q 726 142 767 214 q 609 30 685 69 q 432 -10 533 -10 q 254 23 342 -10 q 107 113 167 56 l 150 200 q 432 86 288 86 q 595 145 536 86 q 654 306 654 204 q 596 465 654 404 q 440 525 538 525 q 214 410 299 525 l 135 410 l 135 989 l 728 989 l 728 894 l 249 894 l 249 542 q 458 621 331 621 z "},"6":{"ha":833,"x_min":75,"x_max":767,"o":"m 458 621 q 619 581 549 621 q 728 470 689 542 q 767 307 767 399 q 726 143 767 215 q 613 30 685 71 q 449 -11 540 -11 q 172 114 269 -11 q 75 469 75 239 q 120 756 75 636 q 251 938 165 875 q 456 1000 336 1000 q 623 968 542 1000 q 765 878 704 936 l 722 790 q 589 876 653 849 q 458 904 525 904 q 260 790 331 904 q 189 471 189 676 l 189 450 q 293 575 221 529 q 458 621 365 621 m 443 85 q 596 145 538 85 q 654 306 654 206 q 595 465 654 404 q 442 525 536 525 q 283 464 344 525 q 222 306 222 403 q 283 146 222 207 q 443 85 344 85 z "},"7":{"ha":833,"x_min":90,"x_max":743,"o":"m 743 989 l 743 904 l 279 0 l 157 0 l 618 893 l 90 893 l 90 989 l 743 989 z "},"8":{"ha":833,"x_min":63,"x_max":771,"o":"m 567 508 q 717 417 664 482 q 771 263 771 353 q 675 63 771 136 q 417 -10 579 -10 q 158 63 254 -10 q 63 263 63 136 q 117 418 63 353 q 268 508 172 483 q 132 595 179 535 q 85 738 85 656 q 126 876 85 817 q 244 967 168 935 q 417 1000 319 1000 q 590 967 514 1000 q 707 876 665 935 q 749 738 749 817 q 701 595 749 656 q 567 508 653 535 m 199 729 q 258 601 199 650 q 417 540 317 551 q 576 601 517 551 q 635 729 635 650 q 577 858 635 811 q 417 906 519 906 q 256 858 314 906 q 199 729 199 811 m 417 85 q 596 132 533 85 q 658 269 658 179 q 592 401 658 351 q 417 461 526 450 q 241 401 307 450 q 175 269 175 351 q 238 132 175 179 q 417 85 300 85 z "},"9":{"ha":833,"x_min":68,"x_max":760,"o":"m 386 1000 q 663 875 565 1000 q 760 519 760 750 q 659 128 760 268 q 378 -11 558 -11 q 212 21 293 -11 q 68 111 131 53 l 113 199 q 247 112 183 139 q 376 85 311 85 q 574 199 504 85 q 644 518 644 313 l 644 536 q 540 413 613 458 q 375 368 468 368 q 215 408 285 368 q 107 519 146 447 q 68 682 68 590 q 109 846 68 774 q 222 959 150 918 q 386 1000 294 1000 m 393 464 q 551 525 490 464 q 613 683 613 586 q 551 843 613 782 q 392 904 490 904 q 239 844 297 904 q 181 683 181 783 q 239 524 181 585 q 393 464 297 464 z "},"\u0000":{"ha":0,"x_min":0,"x_max":0,"o":""},"\r":{"ha":363,"x_min":0,"x_max":0,"o":""}," ":{"ha":363,"x_min":0,"x_max":0,"o":""},"A":{"ha":1019,"x_min":25,"x_max":994,"o":"m 769 254 l 253 254 l 143 0 l 25 0 l 460 989 l 560 989 l 994 0 l 878 0 l 769 254 m 729 349 l 511 857 l 293 349 l 729 349 z "},"Á":{"ha":1019,"x_min":25,"x_max":994,"o":"m 769 254 l 253 254 l 143 0 l 25 0 l 460 989 l 560 989 l 994 0 l 878 0 l 769 254 m 729 349 l 511 857 l 293 349 l 729 349 m 469 1074 l 611 1286 l 735 1286 l 549 1074 l 469 1074 z "},"Ă":{"ha":1019,"x_min":25,"x_max":994,"o":"m 769 254 l 253 254 l 143 0 l 25 0 l 460 989 l 560 989 l 994 0 l 878 0 l 769 254 m 729 349 l 511 857 l 293 349 l 729 349 m 510 1090 q 371 1126 431 1090 q 281 1239 311 1161 l 351 1269 q 421 1192 383 1214 q 510 1171 458 1171 q 598 1192 561 1171 q 667 1269 635 1214 l 738 1239 q 647 1126 707 1161 q 510 1090 588 1090 z "},"Ắ":{"ha":1019,"x_min":25,"x_max":994,"o":"m 769 254 l 253 254 l 143 0 l 25 0 l 460 989 l 560 989 l 994 0 l 878 0 l 769 254 m 729 349 l 511 857 l 293 349 l 729 349 m 471 1218 l 611 1415 l 731 1415 l 547 1218 l 471 1218 m 510 1067 q 371 1102 431 1067 q 281 1215 311 1138 l 346 1243 q 417 1164 378 1186 q 510 1142 457 1142 q 601 1165 561 1142 q 672 1243 640 1188 l 738 1215 q 647 1102 707 1138 q 510 1067 588 1067 z "},"Ặ":{"ha":1019,"x_min":25,"x_max":994,"o":"m 769 254 l 253 254 l 143 0 l 25 0 l 460 989 l 560 989 l 994 0 l 878 0 l 769 254 m 729 349 l 511 857 l 293 349 l 729 349 m 575 -132 l 575 -256 l 446 -256 l 446 -132 l 575 -132 m 510 1090 q 371 1126 431 1090 q 281 1239 311 1161 l 351 1269 q 421 1192 383 1214 q 510 1171 458 1171 q 598 1192 561 1171 q 667 1269 635 1214 l 738 1239 q 647 1126 707 1161 q 510 1090 588 1090 z "},"Ằ":{"ha":1019,"x_min":25,"x_max":994,"o":"m 769 254 l 253 254 l 143 0 l 25 0 l 460 989 l 560 989 l 994 0 l 878 0 l 769 254 m 729 349 l 511 857 l 293 349 l 729 349 m 288 1415 l 407 1415 l 547 1218 l 471 1218 l 288 1415 m 510 1067 q 371 1102 431 1067 q 281 1215 311 1138 l 346 1243 q 417 1164 378 1186 q 510 1142 457 1142 q 601 1165 561 1142 q 672 1243 640 1188 l 738 1215 q 647 1102 707 1138 q 510 1067 588 1067 z "},"Ẳ":{"ha":1019,"x_min":25,"x_max":994,"o":"m 769 254 l 253 254 l 143 0 l 25 0 l 460 989 l 560 989 l 994 0 l 878 0 l 769 254 m 729 349 l 511 857 l 293 349 l 729 349 m 547 1218 l 472 1218 l 472 1242 q 488 1278 472 1265 q 532 1303 504 1290 q 558 1317 550 1311 q 567 1331 567 1322 q 551 1350 567 1343 q 510 1357 536 1357 q 424 1340 468 1357 l 404 1399 q 518 1424 461 1424 q 619 1399 582 1424 q 656 1335 656 1375 q 640 1297 656 1310 q 593 1269 625 1285 q 559 1251 571 1260 q 547 1231 547 1243 l 547 1218 m 510 1067 q 371 1102 431 1067 q 281 1215 311 1138 l 346 1243 q 417 1164 378 1186 q 510 1142 457 1142 q 601 1165 561 1142 q 672 1243 640 1188 l 738 1215 q 647 1102 707 1138 q 510 1067 588 1067 z "},"Ẵ":{"ha":1019,"x_min":25,"x_max":994,"o":"m 769 254 l 253 254 l 143 0 l 25 0 l 460 989 l 560 989 l 994 0 l 878 0 l 769 254 m 729 349 l 511 857 l 293 349 l 729 349 m 283 1282 q 317 1387 283 1347 q 408 1426 351 1426 q 462 1416 436 1426 q 526 1385 488 1406 q 574 1361 558 1368 q 607 1354 590 1354 q 655 1374 638 1354 q 672 1422 672 1393 l 735 1422 q 700 1318 735 1358 q 610 1278 665 1278 q 556 1288 582 1278 q 492 1319 531 1299 q 445 1344 463 1336 q 411 1351 428 1351 q 363 1331 381 1351 q 346 1282 346 1311 l 283 1282 m 510 1067 q 371 1102 431 1067 q 281 1215 311 1138 l 346 1243 q 417 1164 378 1186 q 510 1142 457 1142 q 601 1165 561 1142 q 672 1243 640 1188 l 738 1215 q 647 1102 707 1138 q 510 1067 588 1067 z "},"Â":{"ha":1019,"x_min":25,"x_max":994,"o":"m 769 254 l 253 254 l 143 0 l 25 0 l 460 989 l 560 989 l 994 0 l 878 0 l 769 254 m 729 349 l 511 857 l 293 349 l 729 349 m 304 1074 l 471 1286 l 547 1286 l 714 1074 l 611 1074 l 510 1218 l 407 1074 l 304 1074 z "},"Ấ":{"ha":1019,"x_min":25,"x_max":994,"o":"m 769 254 l 253 254 l 143 0 l 25 0 l 460 989 l 560 989 l 994 0 l 878 0 l 769 254 m 729 349 l 511 857 l 293 349 l 729 349 m 628 1218 l 756 1415 l 875 1415 l 697 1218 l 628 1218 m 304 1074 l 471 1279 l 547 1279 l 714 1074 l 611 1074 l 510 1213 l 407 1074 l 304 1074 z "},"Ậ":{"ha":1019,"x_min":25,"x_max":994,"o":"m 769 254 l 253 254 l 143 0 l 25 0 l 460 989 l 560 989 l 994 0 l 878 0 l 769 254 m 729 349 l 511 857 l 293 349 l 729 349 m 575 -132 l 575 -256 l 446 -256 l 446 -132 l 575 -132 m 304 1074 l 471 1286 l 547 1286 l 714 1074 l 611 1074 l 510 1218 l 407 1074 l 304 1074 z "},"Ầ":{"ha":1019,"x_min":25,"x_max":994,"o":"m 769 254 l 253 254 l 143 0 l 25 0 l 460 989 l 560 989 l 994 0 l 878 0 l 769 254 m 729 349 l 511 857 l 293 349 l 729 349 m 531 1415 l 649 1415 l 757 1218 l 688 1218 l 531 1415 m 304 1074 l 471 1279 l 547 1279 l 714 1074 l 611 1074 l 510 1213 l 407 1074 l 304 1074 z "},"Ẩ":{"ha":1019,"x_min":25,"x_max":994,"o":"m 769 254 l 253 254 l 143 0 l 25 0 l 460 989 l 560 989 l 994 0 l 878 0 l 769 254 m 729 349 l 511 857 l 293 349 l 729 349 m 701 1218 l 626 1218 l 626 1242 q 642 1278 626 1265 q 686 1303 658 1290 q 713 1317 704 1311 q 721 1331 721 1322 q 706 1350 721 1343 q 664 1357 690 1357 q 578 1340 622 1357 l 558 1399 q 672 1424 615 1424 q 774 1399 736 1424 q 811 1335 811 1375 q 795 1297 811 1310 q 747 1269 779 1285 q 713 1251 725 1260 q 701 1231 701 1243 l 701 1218 m 304 1074 l 471 1279 l 547 1279 l 714 1074 l 611 1074 l 510 1213 l 407 1074 l 304 1074 z "},"Ẫ":{"ha":1019,"x_min":25,"x_max":994,"o":"m 769 254 l 253 254 l 143 0 l 25 0 l 460 989 l 560 989 l 994 0 l 878 0 l 769 254 m 729 349 l 511 857 l 293 349 l 729 349 m 283 1300 q 318 1399 283 1361 q 408 1438 353 1438 q 463 1428 438 1438 q 526 1403 489 1419 q 569 1385 547 1393 q 607 1378 590 1378 q 655 1397 638 1378 q 672 1440 672 1415 l 735 1440 q 700 1341 735 1381 q 610 1301 665 1301 q 555 1310 581 1301 q 492 1336 529 1319 q 446 1356 464 1350 q 411 1363 428 1363 q 363 1344 381 1363 q 346 1300 346 1325 l 283 1300 m 304 1074 l 471 1279 l 547 1279 l 714 1074 l 611 1074 l 510 1213 l 407 1074 l 304 1074 z "},"Ȁ":{"ha":1019,"x_min":25,"x_max":994,"o":"m 769 254 l 253 254 l 143 0 l 25 0 l 460 989 l 560 989 l 994 0 l 878 0 l 769 254 m 729 349 l 511 857 l 293 349 l 729 349 m 258 1286 l 356 1286 l 456 1074 l 394 1074 l 258 1286 m 425 1286 l 525 1286 l 624 1074 l 563 1074 l 425 1286 z "},"Ä":{"ha":1019,"x_min":25,"x_max":994,"o":"m 769 254 l 253 254 l 143 0 l 25 0 l 460 989 l 560 989 l 994 0 l 878 0 l 769 254 m 729 349 l 511 857 l 293 349 l 729 349 m 451 1240 l 451 1121 l 326 1121 l 326 1240 l 451 1240 m 692 1240 l 692 1121 l 567 1121 l 567 1240 l 692 1240 z "},"Ạ":{"ha":1019,"x_min":25,"x_max":994,"o":"m 769 254 l 253 254 l 143 0 l 25 0 l 460 989 l 560 989 l 994 0 l 878 0 l 769 254 m 729 349 l 511 857 l 293 349 l 729 349 m 575 -132 l 575 -256 l 446 -256 l 446 -132 l 575 -132 z "},"À":{"ha":1019,"x_min":25,"x_max":994,"o":"m 769 254 l 253 254 l 143 0 l 25 0 l 460 989 l 560 989 l 994 0 l 878 0 l 769 254 m 729 349 l 511 857 l 293 349 l 729 349 m 283 1286 l 407 1286 l 549 1074 l 469 1074 l 283 1286 z "},"Ả":{"ha":1019,"x_min":25,"x_max":994,"o":"m 769 254 l 253 254 l 143 0 l 25 0 l 460 989 l 560 989 l 994 0 l 878 0 l 769 254 m 729 349 l 511 857 l 293 349 l 729 349 m 547 1074 l 472 1074 l 472 1099 q 487 1135 472 1122 q 529 1164 501 1149 q 558 1182 550 1175 q 567 1199 567 1189 q 551 1218 567 1211 q 510 1225 536 1225 q 424 1208 468 1225 l 404 1268 q 518 1292 458 1292 q 619 1267 582 1292 q 656 1203 656 1243 q 639 1160 656 1175 q 592 1131 622 1144 q 558 1110 568 1118 q 547 1088 547 1101 l 547 1074 z "},"Ȃ":{"ha":1019,"x_min":25,"x_max":994,"o":"m 769 254 l 253 254 l 143 0 l 25 0 l 460 989 l 560 989 l 994 0 l 878 0 l 769 254 m 729 349 l 511 857 l 293 349 l 729 349 m 510 1271 q 647 1235 588 1271 q 738 1122 707 1200 l 667 1092 q 597 1169 635 1147 q 510 1190 560 1190 q 421 1169 458 1190 q 351 1092 383 1147 l 281 1122 q 371 1235 311 1200 q 510 1271 431 1271 z "},"Ā":{"ha":1019,"x_min":25,"x_max":994,"o":"m 769 254 l 253 254 l 143 0 l 25 0 l 460 989 l 560 989 l 994 0 l 878 0 l 769 254 m 729 349 l 511 857 l 293 349 l 729 349 m 299 1224 l 719 1224 l 719 1138 l 299 1138 l 299 1224 z "},"Ą":{"ha":1019,"x_min":25,"x_max":1042,"o":"m 1042 -239 q 922 -271 988 -271 q 803 -230 850 -271 q 757 -124 757 -189 q 784 -31 757 -72 q 863 35 811 10 l 769 254 l 253 254 l 143 0 l 25 0 l 460 989 l 560 989 l 994 0 l 968 0 q 877 -31 908 0 q 846 -108 846 -61 q 870 -173 846 -150 q 938 -196 894 -196 q 1018 -172 975 -196 l 1042 -239 m 729 349 l 511 857 l 293 349 l 729 349 z "},"Å":{"ha":1019,"x_min":25,"x_max":994,"o":"m 769 254 l 253 254 l 143 0 l 25 0 l 447 960 q 391 1010 413 976 q 369 1085 369 1044 q 410 1183 369 1143 q 511 1224 451 1224 q 611 1183 569 1224 q 653 1085 653 1143 q 631 1009 653 1043 q 572 960 608 975 l 994 0 l 878 0 l 769 254 m 511 1154 q 463 1134 482 1154 q 443 1085 443 1114 q 462 1034 443 1054 q 511 1014 481 1014 q 559 1034 540 1014 q 578 1085 578 1054 q 559 1134 578 1114 q 511 1154 540 1154 m 729 349 l 511 857 l 293 349 l 729 349 z "},"Ǻ":{"ha":1019,"x_min":25,"x_max":994,"o":"m 769 254 l 253 254 l 143 0 l 25 0 l 447 960 q 391 1010 413 976 q 369 1085 369 1044 q 410 1183 369 1143 q 511 1224 451 1224 q 583 1204 551 1224 l 696 1319 l 824 1319 l 632 1157 q 653 1085 653 1126 q 631 1009 653 1043 q 572 960 608 975 l 994 0 l 878 0 l 769 254 m 511 1154 q 463 1134 482 1154 q 443 1085 443 1114 q 462 1034 443 1054 q 511 1014 481 1014 q 559 1034 540 1014 q 578 1085 578 1054 q 559 1134 578 1114 q 511 1154 540 1154 m 729 349 l 511 857 l 293 349 l 729 349 z "},"Ã":{"ha":1019,"x_min":25,"x_max":994,"o":"m 769 254 l 253 254 l 143 0 l 25 0 l 460 989 l 560 989 l 994 0 l 878 0 l 769 254 m 729 349 l 511 857 l 293 349 l 729 349 m 283 1103 q 317 1222 283 1179 q 408 1264 351 1264 q 464 1252 438 1264 q 526 1218 490 1240 q 573 1192 556 1200 q 607 1183 590 1183 q 655 1206 638 1183 q 672 1260 672 1228 l 735 1260 q 701 1141 735 1183 q 610 1099 667 1099 q 554 1110 581 1099 q 492 1144 528 1122 q 445 1171 463 1163 q 411 1179 428 1179 q 363 1157 381 1179 q 346 1103 346 1135 l 283 1103 z "},"Æ":{"ha":1390,"x_min":-3,"x_max":1321,"o":"m 801 893 l 832 550 l 1293 550 l 1293 454 l 840 454 l 872 96 l 1321 96 l 1321 0 l 776 0 l 754 254 l 272 254 l 122 0 l -3 0 l 599 989 l 1321 989 l 1321 893 l 801 893 m 699 893 l 651 893 l 329 349 l 746 349 l 699 893 z "},"Ǽ":{"ha":1390,"x_min":-3,"x_max":1321,"o":"m 801 893 l 832 550 l 1293 550 l 1293 454 l 840 454 l 872 96 l 1321 96 l 1321 0 l 776 0 l 754 254 l 272 254 l 122 0 l -3 0 l 599 989 l 1321 989 l 1321 893 l 801 893 m 699 893 l 651 893 l 329 349 l 746 349 l 699 893 m 658 1074 l 800 1286 l 924 1286 l 738 1074 l 658 1074 z "},"B":{"ha":946,"x_min":122,"x_max":863,"o":"m 683 508 q 815 423 768 485 q 863 269 863 361 q 776 70 863 140 q 533 0 690 0 l 122 0 l 122 989 l 519 989 q 755 922 671 989 q 839 731 839 854 q 798 594 839 651 q 683 508 757 536 m 235 550 l 501 550 q 669 594 613 550 q 726 725 726 639 q 501 894 726 894 l 235 894 l 235 550 m 524 94 q 695 138 640 94 q 750 272 750 182 q 524 454 750 454 l 235 454 l 235 94 l 524 94 z "},"C":{"ha":950,"x_min":86,"x_max":881,"o":"m 544 -11 q 301 50 404 -11 q 142 226 197 111 q 86 496 86 340 q 142 765 86 651 q 301 939 197 878 q 544 1000 404 1000 q 733 969 647 1000 q 881 875 818 938 l 838 788 q 698 875 767 849 q 546 901 629 901 q 294 796 383 901 q 204 496 204 690 q 293 194 204 300 q 546 88 382 88 q 698 114 629 88 q 838 201 767 140 l 881 114 q 733 20 818 51 q 544 -11 647 -11 z "},"Ć":{"ha":950,"x_min":86,"x_max":881,"o":"m 544 -11 q 301 50 404 -11 q 142 226 197 111 q 86 496 86 340 q 142 765 86 651 q 301 939 197 878 q 544 1000 404 1000 q 733 969 647 1000 q 881 875 818 938 l 838 788 q 698 875 767 849 q 546 901 629 901 q 294 796 383 901 q 204 496 204 690 q 293 194 204 300 q 546 88 382 88 q 698 114 629 88 q 838 201 767 140 l 881 114 q 733 20 818 51 q 544 -11 647 -11 m 501 1074 l 643 1286 l 767 1286 l 581 1074 l 501 1074 z "},"Č":{"ha":950,"x_min":86,"x_max":881,"o":"m 544 -11 q 301 50 404 -11 q 142 226 197 111 q 86 496 86 340 q 142 765 86 651 q 301 939 197 878 q 544 1000 404 1000 q 733 969 647 1000 q 881 875 818 938 l 838 788 q 698 875 767 849 q 546 901 629 901 q 294 796 383 901 q 204 496 204 690 q 293 194 204 300 q 546 88 382 88 q 698 114 629 88 q 838 201 767 140 l 881 114 q 733 20 818 51 q 544 -11 647 -11 m 746 1286 l 579 1074 l 503 1074 l 336 1286 l 439 1286 l 542 1140 l 643 1286 l 746 1286 z "},"Ç":{"ha":950,"x_min":86,"x_max":881,"o":"m 881 114 q 742 24 822 56 q 565 -11 661 -8 l 560 -60 q 593 -57 582 -57 q 669 -82 638 -57 q 700 -154 700 -107 q 657 -238 700 -206 q 538 -271 614 -271 q 474 -264 508 -271 q 414 -244 439 -257 l 432 -183 q 538 -203 482 -203 q 595 -190 575 -203 q 615 -154 615 -178 q 603 -126 615 -136 q 567 -117 590 -117 q 503 -129 535 -117 l 475 -107 l 486 -8 q 272 69 363 4 q 134 242 182 133 q 86 496 86 351 q 142 765 86 651 q 301 939 197 878 q 544 1000 404 1000 q 733 969 647 1000 q 881 875 818 938 l 838 788 q 698 875 767 849 q 546 901 629 901 q 294 796 383 901 q 204 496 204 690 q 293 194 204 300 q 546 88 382 88 q 698 114 629 88 q 838 201 767 140 l 881 114 z "},"Ḉ":{"ha":950,"x_min":86,"x_max":881,"o":"m 581 1074 l 501 1074 l 643 1286 l 767 1286 l 581 1074 m 881 114 q 742 24 822 56 q 565 -11 661 -8 l 560 -60 q 593 -57 582 -57 q 669 -82 638 -57 q 700 -154 700 -107 q 657 -238 700 -206 q 538 -271 614 -271 q 474 -264 508 -271 q 414 -244 439 -257 l 432 -183 q 538 -203 482 -203 q 595 -190 575 -203 q 615 -154 615 -178 q 603 -126 615 -136 q 567 -117 590 -117 q 503 -129 535 -117 l 475 -107 l 486 -8 q 272 69 363 4 q 134 242 182 133 q 86 496 86 351 q 142 765 86 651 q 301 939 197 878 q 544 1000 404 1000 q 733 969 647 1000 q 881 875 818 938 l 838 788 q 698 875 767 849 q 546 901 629 901 q 294 796 383 901 q 204 496 204 690 q 293 194 204 300 q 546 88 382 88 q 698 114 629 88 q 838 201 767 140 l 881 114 z "},"Ĉ":{"ha":950,"x_min":86,"x_max":881,"o":"m 544 -11 q 301 50 404 -11 q 142 226 197 111 q 86 496 86 340 q 142 765 86 651 q 301 939 197 878 q 544 1000 404 1000 q 733 969 647 1000 q 881 875 818 938 l 838 788 q 698 875 767 849 q 546 901 629 901 q 294 796 383 901 q 204 496 204 690 q 293 194 204 300 q 546 88 382 88 q 698 114 629 88 q 838 201 767 140 l 881 114 q 733 20 818 51 q 544 -11 647 -11 m 336 1074 l 503 1286 l 579 1286 l 746 1074 l 643 1074 l 542 1218 l 439 1074 l 336 1074 z "},"Ċ":{"ha":950,"x_min":86,"x_max":881,"o":"m 544 -11 q 301 50 404 -11 q 142 226 197 111 q 86 496 86 340 q 142 765 86 651 q 301 939 197 878 q 544 1000 404 1000 q 733 969 647 1000 q 881 875 818 938 l 838 788 q 698 875 767 849 q 546 901 629 901 q 294 796 383 901 q 204 496 204 690 q 293 194 204 300 q 546 88 382 88 q 698 114 629 88 q 838 201 767 140 l 881 114 q 733 20 818 51 q 544 -11 647 -11 m 610 1244 l 610 1117 l 472 1117 l 472 1244 l 610 1244 z "},"D":{"ha":1036,"x_min":122,"x_max":951,"o":"m 122 989 l 454 989 q 822 860 692 989 q 951 496 951 732 q 822 129 951 258 q 454 0 692 0 l 122 0 l 122 989 m 447 97 q 735 197 639 97 q 832 496 832 297 q 447 892 832 892 l 236 892 l 236 97 l 447 97 z "},"Ǆ":{"ha":1843,"x_min":122,"x_max":1790,"o":"m 122 989 l 454 989 q 822 860 692 989 q 951 496 951 732 q 822 129 951 258 q 454 0 692 0 l 122 0 l 122 989 m 447 97 q 735 197 639 97 q 832 496 832 297 q 447 892 832 892 l 236 892 l 236 97 l 447 97 m 1790 96 l 1790 0 l 1078 0 l 1078 85 l 1644 893 l 1078 893 l 1078 989 l 1776 989 l 1776 906 l 1210 96 l 1790 96 m 1632 1286 l 1465 1074 l 1389 1074 l 1222 1286 l 1325 1286 l 1428 1140 l 1529 1286 l 1632 1286 z "},"Ð":{"ha":1056,"x_min":11,"x_max":969,"o":"m 472 989 q 840 860 710 989 q 969 496 969 732 q 840 129 969 258 q 472 0 710 0 l 140 0 l 140 456 l 11 456 l 11 547 l 140 547 l 140 989 l 472 989 m 467 97 q 754 198 657 97 q 851 496 851 299 q 467 892 851 892 l 256 892 l 256 547 l 525 547 l 525 456 l 256 456 l 256 97 l 467 97 z "},"Ď":{"ha":1036,"x_min":122,"x_max":951,"o":"m 122 989 l 454 989 q 822 860 692 989 q 951 496 951 732 q 822 129 951 258 q 454 0 692 0 l 122 0 l 122 989 m 447 97 q 735 197 639 97 q 832 496 832 297 q 447 892 832 892 l 236 892 l 236 97 l 447 97 m 722 1286 l 556 1074 l 479 1074 l 313 1286 l 415 1286 l 518 1140 l 619 1286 l 722 1286 z "},"Đ":{"ha":1056,"x_min":11,"x_max":969,"o":"m 472 989 q 840 860 710 989 q 969 496 969 732 q 840 129 969 258 q 472 0 710 0 l 140 0 l 140 456 l 11 456 l 11 547 l 140 547 l 140 989 l 472 989 m 467 97 q 754 198 657 97 q 851 496 851 299 q 467 892 851 892 l 256 892 l 256 547 l 525 547 l 525 456 l 256 456 l 256 97 l 467 97 z "},"Ḍ":{"ha":1036,"x_min":122,"x_max":951,"o":"m 122 989 l 454 989 q 822 860 692 989 q 951 496 951 732 q 822 129 951 258 q 454 0 692 0 l 122 0 l 122 989 m 447 97 q 735 197 639 97 q 832 496 832 297 q 447 892 832 892 l 236 892 l 236 97 l 447 97 m 582 -132 l 582 -256 l 453 -256 l 453 -132 l 582 -132 z "},"Ḏ":{"ha":1036,"x_min":122,"x_max":951,"o":"m 122 989 l 454 989 q 822 860 692 989 q 951 496 951 732 q 822 129 951 258 q 454 0 692 0 l 122 0 l 122 989 m 447 97 q 735 197 639 97 q 832 496 832 297 q 447 892 832 892 l 236 892 l 236 97 l 447 97 m 307 -153 l 728 -153 l 728 -236 l 307 -236 l 307 -153 z "},"ǅ":{"ha":1756,"x_min":122,"x_max":1696,"o":"m 122 989 l 454 989 q 822 860 692 989 q 951 496 951 732 q 822 129 951 258 q 454 0 692 0 l 122 0 l 122 989 m 447 97 q 735 197 639 97 q 832 496 832 297 q 447 892 832 892 l 236 892 l 236 97 l 447 97 m 1696 89 l 1696 0 l 1106 0 l 1106 78 l 1546 610 l 1121 610 l 1121 699 l 1681 699 l 1681 617 l 1244 89 l 1696 89 m 1607 1072 l 1442 789 l 1363 789 l 1197 1072 l 1301 1072 l 1403 871 l 1503 1072 l 1607 1072 z "},"E":{"ha":817,"x_min":122,"x_max":747,"o":"m 122 989 l 747 989 l 747 894 l 235 894 l 235 550 l 719 550 l 719 454 l 235 454 l 235 94 l 747 94 l 747 0 l 122 0 l 122 989 z "},"É":{"ha":817,"x_min":122,"x_max":747,"o":"m 122 989 l 747 989 l 747 894 l 235 894 l 235 550 l 719 550 l 719 454 l 235 454 l 235 94 l 747 94 l 747 0 l 122 0 l 122 989 m 414 1074 l 556 1286 l 679 1286 l 493 1074 l 414 1074 z "},"Ĕ":{"ha":817,"x_min":122,"x_max":747,"o":"m 122 989 l 747 989 l 747 894 l 235 894 l 235 550 l 719 550 l 719 454 l 235 454 l 235 94 l 747 94 l 747 0 l 122 0 l 122 989 m 454 1090 q 315 1126 375 1090 q 225 1239 256 1161 l 296 1269 q 365 1192 328 1214 q 454 1171 403 1171 q 542 1192 506 1171 q 611 1269 579 1214 l 682 1239 q 592 1126 651 1161 q 454 1090 532 1090 z "},"Ě":{"ha":817,"x_min":122,"x_max":747,"o":"m 122 989 l 747 989 l 747 894 l 235 894 l 235 550 l 719 550 l 719 454 l 235 454 l 235 94 l 747 94 l 747 0 l 122 0 l 122 989 m 658 1286 l 492 1074 l 415 1074 l 249 1286 l 351 1286 l 454 1140 l 556 1286 l 658 1286 z "},"Ȩ":{"ha":817,"x_min":122,"x_max":747,"o":"m 235 894 l 235 550 l 719 550 l 719 454 l 235 454 l 235 94 l 747 94 l 747 0 l 481 0 l 474 -60 q 507 -57 496 -57 q 583 -82 551 -57 q 614 -154 614 -107 q 571 -238 614 -206 q 451 -271 528 -271 q 388 -264 422 -271 q 328 -244 353 -257 l 346 -183 q 451 -203 396 -203 q 509 -190 489 -203 q 529 -154 529 -178 q 517 -126 529 -136 q 481 -117 504 -117 q 417 -129 449 -117 l 389 -107 l 401 0 l 122 0 l 122 989 l 747 989 l 747 894 l 235 894 z "},"Ḝ":{"ha":817,"x_min":122,"x_max":747,"o":"m 454 1090 q 315 1126 375 1090 q 225 1239 256 1161 l 296 1269 q 365 1192 328 1214 q 454 1171 403 1171 q 542 1192 506 1171 q 611 1269 579 1214 l 682 1239 q 592 1126 651 1161 q 454 1090 532 1090 m 235 894 l 235 550 l 719 550 l 719 454 l 235 454 l 235 94 l 747 94 l 747 0 l 481 0 l 474 -60 q 507 -57 496 -57 q 583 -82 551 -57 q 614 -154 614 -107 q 571 -238 614 -206 q 451 -271 528 -271 q 388 -264 422 -271 q 328 -244 353 -257 l 346 -183 q 451 -203 396 -203 q 509 -190 489 -203 q 529 -154 529 -178 q 517 -126 529 -136 q 481 -117 504 -117 q 417 -129 449 -117 l 389 -107 l 401 0 l 122 0 l 122 989 l 747 989 l 747 894 l 235 894 z "},"Ê":{"ha":817,"x_min":122,"x_max":747,"o":"m 122 989 l 747 989 l 747 894 l 235 894 l 235 550 l 719 550 l 719 454 l 235 454 l 235 94 l 747 94 l 747 0 l 122 0 l 122 989 m 249 1074 l 415 1286 l 492 1286 l 658 1074 l 556 1074 l 454 1218 l 351 1074 l 249 1074 z "},"Ế":{"ha":817,"x_min":122,"x_max":819,"o":"m 122 989 l 747 989 l 747 894 l 235 894 l 235 550 l 719 550 l 719 454 l 235 454 l 235 94 l 747 94 l 747 0 l 122 0 l 122 989 m 572 1218 l 700 1415 l 819 1415 l 642 1218 l 572 1218 m 249 1074 l 415 1279 l 492 1279 l 658 1074 l 556 1074 l 454 1213 l 351 1074 l 249 1074 z "},"Ệ":{"ha":817,"x_min":122,"x_max":747,"o":"m 122 989 l 747 989 l 747 894 l 235 894 l 235 550 l 719 550 l 719 454 l 235 454 l 235 94 l 747 94 l 747 0 l 122 0 l 122 989 m 518 -132 l 518 -256 l 389 -256 l 389 -132 l 518 -132 m 249 1074 l 415 1286 l 492 1286 l 658 1074 l 556 1074 l 454 1218 l 351 1074 l 249 1074 z "},"Ề":{"ha":817,"x_min":122,"x_max":747,"o":"m 122 989 l 747 989 l 747 894 l 235 894 l 235 550 l 719 550 l 719 454 l 235 454 l 235 94 l 747 94 l 747 0 l 122 0 l 122 989 m 475 1415 l 593 1415 l 701 1218 l 632 1218 l 475 1415 m 249 1074 l 415 1279 l 492 1279 l 658 1074 l 556 1074 l 454 1213 l 351 1074 l 249 1074 z "},"Ể":{"ha":817,"x_min":122,"x_max":756,"o":"m 122 989 l 747 989 l 747 894 l 235 894 l 235 550 l 719 550 l 719 454 l 235 454 l 235 94 l 747 94 l 747 0 l 122 0 l 122 989 m 646 1218 l 571 1218 l 571 1242 q 587 1278 571 1265 q 631 1303 603 1290 q 657 1317 649 1311 q 665 1331 665 1322 q 650 1350 665 1343 q 608 1357 635 1357 q 522 1340 567 1357 l 503 1399 q 617 1424 560 1424 q 718 1399 681 1424 q 756 1335 756 1375 q 740 1297 756 1310 q 692 1269 724 1285 q 658 1251 669 1260 q 646 1231 646 1243 l 646 1218 m 249 1074 l 415 1279 l 492 1279 l 658 1074 l 556 1074 l 454 1213 l 351 1074 l 249 1074 z "},"Ễ":{"ha":817,"x_min":122,"x_max":747,"o":"m 122 989 l 747 989 l 747 894 l 235 894 l 235 550 l 719 550 l 719 454 l 235 454 l 235 94 l 747 94 l 747 0 l 122 0 l 122 989 m 228 1300 q 263 1399 228 1361 q 353 1438 297 1438 q 408 1428 382 1438 q 471 1403 433 1419 q 513 1385 492 1393 q 551 1378 535 1378 q 599 1397 582 1378 q 617 1440 617 1415 l 679 1440 q 644 1341 679 1381 q 554 1301 610 1301 q 499 1310 525 1301 q 436 1336 474 1319 q 390 1356 408 1350 q 356 1363 372 1363 q 308 1344 325 1363 q 290 1300 290 1325 l 228 1300 m 249 1074 l 415 1279 l 492 1279 l 658 1074 l 556 1074 l 454 1213 l 351 1074 l 249 1074 z "},"Ȅ":{"ha":817,"x_min":122,"x_max":747,"o":"m 122 989 l 747 989 l 747 894 l 235 894 l 235 550 l 719 550 l 719 454 l 235 454 l 235 94 l 747 94 l 747 0 l 122 0 l 122 989 m 203 1286 l 300 1286 l 400 1074 l 339 1074 l 203 1286 m 369 1286 l 469 1286 l 568 1074 l 507 1074 l 369 1286 z "},"Ë":{"ha":817,"x_min":122,"x_max":747,"o":"m 122 989 l 747 989 l 747 894 l 235 894 l 235 550 l 719 550 l 719 454 l 235 454 l 235 94 l 747 94 l 747 0 l 122 0 l 122 989 m 396 1240 l 396 1121 l 271 1121 l 271 1240 l 396 1240 m 636 1240 l 636 1121 l 511 1121 l 511 1240 l 636 1240 z "},"Ė":{"ha":817,"x_min":122,"x_max":747,"o":"m 122 989 l 747 989 l 747 894 l 235 894 l 235 550 l 719 550 l 719 454 l 235 454 l 235 94 l 747 94 l 747 0 l 122 0 l 122 989 m 522 1244 l 522 1117 l 385 1117 l 385 1244 l 522 1244 z "},"Ẹ":{"ha":817,"x_min":122,"x_max":747,"o":"m 122 989 l 747 989 l 747 894 l 235 894 l 235 550 l 719 550 l 719 454 l 235 454 l 235 94 l 747 94 l 747 0 l 122 0 l 122 989 m 518 -132 l 518 -256 l 389 -256 l 389 -132 l 518 -132 z "},"È":{"ha":817,"x_min":122,"x_max":747,"o":"m 122 989 l 747 989 l 747 894 l 235 894 l 235 550 l 719 550 l 719 454 l 235 454 l 235 94 l 747 94 l 747 0 l 122 0 l 122 989 m 228 1286 l 351 1286 l 493 1074 l 414 1074 l 228 1286 z "},"Ẻ":{"ha":817,"x_min":122,"x_max":747,"o":"m 122 989 l 747 989 l 747 894 l 235 894 l 235 550 l 719 550 l 719 454 l 235 454 l 235 94 l 747 94 l 747 0 l 122 0 l 122 989 m 492 1074 l 417 1074 l 417 1099 q 431 1135 417 1122 q 474 1164 446 1149 q 503 1182 494 1175 q 511 1199 511 1189 q 496 1218 511 1211 q 454 1225 481 1225 q 368 1208 413 1225 l 349 1268 q 463 1292 403 1292 q 563 1267 526 1292 q 600 1203 600 1243 q 583 1160 600 1175 q 536 1131 567 1144 q 502 1110 513 1118 q 492 1088 492 1101 l 492 1074 z "},"Ȇ":{"ha":817,"x_min":122,"x_max":747,"o":"m 122 989 l 747 989 l 747 894 l 235 894 l 235 550 l 719 550 l 719 454 l 235 454 l 235 94 l 747 94 l 747 0 l 122 0 l 122 989 m 454 1271 q 592 1235 532 1271 q 682 1122 651 1200 l 611 1092 q 542 1169 579 1147 q 454 1190 504 1190 q 365 1169 403 1190 q 296 1092 328 1147 l 225 1122 q 315 1235 256 1200 q 454 1271 375 1271 z "},"Ē":{"ha":817,"x_min":122,"x_max":747,"o":"m 122 989 l 747 989 l 747 894 l 235 894 l 235 550 l 719 550 l 719 454 l 235 454 l 235 94 l 747 94 l 747 0 l 122 0 l 122 989 m 243 1224 l 664 1224 l 664 1138 l 243 1138 l 243 1224 z "},"Ḗ":{"ha":817,"x_min":122,"x_max":747,"o":"m 122 989 l 747 989 l 747 894 l 235 894 l 235 550 l 719 550 l 719 454 l 235 454 l 235 94 l 747 94 l 747 0 l 122 0 l 122 989 m 243 1224 l 664 1224 l 664 1138 l 243 1138 l 243 1224 m 414 1299 l 556 1511 l 679 1511 l 493 1299 l 414 1299 z "},"Ḕ":{"ha":817,"x_min":122,"x_max":747,"o":"m 122 989 l 747 989 l 747 894 l 235 894 l 235 550 l 719 550 l 719 454 l 235 454 l 235 94 l 747 94 l 747 0 l 122 0 l 122 989 m 243 1224 l 664 1224 l 664 1138 l 243 1138 l 243 1224 m 228 1511 l 351 1511 l 493 1299 l 414 1299 l 228 1511 z "},"Ę":{"ha":817,"x_min":122,"x_max":796,"o":"m 796 -239 q 675 -271 739 -271 q 556 -229 601 -271 q 511 -124 511 -187 q 568 0 511 -49 l 122 0 l 122 989 l 747 989 l 747 894 l 235 894 l 235 550 l 719 550 l 719 454 l 235 454 l 235 94 l 747 94 l 747 0 l 726 0 q 632 -30 665 0 q 599 -108 599 -60 q 624 -173 599 -150 q 692 -196 649 -196 q 772 -172 728 -196 l 796 -239 z "},"Ẽ":{"ha":817,"x_min":122,"x_max":747,"o":"m 122 989 l 747 989 l 747 894 l 235 894 l 235 550 l 719 550 l 719 454 l 235 454 l 235 94 l 747 94 l 747 0 l 122 0 l 122 989 m 228 1103 q 262 1222 228 1179 q 353 1264 296 1264 q 408 1252 382 1264 q 471 1218 435 1240 q 517 1192 500 1200 q 551 1183 535 1183 q 599 1206 582 1183 q 617 1260 617 1228 l 679 1260 q 645 1141 679 1183 q 554 1099 611 1099 q 499 1110 525 1099 q 436 1144 472 1122 q 390 1171 407 1163 q 356 1179 372 1179 q 308 1157 325 1179 q 290 1103 290 1135 l 228 1103 z "},"F":{"ha":782,"x_min":122,"x_max":733,"o":"m 122 989 l 733 989 l 733 893 l 235 893 l 235 550 l 706 550 l 706 454 l 235 454 l 235 0 l 122 0 l 122 989 z "},"G":{"ha":1015,"x_min":86,"x_max":904,"o":"m 904 515 l 904 57 q 751 8 846 26 q 560 -11 657 -11 q 306 49 413 -11 q 142 224 199 110 q 86 496 86 338 q 142 766 86 653 q 303 940 199 879 q 551 1000 408 1000 q 742 969 656 1000 q 892 875 829 938 l 847 788 q 706 876 775 849 q 551 903 638 903 q 294 798 383 903 q 204 496 204 693 q 296 190 204 294 q 563 85 388 85 q 800 124 686 85 l 800 425 l 554 425 l 554 515 l 904 515 z "},"Ğ":{"ha":1015,"x_min":86,"x_max":904,"o":"m 904 515 l 904 57 q 751 8 846 26 q 560 -11 657 -11 q 306 49 413 -11 q 142 224 199 110 q 86 496 86 338 q 142 766 86 653 q 303 940 199 879 q 551 1000 408 1000 q 742 969 656 1000 q 892 875 829 938 l 847 788 q 706 876 775 849 q 551 903 638 903 q 294 798 383 903 q 204 496 204 693 q 296 190 204 294 q 563 85 388 85 q 800 124 686 85 l 800 425 l 554 425 l 554 515 l 904 515 m 550 1090 q 411 1126 471 1090 q 321 1239 351 1161 l 392 1269 q 461 1192 424 1214 q 550 1171 499 1171 q 638 1192 601 1171 q 707 1269 675 1214 l 778 1239 q 688 1126 747 1161 q 550 1090 628 1090 z "},"Ǧ":{"ha":1015,"x_min":86,"x_max":904,"o":"m 904 515 l 904 57 q 751 8 846 26 q 560 -11 657 -11 q 306 49 413 -11 q 142 224 199 110 q 86 496 86 338 q 142 766 86 653 q 303 940 199 879 q 551 1000 408 1000 q 742 969 656 1000 q 892 875 829 938 l 847 788 q 706 876 775 849 q 551 903 638 903 q 294 798 383 903 q 204 496 204 693 q 296 190 204 294 q 563 85 388 85 q 800 124 686 85 l 800 425 l 554 425 l 554 515 l 904 515 m 754 1286 l 588 1074 l 511 1074 l 344 1286 l 447 1286 l 550 1140 l 651 1286 l 754 1286 z "},"Ĝ":{"ha":1015,"x_min":86,"x_max":904,"o":"m 904 515 l 904 57 q 751 8 846 26 q 560 -11 657 -11 q 306 49 413 -11 q 142 224 199 110 q 86 496 86 338 q 142 766 86 653 q 303 940 199 879 q 551 1000 408 1000 q 742 969 656 1000 q 892 875 829 938 l 847 788 q 706 876 775 849 q 551 903 638 903 q 294 798 383 903 q 204 496 204 693 q 296 190 204 294 q 563 85 388 85 q 800 124 686 85 l 800 425 l 554 425 l 554 515 l 904 515 m 344 1074 l 511 1286 l 588 1286 l 754 1074 l 651 1074 l 550 1218 l 447 1074 l 344 1074 z "},"Ģ":{"ha":1015,"x_min":86,"x_max":904,"o":"m 904 515 l 904 57 q 751 8 846 26 q 560 -11 657 -11 q 306 49 413 -11 q 142 224 199 110 q 86 496 86 338 q 142 766 86 653 q 303 940 199 879 q 551 1000 408 1000 q 742 969 656 1000 q 892 875 829 938 l 847 788 q 706 876 775 849 q 551 903 638 903 q 294 798 383 903 q 204 496 204 693 q 296 190 204 294 q 563 85 388 85 q 800 124 686 85 l 800 425 l 554 425 l 554 515 l 904 515 m 628 -101 l 628 -182 q 612 -281 628 -237 q 556 -364 596 -325 l 504 -325 q 542 -272 531 -297 q 556 -217 553 -247 l 490 -217 l 490 -101 l 628 -101 z "},"Ġ":{"ha":1015,"x_min":86,"x_max":904,"o":"m 904 515 l 904 57 q 751 8 846 26 q 560 -11 657 -11 q 306 49 413 -11 q 142 224 199 110 q 86 496 86 338 q 142 766 86 653 q 303 940 199 879 q 551 1000 408 1000 q 742 969 656 1000 q 892 875 829 938 l 847 788 q 706 876 775 849 q 551 903 638 903 q 294 798 383 903 q 204 496 204 693 q 296 190 204 294 q 563 85 388 85 q 800 124 686 85 l 800 425 l 554 425 l 554 515 l 904 515 m 618 1244 l 618 1117 l 481 1117 l 481 1244 l 618 1244 z "},"Ḡ":{"ha":1015,"x_min":86,"x_max":904,"o":"m 904 515 l 904 57 q 751 8 846 26 q 560 -11 657 -11 q 306 49 413 -11 q 142 224 199 110 q 86 496 86 338 q 142 766 86 653 q 303 940 199 879 q 551 1000 408 1000 q 742 969 656 1000 q 892 875 829 938 l 847 788 q 706 876 775 849 q 551 903 638 903 q 294 798 383 903 q 204 496 204 693 q 296 190 204 294 q 563 85 388 85 q 800 124 686 85 l 800 425 l 554 425 l 554 515 l 904 515 m 339 1224 l 760 1224 l 760 1138 l 339 1138 l 339 1224 z "},"H":{"ha":1064,"x_min":122,"x_max":942,"o":"m 942 989 l 942 0 l 828 0 l 828 454 l 235 454 l 235 0 l 122 0 l 122 989 l 235 989 l 235 550 l 828 550 l 828 989 l 942 989 z "},"Ħ":{"ha":1101,"x_min":11,"x_max":1090,"o":"m 1090 729 l 961 729 l 961 0 l 846 0 l 846 454 l 256 454 l 256 0 l 140 0 l 140 729 l 11 729 l 11 821 l 140 821 l 140 989 l 256 989 l 256 821 l 846 821 l 846 989 l 961 989 l 961 821 l 1090 821 l 1090 729 m 846 729 l 256 729 l 256 550 l 846 550 l 846 729 z "},"Ḫ":{"ha":1064,"x_min":122,"x_max":942,"o":"m 942 989 l 942 0 l 828 0 l 828 454 l 235 454 l 235 0 l 122 0 l 122 989 l 235 989 l 235 550 l 828 550 l 828 989 l 942 989 m 532 -296 q 392 -253 454 -296 q 300 -119 329 -210 l 371 -89 q 442 -184 401 -156 q 532 -212 482 -212 q 622 -183 582 -212 q 692 -89 661 -154 l 763 -118 q 672 -252 733 -208 q 532 -296 610 -296 z "},"Ĥ":{"ha":1064,"x_min":122,"x_max":942,"o":"m 942 989 l 942 0 l 828 0 l 828 454 l 235 454 l 235 0 l 122 0 l 122 989 l 235 989 l 235 550 l 828 550 l 828 989 l 942 989 m 326 1074 l 493 1286 l 569 1286 l 736 1074 l 633 1074 l 532 1218 l 429 1074 l 326 1074 z "},"Ḥ":{"ha":1064,"x_min":122,"x_max":942,"o":"m 942 989 l 942 0 l 828 0 l 828 454 l 235 454 l 235 0 l 122 0 l 122 989 l 235 989 l 235 550 l 828 550 l 828 989 l 942 989 m 596 -132 l 596 -256 l 467 -256 l 467 -132 l 596 -132 z "},"I":{"ha":358,"x_min":122,"x_max":236,"o":"m 122 989 l 236 989 l 236 0 l 122 0 l 122 989 z "},"Í":{"ha":358,"x_min":122,"x_max":404,"o":"m 122 989 l 236 989 l 236 0 l 122 0 l 122 989 m 139 1074 l 281 1286 l 404 1286 l 218 1074 l 139 1074 z "},"Ĭ":{"ha":358,"x_min":-50,"x_max":407,"o":"m 122 989 l 236 989 l 236 0 l 122 0 l 122 989 m 179 1090 q 40 1126 100 1090 q -50 1239 -19 1161 l 21 1269 q 90 1192 53 1214 q 179 1171 128 1171 q 267 1192 231 1171 q 336 1269 304 1214 l 407 1239 q 317 1126 376 1161 q 179 1090 257 1090 z "},"Î":{"ha":358,"x_min":-26,"x_max":383,"o":"m 122 989 l 236 989 l 236 0 l 122 0 l 122 989 m -26 1074 l 140 1286 l 217 1286 l 383 1074 l 281 1074 l 179 1218 l 76 1074 l -26 1074 z "},"Ȉ":{"ha":358,"x_min":-72,"x_max":293,"o":"m 122 989 l 236 989 l 236 0 l 122 0 l 122 989 m -72 1286 l 25 1286 l 125 1074 l 64 1074 l -72 1286 m 94 1286 l 194 1286 l 293 1074 l 232 1074 l 94 1286 z "},"Ï":{"ha":358,"x_min":-4,"x_max":361,"o":"m 122 989 l 236 989 l 236 0 l 122 0 l 122 989 m 121 1240 l 121 1121 l -4 1121 l -4 1240 l 121 1240 m 361 1240 l 361 1121 l 236 1121 l 236 1240 l 361 1240 z "},"Ḯ":{"ha":358,"x_min":-4,"x_max":404,"o":"m 122 989 l 236 989 l 236 0 l 122 0 l 122 989 m 121 1240 l 121 1121 l -4 1121 l -4 1240 l 121 1240 m 361 1240 l 361 1121 l 236 1121 l 236 1240 l 361 1240 m 139 1299 l 281 1511 l 404 1511 l 218 1299 l 139 1299 z "},"İ":{"ha":358,"x_min":110,"x_max":247,"o":"m 122 989 l 236 989 l 236 0 l 122 0 l 122 989 m 247 1244 l 247 1117 l 110 1117 l 110 1244 l 247 1244 z "},"Ị":{"ha":358,"x_min":114,"x_max":243,"o":"m 122 989 l 236 989 l 236 0 l 122 0 l 122 989 m 243 -132 l 243 -256 l 114 -256 l 114 -132 l 243 -132 z "},"Ì":{"ha":358,"x_min":-47,"x_max":236,"o":"m 122 989 l 236 989 l 236 0 l 122 0 l 122 989 m -47 1286 l 76 1286 l 218 1074 l 139 1074 l -47 1286 z "},"Ỉ":{"ha":358,"x_min":74,"x_max":325,"o":"m 122 989 l 236 989 l 236 0 l 122 0 l 122 989 m 217 1074 l 142 1074 l 142 1099 q 156 1135 142 1122 q 199 1164 171 1149 q 228 1182 219 1175 q 236 1199 236 1189 q 221 1218 236 1211 q 179 1225 206 1225 q 93 1208 138 1225 l 74 1268 q 188 1292 128 1292 q 288 1267 251 1292 q 325 1203 325 1243 q 308 1160 325 1175 q 261 1131 292 1144 q 227 1110 238 1118 q 217 1088 217 1101 l 217 1074 z "},"Ȋ":{"ha":358,"x_min":-50,"x_max":407,"o":"m 122 989 l 236 989 l 236 0 l 122 0 l 122 989 m 179 1271 q 317 1235 257 1271 q 407 1122 376 1200 l 336 1092 q 267 1169 304 1147 q 179 1190 229 1190 q 90 1169 128 1190 q 21 1092 53 1147 l -50 1122 q 40 1235 -19 1200 q 179 1271 100 1271 z "},"Ī":{"ha":358,"x_min":-32,"x_max":389,"o":"m 122 989 l 236 989 l 236 0 l 122 0 l 122 989 m -32 1224 l 389 1224 l 389 1138 l -32 1138 l -32 1224 z "},"Į":{"ha":358,"x_min":13,"x_max":297,"o":"m 297 -239 q 178 -271 243 -271 q 58 -229 104 -271 q 13 -122 13 -187 q 41 -31 13 -72 q 122 33 69 10 l 122 989 l 236 989 l 236 0 l 226 0 q 135 -31 169 0 q 101 -108 101 -62 q 126 -173 101 -150 q 193 -196 151 -196 q 275 -172 231 -196 l 297 -239 z "},"Ĩ":{"ha":358,"x_min":-47,"x_max":404,"o":"m 122 989 l 236 989 l 236 0 l 122 0 l 122 989 m -47 1103 q -13 1222 -47 1179 q 78 1264 21 1264 q 133 1252 107 1264 q 196 1218 160 1240 q 242 1192 225 1200 q 276 1183 260 1183 q 324 1206 307 1183 q 342 1260 342 1228 l 404 1260 q 370 1141 404 1183 q 279 1099 336 1099 q 224 1110 250 1099 q 161 1144 197 1122 q 115 1171 132 1163 q 81 1179 97 1179 q 33 1157 50 1179 q 15 1103 15 1135 l -47 1103 z "},"J":{"ha":457,"x_min":-7,"x_max":335,"o":"m -7 -149 q 93 -160 56 -160 q 192 -120 164 -160 q 221 15 221 -81 l 221 989 l 335 989 l 335 14 q 283 -194 335 -131 q 111 -258 231 -258 q -7 -247 64 -258 l -7 -149 z "},"Ĵ":{"ha":457,"x_min":-7,"x_max":482,"o":"m -7 -149 q 93 -160 56 -160 q 192 -120 164 -160 q 221 15 221 -81 l 221 989 l 335 989 l 335 14 q 283 -194 335 -131 q 111 -258 231 -258 q -7 -247 64 -258 l -7 -149 m 72 1074 l 239 1286 l 315 1286 l 482 1074 l 379 1074 l 278 1218 l 175 1074 l 72 1074 z "},"K":{"ha":881,"x_min":122,"x_max":894,"o":"m 746 0 l 236 471 l 236 0 l 122 0 l 122 989 l 236 989 l 236 535 l 722 989 l 868 989 l 351 507 l 894 0 l 746 0 z "},"Ķ":{"ha":881,"x_min":122,"x_max":894,"o":"m 746 0 l 236 471 l 236 0 l 122 0 l 122 989 l 236 989 l 236 535 l 722 989 l 868 989 l 351 507 l 894 0 l 746 0 m 511 -101 l 511 -182 q 495 -281 511 -237 q 439 -364 479 -325 l 388 -325 q 425 -272 414 -297 q 439 -217 436 -247 l 374 -217 l 374 -101 l 511 -101 z "},"L":{"ha":757,"x_min":122,"x_max":732,"o":"m 122 989 l 236 989 l 236 97 l 732 97 l 732 0 l 122 0 l 122 989 z "},"Ǉ":{"ha":1108,"x_min":122,"x_max":986,"o":"m 122 989 l 236 989 l 236 97 l 690 97 l 690 0 l 122 0 l 122 989 m 643 -149 q 743 -160 706 -160 q 842 -121 814 -160 q 871 15 871 -82 l 871 989 l 986 989 l 986 14 q 934 -194 986 -131 q 761 -258 882 -258 q 643 -247 714 -258 l 643 -149 z "},"Ĺ":{"ha":757,"x_min":122,"x_max":732,"o":"m 122 989 l 236 989 l 236 97 l 732 97 l 732 0 l 122 0 l 122 989 m 139 1074 l 281 1286 l 404 1286 l 218 1074 l 139 1074 z "},"Ľ":{"ha":757,"x_min":122,"x_max":732,"o":"m 122 989 l 236 989 l 236 97 l 732 97 l 732 0 l 122 0 l 122 989 m 356 722 l 356 989 l 451 989 l 415 722 l 356 722 z "},"Ļ":{"ha":757,"x_min":122,"x_max":732,"o":"m 122 989 l 236 989 l 236 97 l 732 97 l 732 0 l 122 0 l 122 989 m 501 -101 l 501 -182 q 485 -281 501 -237 q 429 -364 469 -325 l 378 -325 q 415 -272 404 -297 q 429 -217 426 -247 l 364 -217 l 364 -101 l 501 -101 z "},"Ŀ":{"ha":757,"x_min":122,"x_max":732,"o":"m 122 989 l 236 989 l 236 97 l 732 97 l 732 0 l 122 0 l 122 989 m 561 561 l 561 429 l 418 429 l 418 561 l 561 561 z "},"Ḷ":{"ha":757,"x_min":122,"x_max":732,"o":"m 122 989 l 236 989 l 236 97 l 732 97 l 732 0 l 122 0 l 122 989 m 497 -132 l 497 -256 l 368 -256 l 368 -132 l 497 -132 z "},"ǈ":{"ha":1088,"x_min":122,"x_max":990,"o":"m 122 989 l 236 989 l 236 97 l 732 97 l 732 0 l 122 0 l 122 989 m 681 -197 q 749 -208 718 -208 q 865 -69 865 -208 l 865 699 l 978 699 l 978 -83 q 923 -249 978 -193 q 772 -306 868 -306 q 681 -293 726 -306 l 681 -197 m 990 994 l 990 867 l 853 867 l 853 994 l 990 994 z "},"Ḻ":{"ha":757,"x_min":122,"x_max":732,"o":"m 122 989 l 236 989 l 236 97 l 732 97 l 732 0 l 122 0 l 122 989 m 222 -153 l 643 -153 l 643 -236 l 222 -236 l 222 -153 z "},"Ł":{"ha":776,"x_min":13,"x_max":751,"o":"m 751 97 l 751 0 l 140 0 l 140 414 l 13 340 l 13 447 l 140 521 l 140 989 l 256 989 l 256 588 l 518 739 l 518 632 l 256 481 l 256 97 l 751 97 z "},"M":{"ha":1179,"x_min":122,"x_max":1057,"o":"m 1057 989 l 1057 0 l 951 0 l 951 735 l 631 0 l 550 0 l 226 729 l 228 0 l 122 0 l 122 989 l 217 989 l 592 136 l 963 989 l 1057 989 z "},"Ṃ":{"ha":1179,"x_min":122,"x_max":1057,"o":"m 1057 989 l 1057 0 l 951 0 l 951 735 l 631 0 l 550 0 l 226 729 l 228 0 l 122 0 l 122 989 l 217 989 l 592 136 l 963 989 l 1057 989 m 653 -132 l 653 -256 l 524 -256 l 524 -132 l 653 -132 z "},"N":{"ha":1036,"x_min":122,"x_max":915,"o":"m 915 989 l 915 0 l 826 0 l 229 796 l 229 0 l 122 0 l 122 989 l 210 989 l 807 193 l 807 989 l 915 989 z "},"Ǌ":{"ha":1493,"x_min":122,"x_max":1371,"o":"m 915 989 l 915 0 l 826 0 l 229 796 l 229 0 l 122 0 l 122 989 l 210 989 l 807 193 l 807 989 l 915 989 m 1029 -149 q 1129 -160 1092 -160 q 1228 -120 1200 -160 q 1257 15 1257 -81 l 1257 989 l 1371 989 l 1371 14 q 1319 -194 1371 -131 q 1147 -258 1267 -258 q 1029 -247 1100 -258 l 1029 -149 z "},"Ń":{"ha":1036,"x_min":122,"x_max":915,"o":"m 915 989 l 915 0 l 826 0 l 229 796 l 229 0 l 122 0 l 122 989 l 210 989 l 807 193 l 807 989 l 915 989 m 478 1074 l 619 1286 l 743 1286 l 557 1074 l 478 1074 z "},"Ň":{"ha":1036,"x_min":122,"x_max":915,"o":"m 915 989 l 915 0 l 826 0 l 229 796 l 229 0 l 122 0 l 122 989 l 210 989 l 807 193 l 807 989 l 915 989 m 722 1286 l 556 1074 l 479 1074 l 313 1286 l 415 1286 l 518 1140 l 619 1286 l 722 1286 z "},"Ņ":{"ha":1036,"x_min":122,"x_max":915,"o":"m 915 989 l 915 0 l 826 0 l 229 796 l 229 0 l 122 0 l 122 989 l 210 989 l 807 193 l 807 989 l 915 989 m 588 -101 l 588 -182 q 572 -281 588 -237 q 515 -364 556 -325 l 464 -325 q 501 -272 490 -297 q 515 -217 513 -247 l 450 -217 l 450 -101 l 588 -101 z "},"Ṅ":{"ha":1036,"x_min":122,"x_max":915,"o":"m 915 989 l 915 0 l 826 0 l 229 796 l 229 0 l 122 0 l 122 989 l 210 989 l 807 193 l 807 989 l 915 989 m 586 1244 l 586 1117 l 449 1117 l 449 1244 l 586 1244 z "},"Ṇ":{"ha":1036,"x_min":122,"x_max":915,"o":"m 915 989 l 915 0 l 826 0 l 229 796 l 229 0 l 122 0 l 122 989 l 210 989 l 807 193 l 807 989 l 915 989 m 583 -132 l 583 -256 l 454 -256 l 454 -132 l 583 -132 z "},"Ŋ":{"ha":1036,"x_min":122,"x_max":915,"o":"m 915 989 l 915 1 q 668 -256 915 -240 l 576 -262 l 569 -168 l 653 -162 q 767 -117 726 -157 q 807 -4 807 -78 l 807 26 l 229 796 l 229 0 l 122 0 l 122 989 l 210 989 l 807 193 l 807 989 l 915 989 z "},"ǋ":{"ha":1367,"x_min":122,"x_max":1269,"o":"m 915 989 l 915 0 l 826 0 l 229 796 l 229 0 l 122 0 l 122 989 l 210 989 l 807 193 l 807 989 l 915 989 m 960 -197 q 1028 -208 997 -208 q 1144 -69 1144 -208 l 1144 699 l 1257 699 l 1257 -83 q 1202 -249 1257 -193 q 1051 -306 1147 -306 q 960 -293 1006 -306 l 960 -197 m 1269 994 l 1269 867 l 1132 867 l 1132 994 l 1269 994 z "},"Ṉ":{"ha":1036,"x_min":122,"x_max":915,"o":"m 915 989 l 915 0 l 826 0 l 229 796 l 229 0 l 122 0 l 122 989 l 210 989 l 807 193 l 807 989 l 915 989 m 308 -153 l 729 -153 l 729 -236 l 308 -236 l 308 -153 z "},"Ñ":{"ha":1036,"x_min":122,"x_max":915,"o":"m 915 989 l 915 0 l 826 0 l 229 796 l 229 0 l 122 0 l 122 989 l 210 989 l 807 193 l 807 989 l 915 989 m 292 1103 q 326 1222 292 1179 q 417 1264 360 1264 q 472 1252 446 1264 q 535 1218 499 1240 q 581 1192 564 1200 q 615 1183 599 1183 q 663 1206 646 1183 q 681 1260 681 1228 l 743 1260 q 709 1141 743 1183 q 618 1099 675 1099 q 563 1110 589 1099 q 500 1144 536 1122 q 453 1171 471 1163 q 419 1179 436 1179 q 372 1157 389 1179 q 354 1103 354 1135 l 292 1103 z "},"O":{"ha":1072,"x_min":86,"x_max":986,"o":"m 536 -11 q 297 50 399 -11 q 141 226 196 111 q 86 494 86 340 q 140 764 86 650 q 296 939 194 878 q 536 1000 397 1000 q 776 939 675 1000 q 932 764 878 878 q 986 496 986 650 q 931 226 986 340 q 775 51 876 113 q 536 -11 674 -11 m 536 86 q 781 193 693 86 q 868 496 868 300 q 781 797 868 692 q 536 903 694 903 q 290 797 378 903 q 203 496 203 690 q 290 193 203 300 q 536 86 378 86 z "},"Ó":{"ha":1072,"x_min":86,"x_max":986,"o":"m 536 -11 q 297 50 399 -11 q 141 226 196 111 q 86 494 86 340 q 140 764 86 650 q 296 939 194 878 q 536 1000 397 1000 q 776 939 675 1000 q 932 764 878 878 q 986 496 986 650 q 931 226 986 340 q 775 51 876 113 q 536 -11 674 -11 m 536 86 q 781 193 693 86 q 868 496 868 300 q 781 797 868 692 q 536 903 694 903 q 290 797 378 903 q 203 496 203 690 q 290 193 203 300 q 536 86 378 86 m 494 1074 l 636 1286 l 760 1286 l 574 1074 l 494 1074 z "},"Ŏ":{"ha":1072,"x_min":86,"x_max":986,"o":"m 536 -11 q 297 50 399 -11 q 141 226 196 111 q 86 494 86 340 q 140 764 86 650 q 296 939 194 878 q 536 1000 397 1000 q 776 939 675 1000 q 932 764 878 878 q 986 496 986 650 q 931 226 986 340 q 775 51 876 113 q 536 -11 674 -11 m 536 86 q 781 193 693 86 q 868 496 868 300 q 781 797 868 692 q 536 903 694 903 q 290 797 378 903 q 203 496 203 690 q 290 193 203 300 q 536 86 378 86 m 535 1090 q 396 1126 456 1090 q 306 1239 336 1161 l 376 1269 q 446 1192 408 1214 q 535 1171 483 1171 q 623 1192 586 1171 q 692 1269 660 1214 l 763 1239 q 672 1126 732 1161 q 535 1090 613 1090 z "},"Ô":{"ha":1072,"x_min":86,"x_max":986,"o":"m 536 -11 q 297 50 399 -11 q 141 226 196 111 q 86 494 86 340 q 140 764 86 650 q 296 939 194 878 q 536 1000 397 1000 q 776 939 675 1000 q 932 764 878 878 q 986 496 986 650 q 931 226 986 340 q 775 51 876 113 q 536 -11 674 -11 m 536 86 q 781 193 693 86 q 868 496 868 300 q 781 797 868 692 q 536 903 694 903 q 290 797 378 903 q 203 496 203 690 q 290 193 203 300 q 536 86 378 86 m 329 1074 l 496 1286 l 572 1286 l 739 1074 l 636 1074 l 535 1218 l 432 1074 l 329 1074 z "},"Ố":{"ha":1072,"x_min":86,"x_max":986,"o":"m 536 -11 q 297 50 399 -11 q 141 226 196 111 q 86 494 86 340 q 140 764 86 650 q 296 939 194 878 q 536 1000 397 1000 q 776 939 675 1000 q 932 764 878 878 q 986 496 986 650 q 931 226 986 340 q 775 51 876 113 q 536 -11 674 -11 m 536 86 q 781 193 693 86 q 868 496 868 300 q 781 797 868 692 q 536 903 694 903 q 290 797 378 903 q 203 496 203 690 q 290 193 203 300 q 536 86 378 86 m 653 1218 l 781 1415 l 900 1415 l 722 1218 l 653 1218 m 329 1074 l 496 1279 l 572 1279 l 739 1074 l 636 1074 l 535 1213 l 432 1074 l 329 1074 z "},"Ộ":{"ha":1072,"x_min":86,"x_max":986,"o":"m 536 -11 q 297 50 399 -11 q 141 226 196 111 q 86 494 86 340 q 140 764 86 650 q 296 939 194 878 q 536 1000 397 1000 q 776 939 675 1000 q 932 764 878 878 q 986 496 986 650 q 931 226 986 340 q 775 51 876 113 q 536 -11 674 -11 m 536 86 q 781 193 693 86 q 868 496 868 300 q 781 797 868 692 q 536 903 694 903 q 290 797 378 903 q 203 496 203 690 q 290 193 203 300 q 536 86 378 86 m 600 -132 l 600 -256 l 471 -256 l 471 -132 l 600 -132 m 329 1074 l 496 1286 l 572 1286 l 739 1074 l 636 1074 l 535 1218 l 432 1074 l 329 1074 z "},"Ồ":{"ha":1072,"x_min":86,"x_max":986,"o":"m 536 -11 q 297 50 399 -11 q 141 226 196 111 q 86 494 86 340 q 140 764 86 650 q 296 939 194 878 q 536 1000 397 1000 q 776 939 675 1000 q 932 764 878 878 q 986 496 986 650 q 931 226 986 340 q 775 51 876 113 q 536 -11 674 -11 m 536 86 q 781 193 693 86 q 868 496 868 300 q 781 797 868 692 q 536 903 694 903 q 290 797 378 903 q 203 496 203 690 q 290 193 203 300 q 536 86 378 86 m 556 1415 l 674 1415 l 782 1218 l 713 1218 l 556 1415 m 329 1074 l 496 1279 l 572 1279 l 739 1074 l 636 1074 l 535 1213 l 432 1074 l 329 1074 z "},"Ổ":{"ha":1072,"x_min":86,"x_max":986,"o":"m 536 -11 q 297 50 399 -11 q 141 226 196 111 q 86 494 86 340 q 140 764 86 650 q 296 939 194 878 q 536 1000 397 1000 q 776 939 675 1000 q 932 764 878 878 q 986 496 986 650 q 931 226 986 340 q 775 51 876 113 q 536 -11 674 -11 m 536 86 q 781 193 693 86 q 868 496 868 300 q 781 797 868 692 q 536 903 694 903 q 290 797 378 903 q 203 496 203 690 q 290 193 203 300 q 536 86 378 86 m 726 1218 l 651 1218 l 651 1242 q 667 1278 651 1265 q 711 1303 683 1290 q 738 1317 729 1311 q 746 1331 746 1322 q 731 1350 746 1343 q 689 1357 715 1357 q 603 1340 647 1357 l 583 1399 q 697 1424 640 1424 q 799 1399 761 1424 q 836 1335 836 1375 q 820 1297 836 1310 q 772 1269 804 1285 q 738 1251 750 1260 q 726 1231 726 1243 l 726 1218 m 329 1074 l 496 1279 l 572 1279 l 739 1074 l 636 1074 l 535 1213 l 432 1074 l 329 1074 z "},"Ỗ":{"ha":1072,"x_min":86,"x_max":986,"o":"m 536 -11 q 297 50 399 -11 q 141 226 196 111 q 86 494 86 340 q 140 764 86 650 q 296 939 194 878 q 536 1000 397 1000 q 776 939 675 1000 q 932 764 878 878 q 986 496 986 650 q 931 226 986 340 q 775 51 876 113 q 536 -11 674 -11 m 536 86 q 781 193 693 86 q 868 496 868 300 q 781 797 868 692 q 536 903 694 903 q 290 797 378 903 q 203 496 203 690 q 290 193 203 300 q 536 86 378 86 m 308 1300 q 343 1399 308 1361 q 433 1438 378 1438 q 488 1428 463 1438 q 551 1403 514 1419 q 594 1385 572 1393 q 632 1378 615 1378 q 680 1397 663 1378 q 697 1440 697 1415 l 760 1440 q 725 1341 760 1381 q 635 1301 690 1301 q 580 1310 606 1301 q 517 1336 554 1319 q 471 1356 489 1350 q 436 1363 453 1363 q 388 1344 406 1363 q 371 1300 371 1325 l 308 1300 m 329 1074 l 496 1279 l 572 1279 l 739 1074 l 636 1074 l 535 1213 l 432 1074 l 329 1074 z "},"Ȍ":{"ha":1072,"x_min":86,"x_max":986,"o":"m 536 -11 q 297 50 399 -11 q 141 226 196 111 q 86 494 86 340 q 140 764 86 650 q 296 939 194 878 q 536 1000 397 1000 q 776 939 675 1000 q 932 764 878 878 q 986 496 986 650 q 931 226 986 340 q 775 51 876 113 q 536 -11 674 -11 m 536 86 q 781 193 693 86 q 868 496 868 300 q 781 797 868 692 q 536 903 694 903 q 290 797 378 903 q 203 496 203 690 q 290 193 203 300 q 536 86 378 86 m 283 1286 l 381 1286 l 481 1074 l 419 1074 l 283 1286 m 450 1286 l 550 1286 l 649 1074 l 588 1074 l 450 1286 z "},"Ö":{"ha":1072,"x_min":86,"x_max":986,"o":"m 536 -11 q 297 50 399 -11 q 141 226 196 111 q 86 494 86 340 q 140 764 86 650 q 296 939 194 878 q 536 1000 397 1000 q 776 939 675 1000 q 932 764 878 878 q 986 496 986 650 q 931 226 986 340 q 775 51 876 113 q 536 -11 674 -11 m 536 86 q 781 193 693 86 q 868 496 868 300 q 781 797 868 692 q 536 903 694 903 q 290 797 378 903 q 203 496 203 690 q 290 193 203 300 q 536 86 378 86 m 476 1240 l 476 1121 l 351 1121 l 351 1240 l 476 1240 m 717 1240 l 717 1121 l 592 1121 l 592 1240 l 717 1240 z "},"Ȫ":{"ha":1072,"x_min":86,"x_max":986,"o":"m 536 -11 q 297 50 399 -11 q 141 226 196 111 q 86 494 86 340 q 140 764 86 650 q 296 939 194 878 q 536 1000 397 1000 q 776 939 675 1000 q 932 764 878 878 q 986 496 986 650 q 931 226 986 340 q 775 51 876 113 q 536 -11 674 -11 m 536 86 q 781 193 693 86 q 868 496 868 300 q 781 797 868 692 q 536 903 694 903 q 290 797 378 903 q 203 496 203 690 q 290 193 203 300 q 536 86 378 86 m 476 1240 l 476 1121 l 351 1121 l 351 1240 l 476 1240 m 717 1240 l 717 1121 l 592 1121 l 592 1240 l 717 1240 m 324 1449 l 744 1449 l 744 1363 l 324 1363 l 324 1449 z "},"Ȱ":{"ha":1072,"x_min":86,"x_max":986,"o":"m 536 -11 q 297 50 399 -11 q 141 226 196 111 q 86 494 86 340 q 140 764 86 650 q 296 939 194 878 q 536 1000 397 1000 q 776 939 675 1000 q 932 764 878 878 q 986 496 986 650 q 931 226 986 340 q 775 51 876 113 q 536 -11 674 -11 m 536 86 q 781 193 693 86 q 868 496 868 300 q 781 797 868 692 q 536 903 694 903 q 290 797 378 903 q 203 496 203 690 q 290 193 203 300 q 536 86 378 86 m 603 1244 l 603 1117 l 465 1117 l 465 1244 l 603 1244 m 324 1449 l 744 1449 l 744 1363 l 324 1363 l 324 1449 z "},"Ọ":{"ha":1072,"x_min":86,"x_max":986,"o":"m 536 -11 q 297 50 399 -11 q 141 226 196 111 q 86 494 86 340 q 140 764 86 650 q 296 939 194 878 q 536 1000 397 1000 q 776 939 675 1000 q 932 764 878 878 q 986 496 986 650 q 931 226 986 340 q 775 51 876 113 q 536 -11 674 -11 m 536 86 q 781 193 693 86 q 868 496 868 300 q 781 797 868 692 q 536 903 694 903 q 290 797 378 903 q 203 496 203 690 q 290 193 203 300 q 536 86 378 86 m 600 -132 l 600 -256 l 471 -256 l 471 -132 l 600 -132 z "},"Ò":{"ha":1072,"x_min":86,"x_max":986,"o":"m 536 -11 q 297 50 399 -11 q 141 226 196 111 q 86 494 86 340 q 140 764 86 650 q 296 939 194 878 q 536 1000 397 1000 q 776 939 675 1000 q 932 764 878 878 q 986 496 986 650 q 931 226 986 340 q 775 51 876 113 q 536 -11 674 -11 m 536 86 q 781 193 693 86 q 868 496 868 300 q 781 797 868 692 q 536 903 694 903 q 290 797 378 903 q 203 496 203 690 q 290 193 203 300 q 536 86 378 86 m 308 1286 l 432 1286 l 574 1074 l 494 1074 l 308 1286 z "},"Ỏ":{"ha":1072,"x_min":86,"x_max":986,"o":"m 536 -11 q 297 50 399 -11 q 141 226 196 111 q 86 494 86 340 q 140 764 86 650 q 296 939 194 878 q 536 1000 397 1000 q 776 939 675 1000 q 932 764 878 878 q 986 496 986 650 q 931 226 986 340 q 775 51 876 113 q 536 -11 674 -11 m 536 86 q 781 193 693 86 q 868 496 868 300 q 781 797 868 692 q 536 903 694 903 q 290 797 378 903 q 203 496 203 690 q 290 193 203 300 q 536 86 378 86 m 572 1074 l 497 1074 l 497 1099 q 512 1135 497 1122 q 554 1164 526 1149 q 583 1182 575 1175 q 592 1199 592 1189 q 576 1218 592 1211 q 535 1225 561 1225 q 449 1208 493 1225 l 429 1268 q 543 1292 483 1292 q 644 1267 607 1292 q 681 1203 681 1243 q 664 1160 681 1175 q 617 1131 647 1144 q 583 1110 593 1118 q 572 1088 572 1101 l 572 1074 z "},"Ơ":{"ha":1072,"x_min":86,"x_max":986,"o":"m 986 1126 q 937 983 986 1038 q 800 919 888 928 q 938 749 890 857 q 986 496 986 640 q 931 226 986 340 q 775 51 876 113 q 536 -11 674 -11 q 297 51 399 -11 q 141 226 196 113 q 86 494 86 340 q 140 764 86 650 q 297 939 194 878 q 540 1000 400 1000 q 643 994 576 1000 q 731 989 704 989 q 850 1025 815 990 q 885 1143 885 1060 l 885 1164 l 986 1164 l 986 1126 m 868 496 q 781 797 868 692 q 536 903 694 903 q 290 797 378 903 q 203 496 203 690 q 290 193 203 300 q 536 86 378 86 q 781 193 693 86 q 868 496 868 300 z "},"Ớ":{"ha":1072,"x_min":86,"x_max":986,"o":"m 986 1126 q 937 983 986 1038 q 800 919 888 928 q 938 749 890 857 q 986 496 986 640 q 931 226 986 340 q 775 51 876 113 q 536 -11 674 -11 q 297 51 399 -11 q 141 226 196 113 q 86 494 86 340 q 140 764 86 650 q 297 939 194 878 q 540 1000 400 1000 q 643 994 576 1000 q 731 989 704 989 q 850 1025 815 990 q 885 1143 885 1060 l 885 1164 l 986 1164 l 986 1126 m 868 496 q 781 797 868 692 q 536 903 694 903 q 290 797 378 903 q 203 496 203 690 q 290 193 203 300 q 536 86 378 86 q 781 193 693 86 q 868 496 868 300 m 494 1074 l 636 1286 l 760 1286 l 574 1074 l 494 1074 z "},"Ợ":{"ha":1072,"x_min":86,"x_max":986,"o":"m 986 1126 q 937 983 986 1038 q 800 919 888 928 q 938 749 890 857 q 986 496 986 640 q 931 226 986 340 q 775 51 876 113 q 536 -11 674 -11 q 297 51 399 -11 q 141 226 196 113 q 86 494 86 340 q 140 764 86 650 q 297 939 194 878 q 540 1000 400 1000 q 643 994 576 1000 q 731 989 704 989 q 850 1025 815 990 q 885 1143 885 1060 l 885 1164 l 986 1164 l 986 1126 m 868 496 q 781 797 868 692 q 536 903 694 903 q 290 797 378 903 q 203 496 203 690 q 290 193 203 300 q 536 86 378 86 q 781 193 693 86 q 868 496 868 300 m 600 -132 l 600 -256 l 471 -256 l 471 -132 l 600 -132 z "},"Ờ":{"ha":1072,"x_min":86,"x_max":986,"o":"m 986 1126 q 937 983 986 1038 q 800 919 888 928 q 938 749 890 857 q 986 496 986 640 q 931 226 986 340 q 775 51 876 113 q 536 -11 674 -11 q 297 51 399 -11 q 141 226 196 113 q 86 494 86 340 q 140 764 86 650 q 297 939 194 878 q 540 1000 400 1000 q 643 994 576 1000 q 731 989 704 989 q 850 1025 815 990 q 885 1143 885 1060 l 885 1164 l 986 1164 l 986 1126 m 868 496 q 781 797 868 692 q 536 903 694 903 q 290 797 378 903 q 203 496 203 690 q 290 193 203 300 q 536 86 378 86 q 781 193 693 86 q 868 496 868 300 m 308 1286 l 432 1286 l 574 1074 l 494 1074 l 308 1286 z "},"Ở":{"ha":1072,"x_min":86,"x_max":986,"o":"m 986 1126 q 937 983 986 1038 q 800 919 888 928 q 938 749 890 857 q 986 496 986 640 q 931 226 986 340 q 775 51 876 113 q 536 -11 674 -11 q 297 51 399 -11 q 141 226 196 113 q 86 494 86 340 q 140 764 86 650 q 297 939 194 878 q 540 1000 400 1000 q 643 994 576 1000 q 731 989 704 989 q 850 1025 815 990 q 885 1143 885 1060 l 885 1164 l 986 1164 l 986 1126 m 868 496 q 781 797 868 692 q 536 903 694 903 q 290 797 378 903 q 203 496 203 690 q 290 193 203 300 q 536 86 378 86 q 781 193 693 86 q 868 496 868 300 m 572 1074 l 497 1074 l 497 1099 q 512 1135 497 1122 q 554 1164 526 1149 q 583 1182 575 1175 q 592 1199 592 1189 q 576 1218 592 1211 q 535 1225 561 1225 q 449 1208 493 1225 l 429 1268 q 543 1292 483 1292 q 644 1267 607 1292 q 681 1203 681 1243 q 664 1160 681 1175 q 617 1131 647 1144 q 583 1110 593 1118 q 572 1088 572 1101 l 572 1074 z "},"Ỡ":{"ha":1072,"x_min":86,"x_max":986,"o":"m 986 1126 q 937 983 986 1038 q 800 919 888 928 q 938 749 890 857 q 986 496 986 640 q 931 226 986 340 q 775 51 876 113 q 536 -11 674 -11 q 297 51 399 -11 q 141 226 196 113 q 86 494 86 340 q 140 764 86 650 q 297 939 194 878 q 540 1000 400 1000 q 643 994 576 1000 q 731 989 704 989 q 850 1025 815 990 q 885 1143 885 1060 l 885 1164 l 986 1164 l 986 1126 m 868 496 q 781 797 868 692 q 536 903 694 903 q 290 797 378 903 q 203 496 203 690 q 290 193 203 300 q 536 86 378 86 q 781 193 693 86 q 868 496 868 300 m 308 1103 q 342 1222 308 1179 q 433 1264 376 1264 q 489 1252 463 1264 q 551 1218 515 1240 q 598 1192 581 1200 q 632 1183 615 1183 q 680 1206 663 1183 q 697 1260 697 1228 l 760 1260 q 726 1141 760 1183 q 635 1099 692 1099 q 579 1110 606 1099 q 517 1144 553 1122 q 470 1171 488 1163 q 436 1179 453 1179 q 388 1157 406 1179 q 371 1103 371 1135 l 308 1103 z "},"Ő":{"ha":1072,"x_min":86,"x_max":986,"o":"m 536 -11 q 297 50 399 -11 q 141 226 196 111 q 86 494 86 340 q 140 764 86 650 q 296 939 194 878 q 536 1000 397 1000 q 776 939 675 1000 q 932 764 878 878 q 986 496 986 650 q 931 226 986 340 q 775 51 876 113 q 536 -11 674 -11 m 536 86 q 781 193 693 86 q 868 496 868 300 q 781 797 868 692 q 536 903 694 903 q 290 797 378 903 q 203 496 203 690 q 290 193 203 300 q 536 86 378 86 m 518 1286 l 618 1286 l 481 1074 l 419 1074 l 518 1286 m 688 1286 l 785 1286 l 649 1074 l 588 1074 l 688 1286 z "},"Ȏ":{"ha":1072,"x_min":86,"x_max":986,"o":"m 536 -11 q 297 50 399 -11 q 141 226 196 111 q 86 494 86 340 q 140 764 86 650 q 296 939 194 878 q 536 1000 397 1000 q 776 939 675 1000 q 932 764 878 878 q 986 496 986 650 q 931 226 986 340 q 775 51 876 113 q 536 -11 674 -11 m 536 86 q 781 193 693 86 q 868 496 868 300 q 781 797 868 692 q 536 903 694 903 q 290 797 378 903 q 203 496 203 690 q 290 193 203 300 q 536 86 378 86 m 535 1271 q 672 1235 613 1271 q 763 1122 732 1200 l 692 1092 q 622 1169 660 1147 q 535 1190 585 1190 q 446 1169 483 1190 q 376 1092 408 1147 l 306 1122 q 396 1235 336 1200 q 535 1271 456 1271 z "},"Ō":{"ha":1072,"x_min":86,"x_max":986,"o":"m 536 -11 q 297 50 399 -11 q 141 226 196 111 q 86 494 86 340 q 140 764 86 650 q 296 939 194 878 q 536 1000 397 1000 q 776 939 675 1000 q 932 764 878 878 q 986 496 986 650 q 931 226 986 340 q 775 51 876 113 q 536 -11 674 -11 m 536 86 q 781 193 693 86 q 868 496 868 300 q 781 797 868 692 q 536 903 694 903 q 290 797 378 903 q 203 496 203 690 q 290 193 203 300 q 536 86 378 86 m 324 1224 l 744 1224 l 744 1138 l 324 1138 l 324 1224 z "},"Ṓ":{"ha":1072,"x_min":86,"x_max":986,"o":"m 536 -11 q 297 50 399 -11 q 141 226 196 111 q 86 494 86 340 q 140 764 86 650 q 296 939 194 878 q 536 1000 397 1000 q 776 939 675 1000 q 932 764 878 878 q 986 496 986 650 q 931 226 986 340 q 775 51 876 113 q 536 -11 674 -11 m 536 86 q 781 193 693 86 q 868 496 868 300 q 781 797 868 692 q 536 903 694 903 q 290 797 378 903 q 203 496 203 690 q 290 193 203 300 q 536 86 378 86 m 324 1224 l 744 1224 l 744 1138 l 324 1138 l 324 1224 m 494 1299 l 636 1511 l 760 1511 l 574 1299 l 494 1299 z "},"Ṑ":{"ha":1072,"x_min":86,"x_max":986,"o":"m 536 -11 q 297 50 399 -11 q 141 226 196 111 q 86 494 86 340 q 140 764 86 650 q 296 939 194 878 q 536 1000 397 1000 q 776 939 675 1000 q 932 764 878 878 q 986 496 986 650 q 931 226 986 340 q 775 51 876 113 q 536 -11 674 -11 m 536 86 q 781 193 693 86 q 868 496 868 300 q 781 797 868 692 q 536 903 694 903 q 290 797 378 903 q 203 496 203 690 q 290 193 203 300 q 536 86 378 86 m 324 1224 l 744 1224 l 744 1138 l 324 1138 l 324 1224 m 308 1511 l 432 1511 l 574 1299 l 494 1299 l 308 1511 z "},"Ǫ":{"ha":1072,"x_min":86,"x_max":986,"o":"m 669 6 q 567 -108 567 -24 q 591 -173 567 -150 q 660 -196 615 -196 q 740 -172 696 -196 l 763 -239 q 643 -271 711 -271 q 524 -230 571 -271 q 478 -124 478 -189 q 524 -12 478 -58 q 292 53 390 -10 q 140 228 193 115 q 86 494 86 342 q 140 764 86 650 q 296 939 194 878 q 536 1000 397 1000 q 775 939 674 1000 q 931 764 876 878 q 986 496 986 650 q 903 176 986 304 q 669 6 821 49 m 203 496 q 290 193 203 300 q 536 86 378 86 q 781 193 693 86 q 868 496 868 300 q 781 797 868 692 q 536 903 694 903 q 290 797 378 903 q 203 496 203 690 z "},"Ø":{"ha":1072,"x_min":86,"x_max":986,"o":"m 826 903 q 945 734 904 838 q 986 496 986 631 q 931 226 986 340 q 775 51 876 113 q 536 -11 674 -11 q 322 36 417 -11 l 263 -65 l 183 -19 l 246 88 q 127 257 168 153 q 86 494 86 361 q 140 764 86 650 q 296 939 194 878 q 536 1000 397 1000 q 750 953 656 1000 l 810 1054 l 888 1008 l 826 903 m 203 496 q 300 182 203 290 l 700 865 q 536 903 629 903 q 290 797 378 903 q 203 496 203 690 m 536 86 q 781 193 693 86 q 868 496 868 300 q 771 808 868 704 l 372 125 q 536 86 442 86 z "},"Ǿ":{"ha":1072,"x_min":86,"x_max":986,"o":"m 826 903 q 945 734 904 838 q 986 496 986 631 q 931 226 986 340 q 775 51 876 113 q 536 -11 674 -11 q 322 36 417 -11 l 263 -65 l 183 -19 l 246 88 q 127 257 168 153 q 86 494 86 361 q 140 764 86 650 q 296 939 194 878 q 536 1000 397 1000 q 750 953 656 1000 l 810 1054 l 888 1008 l 826 903 m 203 496 q 300 182 203 290 l 700 865 q 536 903 629 903 q 290 797 378 903 q 203 496 203 690 m 536 86 q 781 193 693 86 q 868 496 868 300 q 771 808 868 704 l 372 125 q 536 86 442 86 m 494 1074 l 636 1286 l 760 1286 l 574 1074 l 494 1074 z "},"Õ":{"ha":1072,"x_min":86,"x_max":986,"o":"m 536 -11 q 297 50 399 -11 q 141 226 196 111 q 86 494 86 340 q 140 764 86 650 q 296 939 194 878 q 536 1000 397 1000 q 776 939 675 1000 q 932 764 878 878 q 986 496 986 650 q 931 226 986 340 q 775 51 876 113 q 536 -11 674 -11 m 536 86 q 781 193 693 86 q 868 496 868 300 q 781 797 868 692 q 536 903 694 903 q 290 797 378 903 q 203 496 203 690 q 290 193 203 300 q 536 86 378 86 m 308 1103 q 342 1222 308 1179 q 433 1264 376 1264 q 489 1252 463 1264 q 551 1218 515 1240 q 598 1192 581 1200 q 632 1183 615 1183 q 680 1206 663 1183 q 697 1260 697 1228 l 760 1260 q 726 1141 760 1183 q 635 1099 692 1099 q 579 1110 606 1099 q 517 1144 553 1122 q 470 1171 488 1163 q 436 1179 453 1179 q 388 1157 406 1179 q 371 1103 371 1135 l 308 1103 z "},"Ṍ":{"ha":1072,"x_min":86,"x_max":986,"o":"m 536 -11 q 297 50 399 -11 q 141 226 196 111 q 86 494 86 340 q 140 764 86 650 q 296 939 194 878 q 536 1000 397 1000 q 776 939 675 1000 q 932 764 878 878 q 986 496 986 650 q 931 226 986 340 q 775 51 876 113 q 536 -11 674 -11 m 536 86 q 781 193 693 86 q 868 496 868 300 q 781 797 868 692 q 536 903 694 903 q 290 797 378 903 q 203 496 203 690 q 290 193 203 300 q 536 86 378 86 m 308 1103 q 342 1222 308 1179 q 433 1264 376 1264 q 489 1252 463 1264 q 551 1218 515 1240 q 598 1192 581 1200 q 632 1183 615 1183 q 680 1206 663 1183 q 697 1260 697 1228 l 760 1260 q 726 1141 760 1183 q 635 1099 692 1099 q 579 1110 606 1099 q 517 1144 553 1122 q 470 1171 488 1163 q 436 1179 453 1179 q 388 1157 406 1179 q 371 1103 371 1135 l 308 1103 m 494 1299 l 636 1511 l 760 1511 l 574 1299 l 494 1299 z "},"Ṏ":{"ha":1072,"x_min":86,"x_max":986,"o":"m 536 -11 q 297 50 399 -11 q 141 226 196 111 q 86 494 86 340 q 140 764 86 650 q 296 939 194 878 q 536 1000 397 1000 q 776 939 675 1000 q 932 764 878 878 q 986 496 986 650 q 931 226 986 340 q 775 51 876 113 q 536 -11 674 -11 m 536 86 q 781 193 693 86 q 868 496 868 300 q 781 797 868 692 q 536 903 694 903 q 290 797 378 903 q 203 496 203 690 q 290 193 203 300 q 536 86 378 86 m 308 1103 q 342 1222 308 1179 q 433 1264 376 1264 q 489 1252 463 1264 q 551 1218 515 1240 q 598 1192 581 1200 q 632 1183 615 1183 q 680 1206 663 1183 q 697 1260 697 1228 l 760 1260 q 726 1141 760 1183 q 635 1099 692 1099 q 579 1110 606 1099 q 517 1144 553 1122 q 470 1171 488 1163 q 436 1179 453 1179 q 388 1157 406 1179 q 371 1103 371 1135 l 308 1103 m 476 1465 l 476 1346 l 351 1346 l 351 1465 l 476 1465 m 717 1465 l 717 1346 l 592 1346 l 592 1465 l 717 1465 z "},"Ȭ":{"ha":1072,"x_min":86,"x_max":986,"o":"m 536 -11 q 297 50 399 -11 q 141 226 196 111 q 86 494 86 340 q 140 764 86 650 q 296 939 194 878 q 536 1000 397 1000 q 776 939 675 1000 q 932 764 878 878 q 986 496 986 650 q 931 226 986 340 q 775 51 876 113 q 536 -11 674 -11 m 536 86 q 781 193 693 86 q 868 496 868 300 q 781 797 868 692 q 536 903 694 903 q 290 797 378 903 q 203 496 203 690 q 290 193 203 300 q 536 86 378 86 m 308 1103 q 342 1222 308 1179 q 433 1264 376 1264 q 489 1252 463 1264 q 551 1218 515 1240 q 598 1192 581 1200 q 632 1183 615 1183 q 680 1206 663 1183 q 697 1260 697 1228 l 760 1260 q 726 1141 760 1183 q 635 1099 692 1099 q 579 1110 606 1099 q 517 1144 553 1122 q 470 1171 488 1163 q 436 1179 453 1179 q 388 1157 406 1179 q 371 1103 371 1135 l 308 1103 m 324 1449 l 744 1449 l 744 1363 l 324 1363 l 324 1449 z "},"Œ":{"ha":1467,"x_min":86,"x_max":1397,"o":"m 885 894 l 885 550 l 1369 550 l 1369 454 l 885 454 l 885 94 l 1397 94 l 1397 0 l 776 0 l 776 64 q 528 -11 679 -11 q 294 51 394 -11 q 140 227 194 113 q 86 494 86 342 q 140 763 86 649 q 294 938 194 876 q 528 1000 393 1000 q 776 926 678 1000 l 776 989 l 1397 989 l 1397 894 l 885 894 m 203 496 q 290 194 203 301 q 536 86 378 86 q 772 165 688 86 l 772 825 q 536 903 686 903 q 290 796 378 903 q 203 496 203 689 z "},"P":{"ha":904,"x_min":122,"x_max":840,"o":"m 122 989 l 517 989 q 755 915 669 989 q 840 713 840 842 q 754 509 840 583 q 517 435 668 435 l 236 435 l 236 0 l 122 0 l 122 989 m 507 529 q 672 576 617 529 q 728 713 728 624 q 672 848 728 801 q 507 894 617 894 l 236 894 l 236 529 l 507 529 z "},"Þ":{"ha":904,"x_min":122,"x_max":840,"o":"m 524 771 q 758 701 675 771 q 840 504 840 632 q 757 306 840 376 q 524 235 674 235 l 235 235 l 235 0 l 122 0 l 122 989 l 235 989 l 235 771 l 524 771 m 511 329 q 674 372 621 329 q 728 504 728 415 q 675 635 728 593 q 511 676 622 676 l 235 676 l 235 329 l 511 329 z "},"Q":{"ha":1072,"x_min":86,"x_max":986,"o":"m 703 17 q 882 -193 764 -93 l 803 -265 q 686 -152 744 -221 q 585 -8 628 -83 q 536 -11 554 -11 q 297 50 399 -11 q 141 226 196 111 q 86 494 86 340 q 140 764 86 650 q 296 939 194 878 q 536 1000 397 1000 q 776 939 675 1000 q 932 764 878 878 q 986 496 986 650 q 912 190 986 314 q 703 17 838 65 m 203 496 q 290 193 203 300 q 536 86 378 86 q 781 193 693 86 q 868 496 868 300 q 781 797 868 692 q 536 903 694 903 q 290 797 378 903 q 203 496 203 690 z "},"R":{"ha":963,"x_min":122,"x_max":899,"o":"m 899 0 l 778 0 l 656 329 q 594 411 633 390 q 482 432 554 432 l 235 432 l 235 0 l 122 0 l 122 989 l 515 989 q 760 918 675 989 q 846 714 846 847 q 795 551 846 617 q 649 457 744 485 q 722 420 692 450 q 774 335 753 390 l 899 0 m 506 526 q 733 713 733 526 q 678 849 733 804 q 506 894 622 894 l 235 894 l 235 526 l 506 526 z "},"Ŕ":{"ha":963,"x_min":122,"x_max":899,"o":"m 899 0 l 778 0 l 656 329 q 594 411 633 390 q 482 432 554 432 l 235 432 l 235 0 l 122 0 l 122 989 l 515 989 q 760 918 675 989 q 846 714 846 847 q 795 551 846 617 q 649 457 744 485 q 722 420 692 450 q 774 335 753 390 l 899 0 m 506 526 q 733 713 733 526 q 678 849 733 804 q 506 894 622 894 l 235 894 l 235 526 l 506 526 m 438 1074 l 579 1286 l 703 1286 l 517 1074 l 438 1074 z "},"Ř":{"ha":963,"x_min":122,"x_max":899,"o":"m 899 0 l 778 0 l 656 329 q 594 411 633 390 q 482 432 554 432 l 235 432 l 235 0 l 122 0 l 122 989 l 515 989 q 760 918 675 989 q 846 714 846 847 q 795 551 846 617 q 649 457 744 485 q 722 420 692 450 q 774 335 753 390 l 899 0 m 506 526 q 733 713 733 526 q 678 849 733 804 q 506 894 622 894 l 235 894 l 235 526 l 506 526 m 682 1286 l 515 1074 l 439 1074 l 272 1286 l 375 1286 l 478 1140 l 579 1286 l 682 1286 z "},"Ŗ":{"ha":963,"x_min":122,"x_max":899,"o":"m 899 0 l 778 0 l 656 329 q 594 411 633 390 q 482 432 554 432 l 235 432 l 235 0 l 122 0 l 122 989 l 515 989 q 760 918 675 989 q 846 714 846 847 q 795 551 846 617 q 649 457 744 485 q 722 420 692 450 q 774 335 753 390 l 899 0 m 506 526 q 733 713 733 526 q 678 849 733 804 q 506 894 622 894 l 235 894 l 235 526 l 506 526 m 546 -101 l 546 -182 q 530 -281 546 -237 q 474 -364 514 -325 l 422 -325 q 460 -272 449 -297 q 474 -217 471 -247 l 408 -217 l 408 -101 l 546 -101 z "},"Ȑ":{"ha":963,"x_min":122,"x_max":899,"o":"m 899 0 l 778 0 l 656 329 q 594 411 633 390 q 482 432 554 432 l 235 432 l 235 0 l 122 0 l 122 989 l 515 989 q 760 918 675 989 q 846 714 846 847 q 795 551 846 617 q 649 457 744 485 q 722 420 692 450 q 774 335 753 390 l 899 0 m 506 526 q 733 713 733 526 q 678 849 733 804 q 506 894 622 894 l 235 894 l 235 526 l 506 526 m 226 1286 l 324 1286 l 424 1074 l 363 1074 l 226 1286 m 393 1286 l 493 1286 l 592 1074 l 531 1074 l 393 1286 z "},"Ṛ":{"ha":963,"x_min":122,"x_max":899,"o":"m 899 0 l 778 0 l 656 329 q 594 411 633 390 q 482 432 554 432 l 235 432 l 235 0 l 122 0 l 122 989 l 515 989 q 760 918 675 989 q 846 714 846 847 q 795 551 846 617 q 649 457 744 485 q 722 420 692 450 q 774 335 753 390 l 899 0 m 506 526 q 733 713 733 526 q 678 849 733 804 q 506 894 622 894 l 235 894 l 235 526 l 506 526 m 542 -132 l 542 -256 l 413 -256 l 413 -132 l 542 -132 z "},"Ȓ":{"ha":963,"x_min":122,"x_max":899,"o":"m 899 0 l 778 0 l 656 329 q 594 411 633 390 q 482 432 554 432 l 235 432 l 235 0 l 122 0 l 122 989 l 515 989 q 760 918 675 989 q 846 714 846 847 q 795 551 846 617 q 649 457 744 485 q 722 420 692 450 q 774 335 753 390 l 899 0 m 506 526 q 733 713 733 526 q 678 849 733 804 q 506 894 622 894 l 235 894 l 235 526 l 506 526 m 478 1271 q 615 1235 556 1271 q 706 1122 675 1200 l 635 1092 q 565 1169 603 1147 q 478 1190 528 1190 q 389 1169 426 1190 q 319 1092 351 1147 l 249 1122 q 339 1235 279 1200 q 478 1271 399 1271 z "},"Ṟ":{"ha":963,"x_min":122,"x_max":899,"o":"m 899 0 l 778 0 l 656 329 q 594 411 633 390 q 482 432 554 432 l 235 432 l 235 0 l 122 0 l 122 989 l 515 989 q 760 918 675 989 q 846 714 846 847 q 795 551 846 617 q 649 457 744 485 q 722 420 692 450 q 774 335 753 390 l 899 0 m 506 526 q 733 713 733 526 q 678 849 733 804 q 506 894 622 894 l 235 894 l 235 526 l 506 526 m 267 -153 l 688 -153 l 688 -236 l 267 -236 l 267 -153 z "},"S":{"ha":865,"x_min":67,"x_max":801,"o":"m 436 -11 q 67 114 204 -11 l 110 201 q 260 113 183 139 q 438 86 336 86 q 622 133 557 86 q 686 264 686 179 q 655 345 686 314 q 573 394 624 376 q 438 432 522 413 q 250 486 324 457 q 131 570 176 515 q 85 714 85 625 q 129 863 85 799 q 255 964 174 928 q 444 1000 336 1000 q 636 968 547 1000 q 786 875 725 936 l 742 788 q 601 875 672 847 q 444 903 529 903 q 264 853 329 903 q 199 718 199 804 q 256 606 199 643 q 431 540 313 568 q 631 484 558 510 q 753 406 704 458 q 801 268 801 354 q 757 122 801 185 q 630 24 713 58 q 436 -11 547 -11 z "},"Ś":{"ha":865,"x_min":67,"x_max":801,"o":"m 436 -11 q 67 114 204 -11 l 110 201 q 260 113 183 139 q 438 86 336 86 q 622 133 557 86 q 686 264 686 179 q 655 345 686 314 q 573 394 624 376 q 438 432 522 413 q 250 486 324 457 q 131 570 176 515 q 85 714 85 625 q 129 863 85 799 q 255 964 174 928 q 444 1000 336 1000 q 636 968 547 1000 q 786 875 725 936 l 742 788 q 601 875 672 847 q 444 903 529 903 q 264 853 329 903 q 199 718 199 804 q 256 606 199 643 q 431 540 313 568 q 631 484 558 510 q 753 406 704 458 q 801 268 801 354 q 757 122 801 185 q 630 24 713 58 q 436 -11 547 -11 m 393 1074 l 535 1286 l 658 1286 l 472 1074 l 393 1074 z "},"Ṥ":{"ha":865,"x_min":67,"x_max":801,"o":"m 436 -11 q 67 114 204 -11 l 110 201 q 260 113 183 139 q 438 86 336 86 q 622 133 557 86 q 686 264 686 179 q 655 345 686 314 q 573 394 624 376 q 438 432 522 413 q 250 486 324 457 q 131 570 176 515 q 85 714 85 625 q 129 863 85 799 q 255 964 174 928 q 444 1000 336 1000 q 636 968 547 1000 q 786 875 725 936 l 742 788 q 601 875 672 847 q 444 903 529 903 q 264 853 329 903 q 199 718 199 804 q 256 606 199 643 q 431 540 313 568 q 631 484 558 510 q 753 406 704 458 q 801 268 801 354 q 757 122 801 185 q 630 24 713 58 q 436 -11 547 -11 m 404 1074 l 546 1286 l 669 1286 l 483 1074 l 404 1074 m 344 1285 l 344 1157 l 207 1157 l 207 1285 l 344 1285 z "},"Š":{"ha":865,"x_min":67,"x_max":801,"o":"m 436 -11 q 67 114 204 -11 l 110 201 q 260 113 183 139 q 438 86 336 86 q 622 133 557 86 q 686 264 686 179 q 655 345 686 314 q 573 394 624 376 q 438 432 522 413 q 250 486 324 457 q 131 570 176 515 q 85 714 85 625 q 129 863 85 799 q 255 964 174 928 q 444 1000 336 1000 q 636 968 547 1000 q 786 875 725 936 l 742 788 q 601 875 672 847 q 444 903 529 903 q 264 853 329 903 q 199 718 199 804 q 256 606 199 643 q 431 540 313 568 q 631 484 558 510 q 753 406 704 458 q 801 268 801 354 q 757 122 801 185 q 630 24 713 58 q 436 -11 547 -11 m 638 1286 l 471 1074 l 394 1074 l 228 1286 l 331 1286 l 433 1140 l 535 1286 l 638 1286 z "},"Ṧ":{"ha":865,"x_min":67,"x_max":801,"o":"m 436 -11 q 67 114 204 -11 l 110 201 q 260 113 183 139 q 438 86 336 86 q 622 133 557 86 q 686 264 686 179 q 655 345 686 314 q 573 394 624 376 q 438 432 522 413 q 250 486 324 457 q 131 570 176 515 q 85 714 85 625 q 129 863 85 799 q 255 964 174 928 q 444 1000 336 1000 q 636 968 547 1000 q 786 875 725 936 l 742 788 q 601 875 672 847 q 444 903 529 903 q 264 853 329 903 q 199 718 199 804 q 256 606 199 643 q 431 540 313 568 q 631 484 558 510 q 753 406 704 458 q 801 268 801 354 q 757 122 801 185 q 630 24 713 58 q 436 -11 547 -11 m 638 1286 l 471 1074 l 394 1074 l 228 1286 l 331 1286 l 433 1140 l 535 1286 l 638 1286 m 501 1469 l 501 1342 l 364 1342 l 364 1469 l 501 1469 z "},"Ş":{"ha":865,"x_min":67,"x_max":801,"o":"m 801 268 q 710 71 801 147 q 463 -11 619 -6 l 457 -60 q 490 -57 479 -57 q 566 -82 535 -57 q 597 -154 597 -107 q 554 -238 597 -206 q 435 -271 511 -271 q 371 -264 406 -271 q 311 -244 336 -257 l 329 -183 q 435 -203 379 -203 q 492 -190 472 -203 q 513 -154 513 -178 q 500 -126 513 -136 q 464 -117 488 -117 q 400 -129 432 -117 l 372 -107 l 383 -10 q 67 114 188 3 l 110 201 q 260 113 183 139 q 438 86 336 86 q 622 133 557 86 q 686 264 686 179 q 655 345 686 314 q 573 394 624 376 q 438 432 522 413 q 250 486 324 457 q 131 570 176 515 q 85 714 85 625 q 129 863 85 799 q 255 964 174 928 q 444 1000 336 1000 q 636 968 547 1000 q 786 875 725 936 l 742 788 q 601 875 672 847 q 444 903 529 903 q 264 853 329 903 q 199 718 199 804 q 256 606 199 643 q 431 540 313 568 q 631 484 558 510 q 753 406 704 458 q 801 268 801 354 z "},"Ŝ":{"ha":865,"x_min":67,"x_max":801,"o":"m 436 -11 q 67 114 204 -11 l 110 201 q 260 113 183 139 q 438 86 336 86 q 622 133 557 86 q 686 264 686 179 q 655 345 686 314 q 573 394 624 376 q 438 432 522 413 q 250 486 324 457 q 131 570 176 515 q 85 714 85 625 q 129 863 85 799 q 255 964 174 928 q 444 1000 336 1000 q 636 968 547 1000 q 786 875 725 936 l 742 788 q 601 875 672 847 q 444 903 529 903 q 264 853 329 903 q 199 718 199 804 q 256 606 199 643 q 431 540 313 568 q 631 484 558 510 q 753 406 704 458 q 801 268 801 354 q 757 122 801 185 q 630 24 713 58 q 436 -11 547 -11 m 228 1074 l 394 1286 l 471 1286 l 638 1074 l 535 1074 l 433 1218 l 331 1074 l 228 1074 z "},"Ș":{"ha":865,"x_min":67,"x_max":801,"o":"m 436 -11 q 67 114 204 -11 l 110 201 q 260 113 183 139 q 438 86 336 86 q 622 133 557 86 q 686 264 686 179 q 655 345 686 314 q 573 394 624 376 q 438 432 522 413 q 250 486 324 457 q 131 570 176 515 q 85 714 85 625 q 129 863 85 799 q 255 964 174 928 q 444 1000 336 1000 q 636 968 547 1000 q 786 875 725 936 l 742 788 q 601 875 672 847 q 444 903 529 903 q 264 853 329 903 q 199 718 199 804 q 256 606 199 643 q 431 540 313 568 q 631 484 558 510 q 753 406 704 458 q 801 268 801 354 q 757 122 801 185 q 630 24 713 58 q 436 -11 547 -11 m 506 -101 l 506 -182 q 490 -281 506 -237 q 433 -364 474 -325 l 382 -325 q 419 -272 408 -297 q 433 -217 431 -247 l 368 -217 l 368 -101 l 506 -101 z "},"Ṡ":{"ha":865,"x_min":67,"x_max":801,"o":"m 436 -11 q 67 114 204 -11 l 110 201 q 260 113 183 139 q 438 86 336 86 q 622 133 557 86 q 686 264 686 179 q 655 345 686 314 q 573 394 624 376 q 438 432 522 413 q 250 486 324 457 q 131 570 176 515 q 85 714 85 625 q 129 863 85 799 q 255 964 174 928 q 444 1000 336 1000 q 636 968 547 1000 q 786 875 725 936 l 742 788 q 601 875 672 847 q 444 903 529 903 q 264 853 329 903 q 199 718 199 804 q 256 606 199 643 q 431 540 313 568 q 631 484 558 510 q 753 406 704 458 q 801 268 801 354 q 757 122 801 185 q 630 24 713 58 q 436 -11 547 -11 m 501 1244 l 501 1117 l 364 1117 l 364 1244 l 501 1244 z "},"Ṣ":{"ha":865,"x_min":67,"x_max":801,"o":"m 436 -11 q 67 114 204 -11 l 110 201 q 260 113 183 139 q 438 86 336 86 q 622 133 557 86 q 686 264 686 179 q 655 345 686 314 q 573 394 624 376 q 438 432 522 413 q 250 486 324 457 q 131 570 176 515 q 85 714 85 625 q 129 863 85 799 q 255 964 174 928 q 444 1000 336 1000 q 636 968 547 1000 q 786 875 725 936 l 742 788 q 601 875 672 847 q 444 903 529 903 q 264 853 329 903 q 199 718 199 804 q 256 606 199 643 q 431 540 313 568 q 631 484 558 510 q 753 406 704 458 q 801 268 801 354 q 757 122 801 185 q 630 24 713 58 q 436 -11 547 -11 m 501 -132 l 501 -256 l 372 -256 l 372 -132 l 501 -132 z "},"Ṩ":{"ha":865,"x_min":67,"x_max":801,"o":"m 436 -11 q 67 114 204 -11 l 110 201 q 260 113 183 139 q 438 86 336 86 q 622 133 557 86 q 686 264 686 179 q 655 345 686 314 q 573 394 624 376 q 438 432 522 413 q 250 486 324 457 q 131 570 176 515 q 85 714 85 625 q 129 863 85 799 q 255 964 174 928 q 444 1000 336 1000 q 636 968 547 1000 q 786 875 725 936 l 742 788 q 601 875 672 847 q 444 903 529 903 q 264 853 329 903 q 199 718 199 804 q 256 606 199 643 q 431 540 313 568 q 631 484 558 510 q 753 406 704 458 q 801 268 801 354 q 757 122 801 185 q 630 24 713 58 q 436 -11 547 -11 m 501 -132 l 501 -256 l 372 -256 l 372 -132 l 501 -132 m 501 1244 l 501 1117 l 364 1117 l 364 1244 l 501 1244 z "},"ẞ":{"ha":965,"x_min":122,"x_max":883,"o":"m 675 517 q 830 431 776 494 q 883 271 883 368 q 844 125 883 189 q 736 26 806 61 q 578 -10 667 -10 q 322 81 428 -10 l 361 168 q 467 106 418 125 q 567 86 515 86 q 717 136 663 86 q 771 275 771 186 q 536 454 771 454 l 357 454 l 357 550 l 493 550 q 649 597 594 550 q 704 728 704 643 q 648 856 704 810 q 492 901 592 901 q 299 835 363 901 q 235 635 235 769 l 235 0 l 122 0 l 122 640 q 217 908 122 817 q 493 999 311 999 q 729 927 642 999 q 817 735 817 856 q 779 600 817 657 q 675 517 742 543 z "},"Ə":{"ha":1042,"x_min":86,"x_max":956,"o":"m 489 1000 q 737 939 632 1000 q 899 765 842 878 q 956 496 956 651 q 903 227 956 342 q 753 51 850 113 q 525 -11 656 -11 q 292 49 390 -11 q 140 223 193 110 q 86 492 86 336 l 86 550 l 838 550 q 734 811 825 719 q 488 903 643 903 q 178 788 310 903 l 133 875 q 291 967 197 935 q 489 1000 385 1000 m 522 86 q 747 181 665 86 q 838 453 828 276 l 203 453 q 294 182 211 278 q 522 86 378 86 z "},"T":{"ha":838,"x_min":17,"x_max":821,"o":"m 361 892 l 17 892 l 17 989 l 821 989 l 821 892 l 476 892 l 476 0 l 361 0 l 361 892 z "},"Ŧ":{"ha":838,"x_min":17,"x_max":821,"o":"m 476 892 l 476 547 l 676 547 l 676 456 l 476 456 l 476 0 l 361 0 l 361 456 l 161 456 l 161 547 l 361 547 l 361 892 l 17 892 l 17 989 l 821 989 l 821 892 l 476 892 z "},"Ť":{"ha":838,"x_min":17,"x_max":821,"o":"m 361 892 l 17 892 l 17 989 l 821 989 l 821 892 l 476 892 l 476 0 l 361 0 l 361 892 m 624 1286 l 457 1074 l 381 1074 l 214 1286 l 317 1286 l 419 1140 l 521 1286 l 624 1286 z "},"Ţ":{"ha":838,"x_min":17,"x_max":821,"o":"m 446 0 l 439 -60 q 472 -57 461 -57 q 548 -82 517 -57 q 579 -154 579 -107 q 536 -238 579 -206 q 417 -271 493 -271 q 353 -264 388 -271 q 293 -244 318 -257 l 311 -183 q 417 -203 361 -203 q 474 -190 454 -203 q 494 -154 494 -178 q 482 -126 494 -136 q 446 -117 469 -117 q 382 -129 414 -117 l 354 -107 l 367 0 l 361 0 l 361 892 l 17 892 l 17 989 l 821 989 l 821 892 l 476 892 l 476 0 l 446 0 z "},"Ț":{"ha":838,"x_min":17,"x_max":821,"o":"m 361 892 l 17 892 l 17 989 l 821 989 l 821 892 l 476 892 l 476 0 l 361 0 l 361 892 m 488 -101 l 488 -182 q 472 -281 488 -237 q 415 -364 456 -325 l 364 -325 q 401 -272 390 -297 q 415 -217 413 -247 l 350 -217 l 350 -101 l 488 -101 z "},"Ṭ":{"ha":838,"x_min":17,"x_max":821,"o":"m 361 892 l 17 892 l 17 989 l 821 989 l 821 892 l 476 892 l 476 0 l 361 0 l 361 892 m 483 -132 l 483 -256 l 354 -256 l 354 -132 l 483 -132 z "},"Ṯ":{"ha":838,"x_min":17,"x_max":821,"o":"m 361 892 l 17 892 l 17 989 l 821 989 l 821 892 l 476 892 l 476 0 l 361 0 l 361 892 m 208 -153 l 629 -153 l 629 -236 l 208 -236 l 208 -153 z "},"U":{"ha":1015,"x_min":115,"x_max":900,"o":"m 508 -11 q 215 90 314 -11 q 115 388 115 190 l 115 989 l 228 989 l 228 378 q 299 160 228 233 q 508 86 369 86 q 716 160 646 86 q 786 378 786 233 l 786 989 l 900 989 l 900 388 q 800 90 900 192 q 508 -11 700 -11 z "},"Ú":{"ha":1015,"x_min":115,"x_max":900,"o":"m 508 -11 q 215 90 314 -11 q 115 388 115 190 l 115 989 l 228 989 l 228 378 q 299 160 228 233 q 508 86 369 86 q 716 160 646 86 q 786 378 786 233 l 786 989 l 900 989 l 900 388 q 800 90 900 192 q 508 -11 700 -11 m 468 1074 l 610 1286 l 733 1286 l 547 1074 l 468 1074 z "},"Ŭ":{"ha":1015,"x_min":115,"x_max":900,"o":"m 508 -11 q 215 90 314 -11 q 115 388 115 190 l 115 989 l 228 989 l 228 378 q 299 160 228 233 q 508 86 369 86 q 716 160 646 86 q 786 378 786 233 l 786 989 l 900 989 l 900 388 q 800 90 900 192 q 508 -11 700 -11 m 508 1090 q 369 1126 429 1090 q 279 1239 310 1161 l 350 1269 q 419 1192 382 1214 q 508 1171 457 1171 q 597 1192 560 1171 q 665 1269 633 1214 l 736 1239 q 646 1126 706 1161 q 508 1090 586 1090 z "},"Û":{"ha":1015,"x_min":115,"x_max":900,"o":"m 508 -11 q 215 90 314 -11 q 115 388 115 190 l 115 989 l 228 989 l 228 378 q 299 160 228 233 q 508 86 369 86 q 716 160 646 86 q 786 378 786 233 l 786 989 l 900 989 l 900 388 q 800 90 900 192 q 508 -11 700 -11 m 303 1074 l 469 1286 l 546 1286 l 713 1074 l 610 1074 l 508 1218 l 406 1074 l 303 1074 z "},"Ȕ":{"ha":1015,"x_min":115,"x_max":900,"o":"m 508 -11 q 215 90 314 -11 q 115 388 115 190 l 115 989 l 228 989 l 228 378 q 299 160 228 233 q 508 86 369 86 q 716 160 646 86 q 786 378 786 233 l 786 989 l 900 989 l 900 388 q 800 90 900 192 q 508 -11 700 -11 m 257 1286 l 354 1286 l 454 1074 l 393 1074 l 257 1286 m 424 1286 l 524 1286 l 622 1074 l 561 1074 l 424 1286 z "},"Ü":{"ha":1015,"x_min":115,"x_max":900,"o":"m 508 -11 q 215 90 314 -11 q 115 388 115 190 l 115 989 l 228 989 l 228 378 q 299 160 228 233 q 508 86 369 86 q 716 160 646 86 q 786 378 786 233 l 786 989 l 900 989 l 900 388 q 800 90 900 192 q 508 -11 700 -11 m 450 1240 l 450 1121 l 325 1121 l 325 1240 l 450 1240 m 690 1240 l 690 1121 l 565 1121 l 565 1240 l 690 1240 z "},"Ụ":{"ha":1015,"x_min":115,"x_max":900,"o":"m 508 -11 q 215 90 314 -11 q 115 388 115 190 l 115 989 l 228 989 l 228 378 q 299 160 228 233 q 508 86 369 86 q 716 160 646 86 q 786 378 786 233 l 786 989 l 900 989 l 900 388 q 800 90 900 192 q 508 -11 700 -11 m 572 -132 l 572 -256 l 443 -256 l 443 -132 l 572 -132 z "},"Ù":{"ha":1015,"x_min":115,"x_max":900,"o":"m 508 -11 q 215 90 314 -11 q 115 388 115 190 l 115 989 l 228 989 l 228 378 q 299 160 228 233 q 508 86 369 86 q 716 160 646 86 q 786 378 786 233 l 786 989 l 900 989 l 900 388 q 800 90 900 192 q 508 -11 700 -11 m 282 1286 l 406 1286 l 547 1074 l 468 1074 l 282 1286 z "},"Ủ":{"ha":1015,"x_min":115,"x_max":900,"o":"m 508 -11 q 215 90 314 -11 q 115 388 115 190 l 115 989 l 228 989 l 228 378 q 299 160 228 233 q 508 86 369 86 q 716 160 646 86 q 786 378 786 233 l 786 989 l 900 989 l 900 388 q 800 90 900 192 q 508 -11 700 -11 m 546 1074 l 471 1074 l 471 1099 q 485 1135 471 1122 q 528 1164 500 1149 q 557 1182 549 1175 q 565 1199 565 1189 q 550 1218 565 1211 q 508 1225 535 1225 q 422 1208 467 1225 l 403 1268 q 517 1292 457 1292 q 617 1267 581 1292 q 654 1203 654 1243 q 638 1160 654 1175 q 590 1131 621 1144 q 556 1110 567 1118 q 546 1088 546 1101 l 546 1074 z "},"Ư":{"ha":1015,"x_min":115,"x_max":1064,"o":"m 1064 1164 l 1064 1126 q 1021 990 1064 1043 q 900 922 978 938 l 900 388 q 800 90 900 192 q 508 -11 700 -11 q 215 90 314 -11 q 115 388 115 190 l 115 989 l 228 989 l 228 378 q 299 160 228 233 q 508 86 369 86 q 716 160 646 86 q 786 378 786 233 l 786 989 l 819 989 q 931 1025 897 990 q 964 1143 964 1060 l 964 1164 l 1064 1164 z "},"Ứ":{"ha":1015,"x_min":115,"x_max":1064,"o":"m 1064 1164 l 1064 1126 q 1021 990 1064 1043 q 900 922 978 938 l 900 388 q 800 90 900 192 q 508 -11 700 -11 q 215 90 314 -11 q 115 388 115 190 l 115 989 l 228 989 l 228 378 q 299 160 228 233 q 508 86 369 86 q 716 160 646 86 q 786 378 786 233 l 786 989 l 819 989 q 931 1025 897 990 q 964 1143 964 1060 l 964 1164 l 1064 1164 m 468 1074 l 610 1286 l 733 1286 l 547 1074 l 468 1074 z "},"Ự":{"ha":1015,"x_min":115,"x_max":1064,"o":"m 1064 1164 l 1064 1126 q 1021 990 1064 1043 q 900 922 978 938 l 900 388 q 800 90 900 192 q 508 -11 700 -11 q 215 90 314 -11 q 115 388 115 190 l 115 989 l 228 989 l 228 378 q 299 160 228 233 q 508 86 369 86 q 716 160 646 86 q 786 378 786 233 l 786 989 l 819 989 q 931 1025 897 990 q 964 1143 964 1060 l 964 1164 l 1064 1164 m 572 -132 l 572 -256 l 443 -256 l 443 -132 l 572 -132 z "},"Ừ":{"ha":1015,"x_min":115,"x_max":1064,"o":"m 1064 1164 l 1064 1126 q 1021 990 1064 1043 q 900 922 978 938 l 900 388 q 800 90 900 192 q 508 -11 700 -11 q 215 90 314 -11 q 115 388 115 190 l 115 989 l 228 989 l 228 378 q 299 160 228 233 q 508 86 369 86 q 716 160 646 86 q 786 378 786 233 l 786 989 l 819 989 q 931 1025 897 990 q 964 1143 964 1060 l 964 1164 l 1064 1164 m 282 1286 l 406 1286 l 547 1074 l 468 1074 l 282 1286 z "},"Ử":{"ha":1015,"x_min":115,"x_max":1064,"o":"m 1064 1164 l 1064 1126 q 1021 990 1064 1043 q 900 922 978 938 l 900 388 q 800 90 900 192 q 508 -11 700 -11 q 215 90 314 -11 q 115 388 115 190 l 115 989 l 228 989 l 228 378 q 299 160 228 233 q 508 86 369 86 q 716 160 646 86 q 786 378 786 233 l 786 989 l 819 989 q 931 1025 897 990 q 964 1143 964 1060 l 964 1164 l 1064 1164 m 546 1074 l 471 1074 l 471 1099 q 485 1135 471 1122 q 528 1164 500 1149 q 557 1182 549 1175 q 565 1199 565 1189 q 550 1218 565 1211 q 508 1225 535 1225 q 422 1208 467 1225 l 403 1268 q 517 1292 457 1292 q 617 1267 581 1292 q 654 1203 654 1243 q 638 1160 654 1175 q 590 1131 621 1144 q 556 1110 567 1118 q 546 1088 546 1101 l 546 1074 z "},"Ữ":{"ha":1015,"x_min":115,"x_max":1064,"o":"m 1064 1164 l 1064 1126 q 1021 990 1064 1043 q 900 922 978 938 l 900 388 q 800 90 900 192 q 508 -11 700 -11 q 215 90 314 -11 q 115 388 115 190 l 115 989 l 228 989 l 228 378 q 299 160 228 233 q 508 86 369 86 q 716 160 646 86 q 786 378 786 233 l 786 989 l 819 989 q 931 1025 897 990 q 964 1143 964 1060 l 964 1164 l 1064 1164 m 282 1103 q 316 1222 282 1179 q 407 1264 350 1264 q 463 1252 436 1264 q 525 1218 489 1240 q 572 1192 554 1200 q 606 1183 589 1183 q 653 1206 636 1183 q 671 1260 671 1228 l 733 1260 q 699 1141 733 1183 q 608 1099 665 1099 q 553 1110 579 1099 q 490 1144 526 1122 q 444 1171 461 1163 q 410 1179 426 1179 q 362 1157 379 1179 q 344 1103 344 1135 l 282 1103 z "},"Ű":{"ha":1015,"x_min":115,"x_max":900,"o":"m 508 -11 q 215 90 314 -11 q 115 388 115 190 l 115 989 l 228 989 l 228 378 q 299 160 228 233 q 508 86 369 86 q 716 160 646 86 q 786 378 786 233 l 786 989 l 900 989 l 900 388 q 800 90 900 192 q 508 -11 700 -11 m 492 1286 l 592 1286 l 454 1074 l 393 1074 l 492 1286 m 661 1286 l 758 1286 l 622 1074 l 561 1074 l 661 1286 z "},"Ȗ":{"ha":1015,"x_min":115,"x_max":900,"o":"m 508 -11 q 215 90 314 -11 q 115 388 115 190 l 115 989 l 228 989 l 228 378 q 299 160 228 233 q 508 86 369 86 q 716 160 646 86 q 786 378 786 233 l 786 989 l 900 989 l 900 388 q 800 90 900 192 q 508 -11 700 -11 m 508 1271 q 646 1235 586 1271 q 736 1122 706 1200 l 665 1092 q 596 1169 633 1147 q 508 1190 558 1190 q 419 1169 457 1190 q 350 1092 382 1147 l 279 1122 q 369 1235 310 1200 q 508 1271 429 1271 z "},"Ū":{"ha":1015,"x_min":115,"x_max":900,"o":"m 508 -11 q 215 90 314 -11 q 115 388 115 190 l 115 989 l 228 989 l 228 378 q 299 160 228 233 q 508 86 369 86 q 716 160 646 86 q 786 378 786 233 l 786 989 l 900 989 l 900 388 q 800 90 900 192 q 508 -11 700 -11 m 297 1224 l 718 1224 l 718 1138 l 297 1138 l 297 1224 z "},"Ṻ":{"ha":1015,"x_min":115,"x_max":900,"o":"m 508 -11 q 215 90 314 -11 q 115 388 115 190 l 115 989 l 228 989 l 228 378 q 299 160 228 233 q 508 86 369 86 q 716 160 646 86 q 786 378 786 233 l 786 989 l 900 989 l 900 388 q 800 90 900 192 q 508 -11 700 -11 m 297 1224 l 718 1224 l 718 1138 l 297 1138 l 297 1224 m 450 1465 l 450 1346 l 325 1346 l 325 1465 l 450 1465 m 690 1465 l 690 1346 l 565 1346 l 565 1465 l 690 1465 z "},"Ų":{"ha":1015,"x_min":115,"x_max":900,"o":"m 900 989 l 900 388 q 840 140 900 235 q 660 8 779 44 q 575 -38 601 -10 q 549 -108 549 -67 q 572 -173 549 -150 q 639 -196 596 -196 q 721 -172 676 -196 l 743 -239 q 624 -271 694 -271 q 506 -229 551 -271 q 460 -124 460 -187 q 513 -11 460 -53 l 508 -11 q 215 90 314 -11 q 115 388 115 190 l 115 989 l 228 989 l 228 378 q 299 160 228 233 q 508 86 369 86 q 716 160 646 86 q 786 378 786 233 l 786 989 l 900 989 z "},"Ů":{"ha":1015,"x_min":115,"x_max":900,"o":"m 508 -11 q 215 90 314 -11 q 115 388 115 190 l 115 989 l 228 989 l 228 378 q 299 160 228 233 q 508 86 369 86 q 716 160 646 86 q 786 378 786 233 l 786 989 l 900 989 l 900 388 q 800 90 900 192 q 508 -11 700 -11 m 508 1067 q 408 1106 449 1067 q 367 1206 367 1146 q 408 1304 367 1264 q 508 1344 449 1344 q 608 1304 567 1344 q 649 1206 649 1264 q 608 1107 649 1147 q 508 1067 567 1067 m 508 1135 q 556 1155 538 1135 q 575 1206 575 1175 q 556 1255 575 1235 q 508 1275 538 1275 q 460 1255 479 1275 q 440 1206 440 1235 q 459 1155 440 1175 q 508 1135 478 1135 z "},"Ũ":{"ha":1015,"x_min":115,"x_max":900,"o":"m 508 -11 q 215 90 314 -11 q 115 388 115 190 l 115 989 l 228 989 l 228 378 q 299 160 228 233 q 508 86 369 86 q 716 160 646 86 q 786 378 786 233 l 786 989 l 900 989 l 900 388 q 800 90 900 192 q 508 -11 700 -11 m 282 1103 q 316 1222 282 1179 q 407 1264 350 1264 q 463 1252 436 1264 q 525 1218 489 1240 q 572 1192 554 1200 q 606 1183 589 1183 q 653 1206 636 1183 q 671 1260 671 1228 l 733 1260 q 699 1141 733 1183 q 608 1099 665 1099 q 553 1110 579 1099 q 490 1144 526 1122 q 444 1171 461 1163 q 410 1179 426 1179 q 362 1157 379 1179 q 344 1103 344 1135 l 282 1103 z "},"Ṹ":{"ha":1015,"x_min":115,"x_max":900,"o":"m 508 -11 q 215 90 314 -11 q 115 388 115 190 l 115 989 l 228 989 l 228 378 q 299 160 228 233 q 508 86 369 86 q 716 160 646 86 q 786 378 786 233 l 786 989 l 900 989 l 900 388 q 800 90 900 192 q 508 -11 700 -11 m 282 1103 q 316 1222 282 1179 q 407 1264 350 1264 q 463 1252 436 1264 q 525 1218 489 1240 q 572 1192 554 1200 q 606 1183 589 1183 q 653 1206 636 1183 q 671 1260 671 1228 l 733 1260 q 699 1141 733 1183 q 608 1099 665 1099 q 553 1110 579 1099 q 490 1144 526 1122 q 444 1171 461 1163 q 410 1179 426 1179 q 362 1157 379 1179 q 344 1103 344 1135 l 282 1103 m 468 1299 l 610 1511 l 733 1511 l 547 1299 l 468 1299 z "},"V":{"ha":968,"x_min":3,"x_max":967,"o":"m 967 989 l 535 0 l 435 0 l 3 989 l 124 989 l 486 144 l 849 989 l 967 989 z "},"W":{"ha":1544,"x_min":46,"x_max":1497,"o":"m 1497 989 l 1151 0 l 1054 0 l 772 810 l 489 0 l 393 0 l 46 989 l 163 989 l 443 163 l 731 989 l 818 988 l 1101 160 l 1385 989 l 1497 989 z "},"Ẃ":{"ha":1544,"x_min":46,"x_max":1497,"o":"m 1497 989 l 1151 0 l 1054 0 l 772 810 l 489 0 l 393 0 l 46 989 l 163 989 l 443 163 l 731 989 l 818 988 l 1101 160 l 1385 989 l 1497 989 m 731 1074 l 872 1286 l 996 1286 l 810 1074 l 731 1074 z "},"Ŵ":{"ha":1544,"x_min":46,"x_max":1497,"o":"m 1497 989 l 1151 0 l 1054 0 l 772 810 l 489 0 l 393 0 l 46 989 l 163 989 l 443 163 l 731 989 l 818 988 l 1101 160 l 1385 989 l 1497 989 m 565 1074 l 732 1286 l 808 1286 l 975 1074 l 872 1074 l 771 1218 l 668 1074 l 565 1074 z "},"Ẅ":{"ha":1544,"x_min":46,"x_max":1497,"o":"m 1497 989 l 1151 0 l 1054 0 l 772 810 l 489 0 l 393 0 l 46 989 l 163 989 l 443 163 l 731 989 l 818 988 l 1101 160 l 1385 989 l 1497 989 m 713 1240 l 713 1121 l 588 1121 l 588 1240 l 713 1240 m 953 1240 l 953 1121 l 828 1121 l 828 1240 l 953 1240 z "},"Ẁ":{"ha":1544,"x_min":46,"x_max":1497,"o":"m 1497 989 l 1151 0 l 1054 0 l 772 810 l 489 0 l 393 0 l 46 989 l 163 989 l 443 163 l 731 989 l 818 988 l 1101 160 l 1385 989 l 1497 989 m 544 1286 l 668 1286 l 810 1074 l 731 1074 l 544 1286 z "},"X":{"ha":906,"x_min":11,"x_max":894,"o":"m 894 0 l 760 0 l 453 419 l 147 0 l 11 0 l 388 507 l 29 989 l 165 989 l 454 592 l 743 989 l 878 989 l 518 506 l 894 0 z "},"Y":{"ha":843,"x_min":-25,"x_max":867,"o":"m 478 400 l 478 0 l 364 0 l 364 401 l -25 989 l 108 989 l 422 503 l 736 989 l 867 989 l 478 400 z "},"Ý":{"ha":843,"x_min":-25,"x_max":867,"o":"m 478 400 l 478 0 l 364 0 l 364 401 l -25 989 l 108 989 l 422 503 l 736 989 l 867 989 l 478 400 m 381 1074 l 522 1286 l 646 1286 l 460 1074 l 381 1074 z "},"Ŷ":{"ha":843,"x_min":-25,"x_max":867,"o":"m 478 400 l 478 0 l 364 0 l 364 401 l -25 989 l 108 989 l 422 503 l 736 989 l 867 989 l 478 400 m 215 1074 l 382 1286 l 458 1286 l 625 1074 l 522 1074 l 421 1218 l 318 1074 l 215 1074 z "},"Ÿ":{"ha":843,"x_min":-25,"x_max":867,"o":"m 478 400 l 478 0 l 364 0 l 364 401 l -25 989 l 108 989 l 422 503 l 736 989 l 867 989 l 478 400 m 363 1240 l 363 1121 l 238 1121 l 238 1240 l 363 1240 m 603 1240 l 603 1121 l 478 1121 l 478 1240 l 603 1240 z "},"Ẏ":{"ha":843,"x_min":-25,"x_max":867,"o":"m 478 400 l 478 0 l 364 0 l 364 401 l -25 989 l 108 989 l 422 503 l 736 989 l 867 989 l 478 400 m 489 1244 l 489 1117 l 351 1117 l 351 1244 l 489 1244 z "},"Ỵ":{"ha":843,"x_min":-25,"x_max":867,"o":"m 478 400 l 478 0 l 364 0 l 364 401 l -25 989 l 108 989 l 422 503 l 736 989 l 867 989 l 478 400 m 485 -132 l 485 -256 l 356 -256 l 356 -132 l 485 -132 z "},"Ỳ":{"ha":843,"x_min":-25,"x_max":867,"o":"m 478 400 l 478 0 l 364 0 l 364 401 l -25 989 l 108 989 l 422 503 l 736 989 l 867 989 l 478 400 m 194 1286 l 318 1286 l 460 1074 l 381 1074 l 194 1286 z "},"Ỷ":{"ha":843,"x_min":-25,"x_max":867,"o":"m 478 400 l 478 0 l 364 0 l 364 401 l -25 989 l 108 989 l 422 503 l 736 989 l 867 989 l 478 400 m 458 1074 l 383 1074 l 383 1099 q 398 1135 383 1122 q 440 1164 413 1149 q 469 1182 461 1175 q 478 1199 478 1189 q 463 1218 478 1211 q 421 1225 447 1225 q 335 1208 379 1225 l 315 1268 q 429 1292 369 1292 q 530 1267 493 1292 q 567 1203 567 1243 q 550 1160 567 1175 q 503 1131 533 1144 q 469 1110 479 1118 q 458 1088 458 1101 l 458 1074 z "},"Ȳ":{"ha":843,"x_min":-25,"x_max":867,"o":"m 478 400 l 478 0 l 364 0 l 364 401 l -25 989 l 108 989 l 422 503 l 736 989 l 867 989 l 478 400 m 210 1224 l 631 1224 l 631 1138 l 210 1138 l 210 1224 z "},"Ỹ":{"ha":843,"x_min":-25,"x_max":867,"o":"m 478 400 l 478 0 l 364 0 l 364 401 l -25 989 l 108 989 l 422 503 l 736 989 l 867 989 l 478 400 m 194 1103 q 228 1222 194 1179 q 319 1264 263 1264 q 375 1252 349 1264 q 438 1218 401 1240 q 484 1192 467 1200 q 518 1183 501 1183 q 566 1206 549 1183 q 583 1260 583 1228 l 646 1260 q 612 1141 646 1183 q 521 1099 578 1099 q 465 1110 492 1099 q 403 1144 439 1122 q 356 1171 374 1163 q 322 1179 339 1179 q 274 1157 292 1179 q 257 1103 257 1135 l 194 1103 z "},"Z":{"ha":828,"x_min":63,"x_max":775,"o":"m 775 96 l 775 0 l 63 0 l 63 85 l 629 893 l 63 893 l 63 989 l 761 989 l 761 906 l 194 96 l 775 96 z "},"Ź":{"ha":828,"x_min":63,"x_max":775,"o":"m 775 96 l 775 0 l 63 0 l 63 85 l 629 893 l 63 893 l 63 989 l 761 989 l 761 906 l 194 96 l 775 96 m 372 1074 l 514 1286 l 638 1286 l 451 1074 l 372 1074 z "},"Ž":{"ha":828,"x_min":63,"x_max":775,"o":"m 775 96 l 775 0 l 63 0 l 63 85 l 629 893 l 63 893 l 63 989 l 761 989 l 761 906 l 194 96 l 775 96 m 617 1286 l 450 1074 l 374 1074 l 207 1286 l 310 1286 l 413 1140 l 514 1286 l 617 1286 z "},"Ż":{"ha":828,"x_min":63,"x_max":775,"o":"m 775 96 l 775 0 l 63 0 l 63 85 l 629 893 l 63 893 l 63 989 l 761 989 l 761 906 l 194 96 l 775 96 m 481 1244 l 481 1117 l 343 1117 l 343 1244 l 481 1244 z "},"Ẓ":{"ha":828,"x_min":63,"x_max":775,"o":"m 775 96 l 775 0 l 63 0 l 63 85 l 629 893 l 63 893 l 63 989 l 761 989 l 761 906 l 194 96 l 775 96 m 483 -132 l 483 -256 l 354 -256 l 354 -132 l 483 -132 z "},"a":{"ha":833,"x_min":67,"x_max":724,"o":"m 724 699 l 724 0 l 613 0 l 613 126 q 520 26 582 61 q 376 -10 458 -10 q 213 35 283 -10 q 105 160 143 79 q 67 350 67 242 q 106 541 67 458 q 215 669 144 624 q 376 715 285 715 q 519 679 458 715 q 613 578 581 643 l 613 699 l 724 699 m 399 83 q 557 153 501 83 q 613 353 613 224 q 557 551 613 482 q 399 621 501 621 q 238 549 296 621 q 181 350 181 478 q 238 153 181 222 q 399 83 294 83 z "},"á":{"ha":833,"x_min":67,"x_max":724,"o":"m 724 699 l 724 0 l 613 0 l 613 126 q 520 26 582 61 q 376 -10 458 -10 q 213 35 283 -10 q 105 160 143 79 q 67 350 67 242 q 106 541 67 458 q 215 669 144 624 q 376 715 285 715 q 519 679 458 715 q 613 578 581 643 l 613 699 l 724 699 m 399 83 q 557 153 501 83 q 613 353 613 224 q 557 551 613 482 q 399 621 501 621 q 238 549 296 621 q 181 350 181 478 q 238 153 181 222 q 399 83 294 83 m 378 789 l 517 1072 l 647 1072 l 457 789 l 378 789 z "},"ă":{"ha":833,"x_min":67,"x_max":724,"o":"m 724 699 l 724 0 l 613 0 l 613 126 q 520 26 582 61 q 376 -10 458 -10 q 213 35 283 -10 q 105 160 143 79 q 67 350 67 242 q 106 541 67 458 q 215 669 144 624 q 376 715 285 715 q 519 679 458 715 q 613 578 581 643 l 613 699 l 724 699 m 399 83 q 557 153 501 83 q 613 353 613 224 q 557 551 613 482 q 399 621 501 621 q 238 549 296 621 q 181 350 181 478 q 238 153 181 222 q 399 83 294 83 m 418 831 q 278 874 340 831 q 186 1008 215 918 l 257 1039 q 328 943 288 972 q 418 914 368 914 q 578 1039 519 914 l 649 1008 q 558 874 619 918 q 418 831 496 831 z "},"ắ":{"ha":833,"x_min":67,"x_max":724,"o":"m 724 699 l 724 0 l 613 0 l 613 126 q 520 26 582 61 q 376 -10 458 -10 q 213 35 283 -10 q 105 160 143 79 q 67 350 67 242 q 106 541 67 458 q 215 669 144 624 q 376 715 285 715 q 519 679 458 715 q 613 578 581 643 l 613 699 l 724 699 m 399 83 q 557 153 501 83 q 613 353 613 224 q 557 551 613 482 q 399 621 501 621 q 238 549 296 621 q 181 350 181 478 q 238 153 181 222 q 399 83 294 83 m 379 933 l 519 1132 l 639 1132 l 456 933 l 379 933 m 418 782 q 279 817 339 782 q 189 931 219 853 l 254 958 q 326 881 286 903 q 418 858 365 858 q 510 881 471 858 q 581 958 549 903 l 646 931 q 556 817 615 853 q 418 782 496 782 z "},"ặ":{"ha":833,"x_min":67,"x_max":724,"o":"m 724 699 l 724 0 l 613 0 l 613 126 q 520 26 582 61 q 376 -10 458 -10 q 213 35 283 -10 q 105 160 143 79 q 67 350 67 242 q 106 541 67 458 q 215 669 144 624 q 376 715 285 715 q 519 679 458 715 q 613 578 581 643 l 613 699 l 724 699 m 399 83 q 557 153 501 83 q 613 353 613 224 q 557 551 613 482 q 399 621 501 621 q 238 549 296 621 q 181 350 181 478 q 238 153 181 222 q 399 83 294 83 m 482 -132 l 482 -256 l 353 -256 l 353 -132 l 482 -132 m 418 831 q 278 874 340 831 q 186 1008 215 918 l 257 1039 q 328 943 288 972 q 418 914 368 914 q 578 1039 519 914 l 649 1008 q 558 874 619 918 q 418 831 496 831 z "},"ằ":{"ha":833,"x_min":67,"x_max":724,"o":"m 724 699 l 724 0 l 613 0 l 613 126 q 520 26 582 61 q 376 -10 458 -10 q 213 35 283 -10 q 105 160 143 79 q 67 350 67 242 q 106 541 67 458 q 215 669 144 624 q 376 715 285 715 q 519 679 458 715 q 613 578 581 643 l 613 699 l 724 699 m 399 83 q 557 153 501 83 q 613 353 613 224 q 557 551 613 482 q 399 621 501 621 q 238 549 296 621 q 181 350 181 478 q 238 153 181 222 q 399 83 294 83 m 196 1132 l 315 1132 l 456 933 l 379 933 l 196 1132 m 418 782 q 279 817 339 782 q 189 931 219 853 l 254 958 q 326 881 286 903 q 418 858 365 858 q 510 881 471 858 q 581 958 549 903 l 646 931 q 556 817 615 853 q 418 782 496 782 z "},"ẳ":{"ha":833,"x_min":67,"x_max":724,"o":"m 724 699 l 724 0 l 613 0 l 613 126 q 520 26 582 61 q 376 -10 458 -10 q 213 35 283 -10 q 105 160 143 79 q 67 350 67 242 q 106 541 67 458 q 215 669 144 624 q 376 715 285 715 q 519 679 458 715 q 613 578 581 643 l 613 699 l 724 699 m 399 83 q 557 153 501 83 q 613 353 613 224 q 557 551 613 482 q 399 621 501 621 q 238 549 296 621 q 181 350 181 478 q 238 153 181 222 q 399 83 294 83 m 456 933 l 381 933 l 381 957 q 397 993 381 981 q 440 1018 413 1006 q 467 1032 458 1026 q 475 1046 475 1038 q 460 1065 475 1057 q 418 1072 444 1072 q 332 1054 375 1072 l 313 1115 q 426 1139 371 1139 q 527 1115 490 1139 q 564 1050 564 1090 q 549 1013 564 1025 q 501 985 533 1000 q 467 967 479 975 q 456 946 456 958 l 456 933 m 418 782 q 279 817 339 782 q 189 931 219 853 l 254 958 q 326 881 286 903 q 418 858 365 858 q 510 881 471 858 q 581 958 549 903 l 646 931 q 556 817 615 853 q 418 782 496 782 z "},"ẵ":{"ha":833,"x_min":67,"x_max":724,"o":"m 724 699 l 724 0 l 613 0 l 613 126 q 520 26 582 61 q 376 -10 458 -10 q 213 35 283 -10 q 105 160 143 79 q 67 350 67 242 q 106 541 67 458 q 215 669 144 624 q 376 715 285 715 q 519 679 458 715 q 613 578 581 643 l 613 699 l 724 699 m 399 83 q 557 153 501 83 q 613 353 613 224 q 557 551 613 482 q 399 621 501 621 q 238 549 296 621 q 181 350 181 478 q 238 153 181 222 q 399 83 294 83 m 192 999 q 226 1103 192 1064 q 317 1143 261 1143 q 370 1133 344 1143 q 435 1101 396 1122 q 481 1077 464 1085 q 515 1069 499 1069 q 563 1090 546 1069 q 581 1139 581 1110 l 643 1139 q 609 1034 643 1074 q 518 994 575 994 q 465 1005 490 994 q 400 1036 439 1015 q 352 1060 368 1053 q 319 1067 336 1067 q 272 1047 289 1067 q 254 999 254 1028 l 192 999 m 418 782 q 279 817 339 782 q 189 931 219 853 l 254 958 q 326 881 286 903 q 418 858 365 858 q 510 881 471 858 q 581 958 549 903 l 646 931 q 556 817 615 853 q 418 782 496 782 z "},"ǎ":{"ha":833,"x_min":67,"x_max":724,"o":"m 724 699 l 724 0 l 613 0 l 613 126 q 520 26 582 61 q 376 -10 458 -10 q 213 35 283 -10 q 105 160 143 79 q 67 350 67 242 q 106 541 67 458 q 215 669 144 624 q 376 715 285 715 q 519 679 458 715 q 613 578 581 643 l 613 699 l 724 699 m 399 83 q 557 153 501 83 q 613 353 613 224 q 557 551 613 482 q 399 621 501 621 q 238 549 296 621 q 181 350 181 478 q 238 153 181 222 q 399 83 294 83 m 622 1072 l 457 789 l 378 789 l 213 1072 l 317 1072 l 418 871 l 518 1072 l 622 1072 z "},"â":{"ha":833,"x_min":67,"x_max":724,"o":"m 724 699 l 724 0 l 613 0 l 613 126 q 520 26 582 61 q 376 -10 458 -10 q 213 35 283 -10 q 105 160 143 79 q 67 350 67 242 q 106 541 67 458 q 215 669 144 624 q 376 715 285 715 q 519 679 458 715 q 613 578 581 643 l 613 699 l 724 699 m 399 83 q 557 153 501 83 q 613 353 613 224 q 557 551 613 482 q 399 621 501 621 q 238 549 296 621 q 181 350 181 478 q 238 153 181 222 q 399 83 294 83 m 213 789 l 378 1072 l 457 1072 l 622 789 l 518 789 l 418 989 l 317 789 l 213 789 z "},"ấ":{"ha":833,"x_min":67,"x_max":783,"o":"m 724 699 l 724 0 l 613 0 l 613 126 q 520 26 582 61 q 376 -10 458 -10 q 213 35 283 -10 q 105 160 143 79 q 67 350 67 242 q 106 541 67 458 q 215 669 144 624 q 376 715 285 715 q 519 679 458 715 q 613 578 581 643 l 613 699 l 724 699 m 399 83 q 557 153 501 83 q 613 353 613 224 q 557 551 613 482 q 399 621 501 621 q 238 549 296 621 q 181 350 181 478 q 238 153 181 222 q 399 83 294 83 m 536 933 l 664 1132 l 783 1132 l 606 933 l 536 933 m 213 789 l 379 994 l 456 994 l 622 789 l 519 789 l 418 928 l 315 789 l 213 789 z "},"ậ":{"ha":833,"x_min":67,"x_max":724,"o":"m 724 699 l 724 0 l 613 0 l 613 126 q 520 26 582 61 q 376 -10 458 -10 q 213 35 283 -10 q 105 160 143 79 q 67 350 67 242 q 106 541 67 458 q 215 669 144 624 q 376 715 285 715 q 519 679 458 715 q 613 578 581 643 l 613 699 l 724 699 m 399 83 q 557 153 501 83 q 613 353 613 224 q 557 551 613 482 q 399 621 501 621 q 238 549 296 621 q 181 350 181 478 q 238 153 181 222 q 399 83 294 83 m 482 -132 l 482 -256 l 353 -256 l 353 -132 l 482 -132 m 213 789 l 378 1072 l 457 1072 l 622 789 l 518 789 l 418 989 l 317 789 l 213 789 z "},"ầ":{"ha":833,"x_min":67,"x_max":724,"o":"m 724 699 l 724 0 l 613 0 l 613 126 q 520 26 582 61 q 376 -10 458 -10 q 213 35 283 -10 q 105 160 143 79 q 67 350 67 242 q 106 541 67 458 q 215 669 144 624 q 376 715 285 715 q 519 679 458 715 q 613 578 581 643 l 613 699 l 724 699 m 399 83 q 557 153 501 83 q 613 353 613 224 q 557 551 613 482 q 399 621 501 621 q 238 549 296 621 q 181 350 181 478 q 238 153 181 222 q 399 83 294 83 m 439 1132 l 557 1132 l 665 933 l 596 933 l 439 1132 m 213 789 l 379 994 l 456 994 l 622 789 l 519 789 l 418 928 l 315 789 l 213 789 z "},"ẩ":{"ha":833,"x_min":67,"x_max":724,"o":"m 724 699 l 724 0 l 613 0 l 613 126 q 520 26 582 61 q 376 -10 458 -10 q 213 35 283 -10 q 105 160 143 79 q 67 350 67 242 q 106 541 67 458 q 215 669 144 624 q 376 715 285 715 q 519 679 458 715 q 613 578 581 643 l 613 699 l 724 699 m 399 83 q 557 153 501 83 q 613 353 613 224 q 557 551 613 482 q 399 621 501 621 q 238 549 296 621 q 181 350 181 478 q 238 153 181 222 q 399 83 294 83 m 610 933 l 535 933 l 535 957 q 551 993 535 981 q 594 1018 567 1006 q 621 1032 613 1026 q 629 1046 629 1038 q 614 1065 629 1057 q 572 1072 599 1072 q 486 1054 529 1072 l 467 1115 q 581 1139 525 1139 q 682 1115 644 1139 q 719 1050 719 1090 q 703 1013 719 1025 q 656 985 688 1000 q 622 967 633 975 q 610 946 610 958 l 610 933 m 213 789 l 379 994 l 456 994 l 622 789 l 519 789 l 418 928 l 315 789 l 213 789 z "},"ẫ":{"ha":833,"x_min":67,"x_max":724,"o":"m 724 699 l 724 0 l 613 0 l 613 126 q 520 26 582 61 q 376 -10 458 -10 q 213 35 283 -10 q 105 160 143 79 q 67 350 67 242 q 106 541 67 458 q 215 669 144 624 q 376 715 285 715 q 519 679 458 715 q 613 578 581 643 l 613 699 l 724 699 m 399 83 q 557 153 501 83 q 613 353 613 224 q 557 551 613 482 q 399 621 501 621 q 238 549 296 621 q 181 350 181 478 q 238 153 181 222 q 399 83 294 83 m 192 1015 q 226 1115 192 1076 q 317 1154 261 1154 q 372 1145 346 1154 q 435 1119 397 1136 q 477 1102 456 1110 q 515 1094 499 1094 q 563 1113 546 1094 q 581 1156 581 1131 l 643 1156 q 608 1057 643 1096 q 518 1018 574 1018 q 463 1027 489 1018 q 400 1053 438 1036 q 358 1070 379 1063 q 319 1078 336 1078 q 272 1059 289 1078 q 254 1015 254 1040 l 192 1015 m 213 789 l 379 994 l 456 994 l 622 789 l 519 789 l 418 928 l 315 789 l 213 789 z "},"ȁ":{"ha":833,"x_min":67,"x_max":724,"o":"m 724 699 l 724 0 l 613 0 l 613 126 q 520 26 582 61 q 376 -10 458 -10 q 213 35 283 -10 q 105 160 143 79 q 67 350 67 242 q 106 541 67 458 q 215 669 144 624 q 376 715 285 715 q 519 679 458 715 q 613 578 581 643 l 613 699 l 724 699 m 399 83 q 557 153 501 83 q 613 353 613 224 q 557 551 613 482 q 399 621 501 621 q 238 549 296 621 q 181 350 181 478 q 238 153 181 222 q 399 83 294 83 m 193 1072 l 299 1072 l 361 789 l 304 789 l 193 1072 m 363 1072 l 467 1072 l 531 789 l 474 789 l 363 1072 z "},"ä":{"ha":833,"x_min":67,"x_max":724,"o":"m 724 699 l 724 0 l 613 0 l 613 126 q 520 26 582 61 q 376 -10 458 -10 q 213 35 283 -10 q 105 160 143 79 q 67 350 67 242 q 106 541 67 458 q 215 669 144 624 q 376 715 285 715 q 519 679 458 715 q 613 578 581 643 l 613 699 l 724 699 m 399 83 q 557 153 501 83 q 613 353 613 224 q 557 551 613 482 q 399 621 501 621 q 238 549 296 621 q 181 350 181 478 q 238 153 181 222 q 399 83 294 83 m 360 990 l 360 871 l 235 871 l 235 990 l 360 990 m 600 990 l 600 871 l 475 871 l 475 990 l 600 990 z "},"ȧ":{"ha":833,"x_min":67,"x_max":724,"o":"m 724 699 l 724 0 l 613 0 l 613 126 q 520 26 582 61 q 376 -10 458 -10 q 213 35 283 -10 q 105 160 143 79 q 67 350 67 242 q 106 541 67 458 q 215 669 144 624 q 376 715 285 715 q 519 679 458 715 q 613 578 581 643 l 613 699 l 724 699 m 399 83 q 557 153 501 83 q 613 353 613 224 q 557 551 613 482 q 399 621 501 621 q 238 549 296 621 q 181 350 181 478 q 238 153 181 222 q 399 83 294 83 m 486 994 l 486 867 l 349 867 l 349 994 l 486 994 z "},"ạ":{"ha":833,"x_min":67,"x_max":724,"o":"m 724 699 l 724 0 l 613 0 l 613 126 q 520 26 582 61 q 376 -10 458 -10 q 213 35 283 -10 q 105 160 143 79 q 67 350 67 242 q 106 541 67 458 q 215 669 144 624 q 376 715 285 715 q 519 679 458 715 q 613 578 581 643 l 613 699 l 724 699 m 399 83 q 557 153 501 83 q 613 353 613 224 q 557 551 613 482 q 399 621 501 621 q 238 549 296 621 q 181 350 181 478 q 238 153 181 222 q 399 83 294 83 m 482 -132 l 482 -256 l 353 -256 l 353 -132 l 482 -132 z "},"à":{"ha":833,"x_min":67,"x_max":724,"o":"m 724 699 l 724 0 l 613 0 l 613 126 q 520 26 582 61 q 376 -10 458 -10 q 213 35 283 -10 q 105 160 143 79 q 67 350 67 242 q 106 541 67 458 q 215 669 144 624 q 376 715 285 715 q 519 679 458 715 q 613 578 581 643 l 613 699 l 724 699 m 399 83 q 557 153 501 83 q 613 353 613 224 q 557 551 613 482 q 399 621 501 621 q 238 549 296 621 q 181 350 181 478 q 238 153 181 222 q 399 83 294 83 m 188 1072 l 318 1072 l 457 789 l 378 789 l 188 1072 z "},"ả":{"ha":833,"x_min":67,"x_max":724,"o":"m 724 699 l 724 0 l 613 0 l 613 126 q 520 26 582 61 q 376 -10 458 -10 q 213 35 283 -10 q 105 160 143 79 q 67 350 67 242 q 106 541 67 458 q 215 669 144 624 q 376 715 285 715 q 519 679 458 715 q 613 578 581 643 l 613 699 l 724 699 m 399 83 q 557 153 501 83 q 613 353 613 224 q 557 551 613 482 q 399 621 501 621 q 238 549 296 621 q 181 350 181 478 q 238 153 181 222 q 399 83 294 83 m 457 789 l 383 789 l 383 828 q 397 876 383 856 q 438 921 411 896 q 465 950 457 940 q 472 972 472 960 q 458 998 472 989 q 415 1007 443 1007 q 333 992 378 1007 l 313 1053 q 425 1078 367 1078 q 527 1050 490 1078 q 564 981 564 1022 q 549 929 564 949 q 506 885 535 910 q 469 851 482 867 q 457 813 457 835 l 457 789 z "},"ȃ":{"ha":833,"x_min":67,"x_max":724,"o":"m 724 699 l 724 0 l 613 0 l 613 126 q 520 26 582 61 q 376 -10 458 -10 q 213 35 283 -10 q 105 160 143 79 q 67 350 67 242 q 106 541 67 458 q 215 669 144 624 q 376 715 285 715 q 519 679 458 715 q 613 578 581 643 l 613 699 l 724 699 m 399 83 q 557 153 501 83 q 613 353 613 224 q 557 551 613 482 q 399 621 501 621 q 238 549 296 621 q 181 350 181 478 q 238 153 181 222 q 399 83 294 83 m 418 1036 q 558 993 496 1036 q 649 860 619 950 l 578 829 q 508 924 547 894 q 418 953 468 953 q 328 924 368 953 q 257 829 288 896 l 186 858 q 277 992 215 949 q 418 1036 339 1036 z "},"ā":{"ha":833,"x_min":67,"x_max":724,"o":"m 724 699 l 724 0 l 613 0 l 613 126 q 520 26 582 61 q 376 -10 458 -10 q 213 35 283 -10 q 105 160 143 79 q 67 350 67 242 q 106 541 67 458 q 215 669 144 624 q 376 715 285 715 q 519 679 458 715 q 613 578 581 643 l 613 699 l 724 699 m 399 83 q 557 153 501 83 q 613 353 613 224 q 557 551 613 482 q 399 621 501 621 q 238 549 296 621 q 181 350 181 478 q 238 153 181 222 q 399 83 294 83 m 207 974 l 628 974 l 628 888 l 207 888 l 207 974 z "},"ą":{"ha":833,"x_min":67,"x_max":789,"o":"m 789 -244 q 665 -276 738 -276 q 545 -235 592 -276 q 499 -125 499 -193 q 528 -30 499 -72 q 613 36 558 13 l 613 126 q 520 26 582 61 q 376 -10 458 -10 q 213 35 283 -10 q 105 160 143 79 q 67 350 67 242 q 106 541 67 458 q 215 669 144 624 q 376 715 285 715 q 519 679 458 715 q 613 578 581 643 l 613 699 l 724 699 l 724 0 l 717 0 q 624 -31 660 0 q 588 -111 588 -62 q 613 -178 588 -154 q 682 -203 638 -203 q 765 -176 717 -203 l 789 -244 m 399 83 q 557 153 501 83 q 613 353 613 224 q 557 551 613 482 q 399 621 501 621 q 238 549 296 621 q 181 350 181 478 q 238 153 181 222 q 399 83 294 83 z "},"å":{"ha":833,"x_min":67,"x_max":724,"o":"m 724 699 l 724 0 l 613 0 l 613 126 q 520 26 582 61 q 376 -10 458 -10 q 213 35 283 -10 q 105 160 143 79 q 67 350 67 242 q 106 541 67 458 q 215 669 144 624 q 376 715 285 715 q 519 679 458 715 q 613 578 581 643 l 613 699 l 724 699 m 399 83 q 557 153 501 83 q 613 353 613 224 q 557 551 613 482 q 399 621 501 621 q 238 549 296 621 q 181 350 181 478 q 238 153 181 222 q 399 83 294 83 m 418 792 q 317 831 358 792 q 276 931 276 871 q 317 1029 276 989 q 418 1069 358 1069 q 517 1029 476 1069 q 558 931 558 989 q 517 832 558 872 q 418 792 476 792 m 418 860 q 466 880 447 860 q 485 931 485 900 q 466 980 485 960 q 418 1000 447 1000 q 369 980 389 1000 q 350 931 350 960 q 369 880 350 900 q 418 860 388 860 z "},"ǻ":{"ha":833,"x_min":67,"x_max":726,"o":"m 418 794 q 315 835 357 794 q 274 936 274 876 q 315 1038 274 996 q 418 1079 357 1079 q 493 1058 460 1079 l 604 1221 l 726 1217 l 540 1011 q 563 936 563 978 q 520 835 563 876 q 418 794 478 794 m 418 1008 q 368 988 388 1008 q 349 936 349 967 q 369 885 349 907 q 418 864 389 864 q 467 885 447 864 q 488 936 488 907 q 467 988 488 967 q 418 1008 447 1008 m 613 699 l 724 699 l 724 0 l 613 0 l 613 126 q 520 26 582 61 q 376 -10 458 -10 q 213 35 283 -10 q 105 160 143 79 q 67 350 67 242 q 106 541 67 458 q 215 669 144 624 q 376 715 285 715 q 519 679 458 715 q 613 578 581 643 l 613 699 m 399 83 q 557 153 501 83 q 613 353 613 224 q 557 551 613 482 q 399 621 501 621 q 238 549 296 621 q 181 350 181 478 q 238 153 181 222 q 399 83 294 83 z "},"ã":{"ha":833,"x_min":67,"x_max":724,"o":"m 724 699 l 724 0 l 613 0 l 613 126 q 520 26 582 61 q 376 -10 458 -10 q 213 35 283 -10 q 105 160 143 79 q 67 350 67 242 q 106 541 67 458 q 215 669 144 624 q 376 715 285 715 q 519 679 458 715 q 613 578 581 643 l 613 699 l 724 699 m 399 83 q 557 153 501 83 q 613 353 613 224 q 557 551 613 482 q 399 621 501 621 q 238 549 296 621 q 181 350 181 478 q 238 153 181 222 q 399 83 294 83 m 192 854 q 226 972 192 931 q 317 1014 260 1014 q 372 1002 346 1014 q 435 968 399 990 q 481 942 464 950 q 515 933 499 933 q 563 956 546 933 q 581 1010 581 978 l 643 1010 q 609 892 643 933 q 518 850 575 850 q 463 862 489 850 q 400 896 436 874 q 353 922 371 914 q 319 931 336 931 q 272 908 289 931 q 254 854 254 886 l 192 854 z "},"æ":{"ha":1224,"x_min":85,"x_max":1161,"o":"m 658 353 l 658 351 q 718 153 658 222 q 893 83 778 83 q 1113 165 1006 83 l 1149 83 q 1033 15 1104 40 q 890 -10 963 -10 q 710 37 785 -10 q 597 171 635 83 q 503 38 569 85 q 342 -10 436 -10 q 210 18 268 -10 q 118 97 151 46 q 85 211 85 147 q 124 335 85 289 q 253 404 164 382 q 492 426 342 426 l 547 426 l 547 449 q 512 581 547 540 q 394 622 476 622 q 151 547 275 622 l 114 629 q 244 692 167 668 q 393 715 321 715 q 626 590 569 715 q 731 683 668 650 q 872 715 794 715 q 1084 623 1007 715 q 1161 372 1161 531 l 1161 353 l 658 353 m 871 628 q 732 576 786 628 q 664 426 678 524 l 1060 426 q 1003 576 1053 524 q 871 628 954 628 m 353 79 q 494 140 440 79 q 547 296 547 200 l 547 354 l 497 354 q 320 340 385 354 q 228 295 256 325 q 200 215 200 265 q 242 117 200 154 q 353 79 285 79 z "},"ǽ":{"ha":1224,"x_min":85,"x_max":1161,"o":"m 658 353 l 658 351 q 718 153 658 222 q 893 83 778 83 q 1113 165 1006 83 l 1149 83 q 1033 15 1104 40 q 890 -10 963 -10 q 710 37 785 -10 q 597 171 635 83 q 503 38 569 85 q 342 -10 436 -10 q 210 18 268 -10 q 118 97 151 46 q 85 211 85 147 q 124 335 85 289 q 253 404 164 382 q 492 426 342 426 l 547 426 l 547 449 q 512 581 547 540 q 394 622 476 622 q 151 547 275 622 l 114 629 q 244 692 167 668 q 393 715 321 715 q 626 590 569 715 q 731 683 668 650 q 872 715 794 715 q 1084 623 1007 715 q 1161 372 1161 531 l 1161 353 l 658 353 m 871 628 q 732 576 786 628 q 664 426 678 524 l 1060 426 q 1003 576 1053 524 q 871 628 954 628 m 353 79 q 494 140 440 79 q 547 296 547 200 l 547 354 l 497 354 q 320 340 385 354 q 228 295 256 325 q 200 215 200 265 q 242 117 200 154 q 353 79 285 79 m 564 789 l 703 1072 l 833 1072 l 643 789 l 564 789 z "},"b":{"ha":833,"x_min":108,"x_max":768,"o":"m 457 715 q 619 671 549 715 q 729 545 690 626 q 768 356 768 464 q 729 165 768 247 q 619 36 690 82 q 457 -10 549 -10 q 314 26 375 -10 q 221 129 253 63 l 221 0 l 108 0 l 108 1022 l 221 1022 l 221 575 q 313 679 251 643 q 457 715 375 715 m 436 83 q 594 155 538 83 q 651 356 651 226 q 595 551 651 482 q 436 621 539 621 q 276 551 332 621 q 221 353 221 482 q 276 153 221 224 q 436 83 332 83 z "},"c":{"ha":688,"x_min":67,"x_max":653,"o":"m 401 -10 q 224 35 300 -10 q 108 160 149 79 q 67 350 67 242 q 108 541 67 458 q 227 669 150 624 q 407 715 304 715 q 544 691 478 715 q 653 624 610 667 l 615 540 q 513 601 563 582 q 413 621 464 621 q 244 549 306 621 q 183 350 183 478 q 244 153 183 224 q 413 83 304 83 q 513 103 464 83 q 615 164 563 122 l 653 81 q 541 15 608 39 q 401 -10 474 -10 z "},"ć":{"ha":688,"x_min":67,"x_max":653,"o":"m 401 -10 q 224 35 300 -10 q 108 160 149 79 q 67 350 67 242 q 108 541 67 458 q 227 669 150 624 q 407 715 304 715 q 544 691 478 715 q 653 624 610 667 l 615 540 q 513 601 563 582 q 413 621 464 621 q 244 549 306 621 q 183 350 183 478 q 244 153 183 224 q 413 83 304 83 q 513 103 464 83 q 615 164 563 122 l 653 81 q 541 15 608 39 q 401 -10 474 -10 m 361 789 l 500 1072 l 631 1072 l 440 789 l 361 789 z "},"č":{"ha":688,"x_min":67,"x_max":653,"o":"m 401 -10 q 224 35 300 -10 q 108 160 149 79 q 67 350 67 242 q 108 541 67 458 q 227 669 150 624 q 407 715 304 715 q 544 691 478 715 q 653 624 610 667 l 615 540 q 513 601 563 582 q 413 621 464 621 q 244 549 306 621 q 183 350 183 478 q 244 153 183 224 q 413 83 304 83 q 513 103 464 83 q 615 164 563 122 l 653 81 q 541 15 608 39 q 401 -10 474 -10 m 606 1072 l 440 789 l 361 789 l 196 1072 l 300 1072 l 401 871 l 501 1072 l 606 1072 z "},"ç":{"ha":688,"x_min":67,"x_max":653,"o":"m 653 81 q 549 17 611 42 q 421 -10 488 -7 l 415 -60 q 449 -57 438 -57 q 524 -82 493 -57 q 556 -154 556 -107 q 513 -238 556 -206 q 393 -271 469 -271 q 329 -264 364 -271 q 269 -244 294 -257 l 288 -183 q 393 -203 338 -203 q 451 -190 431 -203 q 471 -154 471 -178 q 458 -126 471 -136 q 422 -117 446 -117 q 358 -129 390 -117 l 331 -107 l 342 -6 q 140 108 214 13 q 67 350 67 203 q 108 541 67 458 q 227 669 150 624 q 407 715 304 715 q 544 691 478 715 q 653 624 610 667 l 615 540 q 513 601 563 582 q 413 621 464 621 q 244 549 306 621 q 183 350 183 478 q 244 153 183 224 q 413 83 304 83 q 513 103 464 83 q 615 164 563 122 l 653 81 z "},"ḉ":{"ha":688,"x_min":67,"x_max":653,"o":"m 440 789 l 361 789 l 500 1072 l 631 1072 l 440 789 m 653 81 q 549 17 611 42 q 421 -10 488 -7 l 415 -60 q 449 -57 438 -57 q 524 -82 493 -57 q 556 -154 556 -107 q 513 -238 556 -206 q 393 -271 469 -271 q 329 -264 364 -271 q 269 -244 294 -257 l 288 -183 q 393 -203 338 -203 q 451 -190 431 -203 q 471 -154 471 -178 q 458 -126 471 -136 q 422 -117 446 -117 q 358 -129 390 -117 l 331 -107 l 342 -6 q 140 108 214 13 q 67 350 67 203 q 108 541 67 458 q 227 669 150 624 q 407 715 304 715 q 544 691 478 715 q 653 624 610 667 l 615 540 q 513 601 563 582 q 413 621 464 621 q 244 549 306 621 q 183 350 183 478 q 244 153 183 224 q 413 83 304 83 q 513 103 464 83 q 615 164 563 122 l 653 81 z "},"ĉ":{"ha":688,"x_min":67,"x_max":653,"o":"m 401 -10 q 224 35 300 -10 q 108 160 149 79 q 67 350 67 242 q 108 541 67 458 q 227 669 150 624 q 407 715 304 715 q 544 691 478 715 q 653 624 610 667 l 615 540 q 513 601 563 582 q 413 621 464 621 q 244 549 306 621 q 183 350 183 478 q 244 153 183 224 q 413 83 304 83 q 513 103 464 83 q 615 164 563 122 l 653 81 q 541 15 608 39 q 401 -10 474 -10 m 196 789 l 361 1072 l 440 1072 l 606 789 l 501 789 l 401 989 l 300 789 l 196 789 z "},"ċ":{"ha":688,"x_min":67,"x_max":653,"o":"m 401 -10 q 224 35 300 -10 q 108 160 149 79 q 67 350 67 242 q 108 541 67 458 q 227 669 150 624 q 407 715 304 715 q 544 691 478 715 q 653 624 610 667 l 615 540 q 513 601 563 582 q 413 621 464 621 q 244 549 306 621 q 183 350 183 478 q 244 153 183 224 q 413 83 304 83 q 513 103 464 83 q 615 164 563 122 l 653 81 q 541 15 608 39 q 401 -10 474 -10 m 469 994 l 469 867 l 332 867 l 332 994 l 469 994 z "},"d":{"ha":833,"x_min":67,"x_max":724,"o":"m 724 1022 l 724 0 l 613 0 l 613 126 q 520 26 582 61 q 376 -10 458 -10 q 215 36 285 -10 q 106 165 144 82 q 67 356 67 247 q 105 545 67 464 q 214 671 143 626 q 376 715 285 715 q 519 680 458 715 q 611 581 581 644 l 611 1022 l 724 1022 m 399 83 q 557 153 501 83 q 613 353 613 224 q 557 551 613 481 q 399 621 501 621 q 238 551 296 621 q 181 356 181 482 q 238 155 181 226 q 399 83 296 83 z "},"ð":{"ha":800,"x_min":67,"x_max":733,"o":"m 583 843 q 695 652 657 761 q 733 413 733 543 q 647 98 733 206 q 394 -10 560 -10 q 223 31 297 -10 q 108 147 149 72 q 67 321 67 222 q 107 495 67 419 q 221 612 147 571 q 390 653 294 653 q 617 549 543 653 q 485 807 590 704 l 256 725 l 232 796 l 418 863 q 225 950 338 921 l 254 1033 q 524 901 411 993 l 707 967 l 729 896 l 583 843 m 397 83 q 556 147 499 83 q 613 321 613 210 q 556 497 613 435 q 397 560 500 560 q 238 497 294 560 q 181 321 181 435 q 237 145 181 207 q 397 83 293 83 z "},"ď":{"ha":833,"x_min":67,"x_max":863,"o":"m 611 1022 l 724 1022 l 724 0 l 613 0 l 613 126 q 520 26 582 61 q 376 -10 458 -10 q 215 36 285 -10 q 106 165 144 82 q 67 356 67 247 q 105 545 67 464 q 214 671 143 626 q 376 715 285 715 q 519 680 458 715 q 611 581 581 644 l 611 1022 m 863 1022 l 825 750 l 772 750 l 772 1022 l 863 1022 m 399 83 q 557 153 501 83 q 613 353 613 224 q 557 551 613 481 q 399 621 501 621 q 238 551 296 621 q 181 356 181 482 q 238 155 181 226 q 399 83 296 83 z "},"đ":{"ha":833,"x_min":67,"x_max":857,"o":"m 857 808 l 724 808 l 724 0 l 613 0 l 613 126 q 520 26 582 61 q 376 -10 458 -10 q 215 36 285 -10 q 106 165 144 82 q 67 356 67 247 q 105 545 67 464 q 214 671 143 626 q 376 715 285 715 q 519 680 458 715 q 611 581 581 644 l 611 808 l 335 808 l 335 893 l 611 893 l 611 1022 l 724 1022 l 724 893 l 857 893 l 857 808 m 399 83 q 557 153 501 83 q 613 353 613 224 q 557 551 613 481 q 399 621 501 621 q 238 551 296 621 q 181 356 181 482 q 238 155 181 226 q 399 83 296 83 z "},"ḍ":{"ha":833,"x_min":67,"x_max":724,"o":"m 724 1022 l 724 0 l 613 0 l 613 126 q 520 26 582 61 q 376 -10 458 -10 q 215 36 285 -10 q 106 165 144 82 q 67 356 67 247 q 105 545 67 464 q 214 671 143 626 q 376 715 285 715 q 519 680 458 715 q 611 581 581 644 l 611 1022 l 724 1022 m 399 83 q 557 153 501 83 q 613 353 613 224 q 557 551 613 481 q 399 621 501 621 q 238 551 296 621 q 181 356 181 482 q 238 155 181 226 q 399 83 296 83 m 483 -132 l 483 -256 l 354 -256 l 354 -132 l 483 -132 z "},"ḏ":{"ha":833,"x_min":67,"x_max":724,"o":"m 724 1022 l 724 0 l 613 0 l 613 126 q 520 26 582 61 q 376 -10 458 -10 q 215 36 285 -10 q 106 165 144 82 q 67 356 67 247 q 105 545 67 464 q 214 671 143 626 q 376 715 285 715 q 519 680 458 715 q 611 581 581 644 l 611 1022 l 724 1022 m 399 83 q 557 153 501 83 q 613 353 613 224 q 557 551 613 481 q 399 621 501 621 q 238 551 296 621 q 181 356 181 482 q 238 155 181 226 q 399 83 296 83 m 208 -153 l 629 -153 l 629 -236 l 208 -236 l 208 -153 z "},"ǆ":{"ha":1553,"x_min":67,"x_max":1493,"o":"m 724 1022 l 724 0 l 613 0 l 613 126 q 520 26 582 61 q 376 -10 458 -10 q 215 36 285 -10 q 106 165 144 82 q 67 356 67 247 q 105 545 67 464 q 214 671 143 626 q 376 715 285 715 q 519 680 458 715 q 611 581 581 644 l 611 1022 l 724 1022 m 399 83 q 557 153 501 83 q 613 353 613 224 q 557 551 613 481 q 399 621 501 621 q 238 551 296 621 q 181 356 181 482 q 238 155 181 226 q 399 83 296 83 m 1493 89 l 1493 0 l 903 0 l 903 78 l 1343 610 l 918 610 l 918 699 l 1478 699 l 1478 617 l 1042 89 l 1493 89 m 1404 1072 l 1239 789 l 1160 789 l 994 1072 l 1099 1072 l 1200 871 l 1300 1072 l 1404 1072 z "},"e":{"ha":756,"x_min":67,"x_max":693,"o":"m 693 353 l 181 353 q 242 151 182 219 q 418 83 303 83 q 643 165 540 83 l 681 83 q 563 15 635 40 q 417 -10 492 -10 q 160 87 253 -10 q 67 351 67 183 q 108 541 67 458 q 225 669 150 624 q 396 715 300 715 q 614 624 535 715 q 693 374 693 533 l 693 353 m 397 628 q 255 575 310 628 q 185 426 200 522 l 592 426 q 534 576 583 525 q 397 628 485 628 z "},"é":{"ha":756,"x_min":67,"x_max":693,"o":"m 693 353 l 181 353 q 242 151 182 219 q 418 83 303 83 q 643 165 540 83 l 681 83 q 563 15 635 40 q 417 -10 492 -10 q 160 87 253 -10 q 67 351 67 183 q 108 541 67 458 q 225 669 150 624 q 396 715 300 715 q 614 624 535 715 q 693 374 693 533 l 693 353 m 397 628 q 255 575 310 628 q 185 426 200 522 l 592 426 q 534 576 583 525 q 397 628 485 628 m 356 789 l 494 1072 l 625 1072 l 435 789 l 356 789 z "},"ĕ":{"ha":756,"x_min":67,"x_max":693,"o":"m 693 353 l 181 353 q 242 151 182 219 q 418 83 303 83 q 643 165 540 83 l 681 83 q 563 15 635 40 q 417 -10 492 -10 q 160 87 253 -10 q 67 351 67 183 q 108 541 67 458 q 225 669 150 624 q 396 715 300 715 q 614 624 535 715 q 693 374 693 533 l 693 353 m 397 628 q 255 575 310 628 q 185 426 200 522 l 592 426 q 534 576 583 525 q 397 628 485 628 m 396 831 q 256 874 318 831 q 164 1008 193 918 l 235 1039 q 306 943 265 972 q 396 914 346 914 q 556 1039 497 914 l 626 1008 q 535 874 597 918 q 396 831 474 831 z "},"ě":{"ha":756,"x_min":67,"x_max":693,"o":"m 693 353 l 181 353 q 242 151 182 219 q 418 83 303 83 q 643 165 540 83 l 681 83 q 563 15 635 40 q 417 -10 492 -10 q 160 87 253 -10 q 67 351 67 183 q 108 541 67 458 q 225 669 150 624 q 396 715 300 715 q 614 624 535 715 q 693 374 693 533 l 693 353 m 397 628 q 255 575 310 628 q 185 426 200 522 l 592 426 q 534 576 583 525 q 397 628 485 628 m 600 1072 l 435 789 l 356 789 l 190 1072 l 294 1072 l 396 871 l 496 1072 l 600 1072 z "},"ḝ":{"ha":756,"x_min":67,"x_max":693,"o":"m 396 831 q 256 874 318 831 q 164 1008 193 918 l 235 1039 q 306 943 265 972 q 396 914 346 914 q 556 1039 497 914 l 626 1008 q 535 874 597 918 q 396 831 474 831 m 693 353 l 181 353 q 242 151 182 219 q 418 83 303 83 q 643 165 540 83 l 681 83 q 574 19 638 44 q 440 -10 510 -6 l 435 -60 q 468 -57 457 -57 q 544 -82 513 -57 q 575 -154 575 -107 q 532 -238 575 -206 q 413 -271 489 -271 q 349 -264 383 -271 q 289 -244 314 -257 l 307 -183 q 413 -203 357 -203 q 470 -190 450 -203 q 490 -154 490 -178 q 478 -126 490 -136 q 442 -117 465 -117 q 378 -129 410 -117 l 350 -107 l 361 -7 q 144 103 222 10 q 67 351 67 197 q 108 541 67 458 q 225 669 150 624 q 396 715 300 715 q 614 624 535 715 q 693 374 693 533 l 693 353 m 397 628 q 255 575 310 628 q 185 426 200 522 l 592 426 q 534 576 583 525 q 397 628 485 628 z "},"ê":{"ha":756,"x_min":67,"x_max":693,"o":"m 693 353 l 181 353 q 242 151 182 219 q 418 83 303 83 q 643 165 540 83 l 681 83 q 563 15 635 40 q 417 -10 492 -10 q 160 87 253 -10 q 67 351 67 183 q 108 541 67 458 q 225 669 150 624 q 396 715 300 715 q 614 624 535 715 q 693 374 693 533 l 693 353 m 397 628 q 255 575 310 628 q 185 426 200 522 l 592 426 q 534 576 583 525 q 397 628 485 628 m 190 789 l 356 1072 l 435 1072 l 600 789 l 496 789 l 396 989 l 294 789 l 190 789 z "},"ế":{"ha":756,"x_min":67,"x_max":761,"o":"m 693 353 l 181 353 q 242 151 182 219 q 418 83 303 83 q 643 165 540 83 l 681 83 q 563 15 635 40 q 417 -10 492 -10 q 160 87 253 -10 q 67 351 67 183 q 108 541 67 458 q 225 669 150 624 q 396 715 300 715 q 614 624 535 715 q 693 374 693 533 l 693 353 m 397 628 q 255 575 310 628 q 185 426 200 522 l 592 426 q 534 576 583 525 q 397 628 485 628 m 514 933 l 642 1132 l 761 1132 l 583 933 l 514 933 m 190 789 l 357 994 l 433 994 l 600 789 l 497 789 l 396 928 l 293 789 l 190 789 z "},"ệ":{"ha":756,"x_min":67,"x_max":693,"o":"m 693 353 l 181 353 q 242 151 182 219 q 418 83 303 83 q 643 165 540 83 l 681 83 q 563 15 635 40 q 417 -10 492 -10 q 160 87 253 -10 q 67 351 67 183 q 108 541 67 458 q 225 669 150 624 q 396 715 300 715 q 614 624 535 715 q 693 374 693 533 l 693 353 m 397 628 q 255 575 310 628 q 185 426 200 522 l 592 426 q 534 576 583 525 q 397 628 485 628 m 479 -132 l 479 -256 l 350 -256 l 350 -132 l 479 -132 m 190 789 l 356 1072 l 435 1072 l 600 789 l 496 789 l 396 989 l 294 789 l 190 789 z "},"ề":{"ha":756,"x_min":67,"x_max":693,"o":"m 693 353 l 181 353 q 242 151 182 219 q 418 83 303 83 q 643 165 540 83 l 681 83 q 563 15 635 40 q 417 -10 492 -10 q 160 87 253 -10 q 67 351 67 183 q 108 541 67 458 q 225 669 150 624 q 396 715 300 715 q 614 624 535 715 q 693 374 693 533 l 693 353 m 397 628 q 255 575 310 628 q 185 426 200 522 l 592 426 q 534 576 583 525 q 397 628 485 628 m 417 1132 l 535 1132 l 643 933 l 574 933 l 417 1132 m 190 789 l 357 994 l 433 994 l 600 789 l 497 789 l 396 928 l 293 789 l 190 789 z "},"ể":{"ha":756,"x_min":67,"x_max":697,"o":"m 693 353 l 181 353 q 242 151 182 219 q 418 83 303 83 q 643 165 540 83 l 681 83 q 563 15 635 40 q 417 -10 492 -10 q 160 87 253 -10 q 67 351 67 183 q 108 541 67 458 q 225 669 150 624 q 396 715 300 715 q 614 624 535 715 q 693 374 693 533 l 693 353 m 397 628 q 255 575 310 628 q 185 426 200 522 l 592 426 q 534 576 583 525 q 397 628 485 628 m 588 933 l 513 933 l 513 957 q 528 993 513 981 q 572 1018 544 1006 q 599 1032 590 1026 q 607 1046 607 1038 q 592 1065 607 1057 q 550 1072 576 1072 q 464 1054 507 1072 l 444 1115 q 558 1139 503 1139 q 660 1115 622 1139 q 697 1050 697 1090 q 681 1013 697 1025 q 633 985 665 1000 q 599 967 611 975 q 588 946 588 958 l 588 933 m 190 789 l 357 994 l 433 994 l 600 789 l 497 789 l 396 928 l 293 789 l 190 789 z "},"ễ":{"ha":756,"x_min":67,"x_max":693,"o":"m 693 353 l 181 353 q 242 151 182 219 q 418 83 303 83 q 643 165 540 83 l 681 83 q 563 15 635 40 q 417 -10 492 -10 q 160 87 253 -10 q 67 351 67 183 q 108 541 67 458 q 225 669 150 624 q 396 715 300 715 q 614 624 535 715 q 693 374 693 533 l 693 353 m 397 628 q 255 575 310 628 q 185 426 200 522 l 592 426 q 534 576 583 525 q 397 628 485 628 m 169 1015 q 204 1115 169 1076 q 294 1154 239 1154 q 349 1145 324 1154 q 413 1119 375 1136 q 455 1102 433 1110 q 493 1094 476 1094 q 541 1113 524 1094 q 558 1156 558 1131 l 621 1156 q 586 1057 621 1096 q 496 1018 551 1018 q 441 1027 467 1018 q 378 1053 415 1036 q 335 1070 357 1063 q 297 1078 314 1078 q 249 1059 267 1078 q 232 1015 232 1040 l 169 1015 m 190 789 l 357 994 l 433 994 l 600 789 l 497 789 l 396 928 l 293 789 l 190 789 z "},"ȅ":{"ha":756,"x_min":67,"x_max":693,"o":"m 693 353 l 181 353 q 242 151 182 219 q 418 83 303 83 q 643 165 540 83 l 681 83 q 563 15 635 40 q 417 -10 492 -10 q 160 87 253 -10 q 67 351 67 183 q 108 541 67 458 q 225 669 150 624 q 396 715 300 715 q 614 624 535 715 q 693 374 693 533 l 693 353 m 397 628 q 255 575 310 628 q 185 426 200 522 l 592 426 q 534 576 583 525 q 397 628 485 628 m 171 1072 l 276 1072 l 339 789 l 282 789 l 171 1072 m 340 1072 l 444 1072 l 508 789 l 451 789 l 340 1072 z "},"ë":{"ha":756,"x_min":67,"x_max":693,"o":"m 693 353 l 181 353 q 242 151 182 219 q 418 83 303 83 q 643 165 540 83 l 681 83 q 563 15 635 40 q 417 -10 492 -10 q 160 87 253 -10 q 67 351 67 183 q 108 541 67 458 q 225 669 150 624 q 396 715 300 715 q 614 624 535 715 q 693 374 693 533 l 693 353 m 397 628 q 255 575 310 628 q 185 426 200 522 l 592 426 q 534 576 583 525 q 397 628 485 628 m 338 990 l 338 871 l 213 871 l 213 990 l 338 990 m 578 990 l 578 871 l 453 871 l 453 990 l 578 990 z "},"ė":{"ha":756,"x_min":67,"x_max":693,"o":"m 693 353 l 181 353 q 242 151 182 219 q 418 83 303 83 q 643 165 540 83 l 681 83 q 563 15 635 40 q 417 -10 492 -10 q 160 87 253 -10 q 67 351 67 183 q 108 541 67 458 q 225 669 150 624 q 396 715 300 715 q 614 624 535 715 q 693 374 693 533 l 693 353 m 397 628 q 255 575 310 628 q 185 426 200 522 l 592 426 q 534 576 583 525 q 397 628 485 628 m 464 994 l 464 867 l 326 867 l 326 994 l 464 994 z "},"ẹ":{"ha":756,"x_min":67,"x_max":693,"o":"m 693 353 l 181 353 q 242 151 182 219 q 418 83 303 83 q 643 165 540 83 l 681 83 q 563 15 635 40 q 417 -10 492 -10 q 160 87 253 -10 q 67 351 67 183 q 108 541 67 458 q 225 669 150 624 q 396 715 300 715 q 614 624 535 715 q 693 374 693 533 l 693 353 m 397 628 q 255 575 310 628 q 185 426 200 522 l 592 426 q 534 576 583 525 q 397 628 485 628 m 479 -132 l 479 -256 l 350 -256 l 350 -132 l 479 -132 z "},"è":{"ha":756,"x_min":67,"x_max":693,"o":"m 693 353 l 181 353 q 242 151 182 219 q 418 83 303 83 q 643 165 540 83 l 681 83 q 563 15 635 40 q 417 -10 492 -10 q 160 87 253 -10 q 67 351 67 183 q 108 541 67 458 q 225 669 150 624 q 396 715 300 715 q 614 624 535 715 q 693 374 693 533 l 693 353 m 397 628 q 255 575 310 628 q 185 426 200 522 l 592 426 q 534 576 583 525 q 397 628 485 628 m 165 1072 l 296 1072 l 435 789 l 356 789 l 165 1072 z "},"ẻ":{"ha":756,"x_min":67,"x_max":693,"o":"m 693 353 l 181 353 q 242 151 182 219 q 418 83 303 83 q 643 165 540 83 l 681 83 q 563 15 635 40 q 417 -10 492 -10 q 160 87 253 -10 q 67 351 67 183 q 108 541 67 458 q 225 669 150 624 q 396 715 300 715 q 614 624 535 715 q 693 374 693 533 l 693 353 m 397 628 q 255 575 310 628 q 185 426 200 522 l 592 426 q 534 576 583 525 q 397 628 485 628 m 435 789 l 361 789 l 361 828 q 375 876 361 856 q 415 921 389 896 q 442 950 435 940 q 450 972 450 960 q 435 998 450 989 q 393 1007 421 1007 q 311 992 356 1007 l 290 1053 q 403 1078 344 1078 q 505 1050 468 1078 q 542 981 542 1022 q 527 929 542 949 q 483 885 513 910 q 447 851 460 867 q 435 813 435 835 l 435 789 z "},"ȇ":{"ha":756,"x_min":67,"x_max":693,"o":"m 693 353 l 181 353 q 242 151 182 219 q 418 83 303 83 q 643 165 540 83 l 681 83 q 563 15 635 40 q 417 -10 492 -10 q 160 87 253 -10 q 67 351 67 183 q 108 541 67 458 q 225 669 150 624 q 396 715 300 715 q 614 624 535 715 q 693 374 693 533 l 693 353 m 397 628 q 255 575 310 628 q 185 426 200 522 l 592 426 q 534 576 583 525 q 397 628 485 628 m 396 1036 q 535 993 474 1036 q 626 860 597 950 l 556 829 q 485 924 525 894 q 396 953 446 953 q 306 924 346 953 q 235 829 265 896 l 164 858 q 255 992 193 949 q 396 1036 317 1036 z "},"ē":{"ha":756,"x_min":67,"x_max":693,"o":"m 693 353 l 181 353 q 242 151 182 219 q 418 83 303 83 q 643 165 540 83 l 681 83 q 563 15 635 40 q 417 -10 492 -10 q 160 87 253 -10 q 67 351 67 183 q 108 541 67 458 q 225 669 150 624 q 396 715 300 715 q 614 624 535 715 q 693 374 693 533 l 693 353 m 397 628 q 255 575 310 628 q 185 426 200 522 l 592 426 q 534 576 583 525 q 397 628 485 628 m 185 974 l 606 974 l 606 888 l 185 888 l 185 974 z "},"ḗ":{"ha":756,"x_min":67,"x_max":693,"o":"m 693 353 l 181 353 q 242 151 182 219 q 418 83 303 83 q 643 165 540 83 l 681 83 q 563 15 635 40 q 417 -10 492 -10 q 160 87 253 -10 q 67 351 67 183 q 108 541 67 458 q 225 669 150 624 q 396 715 300 715 q 614 624 535 715 q 693 374 693 533 l 693 353 m 397 628 q 255 575 310 628 q 185 426 200 522 l 592 426 q 534 576 583 525 q 397 628 485 628 m 185 974 l 606 974 l 606 888 l 185 888 l 185 974 m 356 1060 l 494 1343 l 625 1343 l 435 1060 l 356 1060 z "},"ḕ":{"ha":756,"x_min":67,"x_max":693,"o":"m 693 353 l 181 353 q 242 151 182 219 q 418 83 303 83 q 643 165 540 83 l 681 83 q 563 15 635 40 q 417 -10 492 -10 q 160 87 253 -10 q 67 351 67 183 q 108 541 67 458 q 225 669 150 624 q 396 715 300 715 q 614 624 535 715 q 693 374 693 533 l 693 353 m 397 628 q 255 575 310 628 q 185 426 200 522 l 592 426 q 534 576 583 525 q 397 628 485 628 m 185 974 l 606 974 l 606 888 l 185 888 l 185 974 m 165 1343 l 296 1343 l 435 1060 l 356 1060 l 165 1343 z "},"ę":{"ha":756,"x_min":67,"x_max":693,"o":"m 693 353 l 181 353 q 242 151 182 219 q 418 83 303 83 q 643 165 540 83 l 681 85 q 656 64 671 74 q 608 36 642 54 q 509 -36 538 -3 q 481 -111 481 -69 q 506 -178 481 -154 q 574 -203 531 -203 q 658 -176 610 -203 l 681 -244 q 560 -276 629 -276 q 438 -235 485 -276 q 392 -126 392 -193 q 443 -8 392 -57 q 417 -10 435 -10 q 160 87 253 -10 q 67 351 67 183 q 108 541 67 458 q 225 669 150 624 q 396 715 300 715 q 614 624 535 715 q 693 374 693 533 l 693 353 m 397 628 q 255 575 310 628 q 186 426 200 522 l 592 426 q 534 576 583 525 q 397 628 485 628 z "},"ẽ":{"ha":756,"x_min":67,"x_max":693,"o":"m 693 353 l 181 353 q 242 151 182 219 q 418 83 303 83 q 643 165 540 83 l 681 83 q 563 15 635 40 q 417 -10 492 -10 q 160 87 253 -10 q 67 351 67 183 q 108 541 67 458 q 225 669 150 624 q 396 715 300 715 q 614 624 535 715 q 693 374 693 533 l 693 353 m 397 628 q 255 575 310 628 q 185 426 200 522 l 592 426 q 534 576 583 525 q 397 628 485 628 m 169 854 q 203 972 169 931 q 294 1014 238 1014 q 350 1002 324 1014 q 413 968 376 990 q 459 942 442 950 q 493 933 476 933 q 541 956 524 933 q 558 1010 558 978 l 621 1010 q 587 892 621 933 q 496 850 553 850 q 440 862 467 850 q 378 896 414 874 q 331 922 349 914 q 297 931 314 931 q 249 908 267 931 q 232 854 232 886 l 169 854 z "},"ə":{"ha":756,"x_min":63,"x_max":689,"o":"m 347 715 q 597 618 504 715 q 689 354 689 521 q 649 162 689 244 q 537 35 610 79 q 368 -10 464 -10 q 143 81 224 -10 q 63 333 63 171 l 63 353 l 578 353 q 516 553 575 485 q 343 622 457 622 q 113 539 231 622 l 74 621 q 198 690 124 665 q 347 715 272 715 m 365 76 q 506 128 453 76 q 574 278 560 181 l 168 278 q 227 128 176 181 q 365 76 278 76 z "},"f":{"ha":468,"x_min":10,"x_max":449,"o":"m 376 931 q 290 899 321 931 q 258 792 258 868 l 258 699 l 429 699 l 429 610 l 258 610 l 258 0 l 146 0 l 146 610 l 10 610 l 10 699 l 146 699 l 146 806 q 201 972 146 915 q 354 1028 256 1028 q 449 1015 403 1028 l 449 919 q 376 931 410 931 z "},"g":{"ha":839,"x_min":67,"x_max":731,"o":"m 731 699 l 731 6 q 651 -230 731 -150 q 415 -310 571 -310 q 140 -237 256 -310 l 160 -146 q 285 -200 226 -183 q 415 -217 344 -217 q 568 -163 517 -217 q 619 -4 619 -110 l 619 161 q 526 58 588 94 q 379 21 464 21 q 216 64 288 21 q 106 186 144 107 q 67 368 67 265 q 106 550 67 471 q 216 672 144 629 q 379 715 288 715 q 524 679 463 715 q 618 578 586 643 l 618 699 l 731 699 m 401 115 q 560 183 503 115 q 618 368 618 250 q 560 553 618 486 q 401 621 503 621 q 240 553 299 621 q 181 368 181 486 q 240 183 181 250 q 401 115 299 115 z "},"ğ":{"ha":839,"x_min":67,"x_max":731,"o":"m 731 699 l 731 6 q 651 -230 731 -150 q 415 -310 571 -310 q 140 -237 256 -310 l 160 -146 q 285 -200 226 -183 q 415 -217 344 -217 q 568 -163 517 -217 q 619 -4 619 -110 l 619 161 q 526 58 588 94 q 379 21 464 21 q 216 64 288 21 q 106 186 144 107 q 67 368 67 265 q 106 550 67 471 q 216 672 144 629 q 379 715 288 715 q 524 679 463 715 q 618 578 586 643 l 618 699 l 731 699 m 401 115 q 560 183 503 115 q 618 368 618 250 q 560 553 618 486 q 401 621 503 621 q 240 553 299 621 q 181 368 181 486 q 240 183 181 250 q 401 115 299 115 m 422 831 q 282 874 344 831 q 190 1008 219 918 l 261 1039 q 332 943 292 972 q 422 914 372 914 q 582 1039 524 914 l 653 1008 q 562 874 624 918 q 422 831 500 831 z "},"ǧ":{"ha":839,"x_min":67,"x_max":731,"o":"m 731 699 l 731 6 q 651 -230 731 -150 q 415 -310 571 -310 q 140 -237 256 -310 l 160 -146 q 285 -200 226 -183 q 415 -217 344 -217 q 568 -163 517 -217 q 619 -4 619 -110 l 619 161 q 526 58 588 94 q 379 21 464 21 q 216 64 288 21 q 106 186 144 107 q 67 368 67 265 q 106 550 67 471 q 216 672 144 629 q 379 715 288 715 q 524 679 463 715 q 618 578 586 643 l 618 699 l 731 699 m 401 115 q 560 183 503 115 q 618 368 618 250 q 560 553 618 486 q 401 621 503 621 q 240 553 299 621 q 181 368 181 486 q 240 183 181 250 q 401 115 299 115 m 626 1072 l 461 789 l 382 789 l 217 1072 l 321 1072 l 422 871 l 522 1072 l 626 1072 z "},"ĝ":{"ha":839,"x_min":67,"x_max":731,"o":"m 731 699 l 731 6 q 651 -230 731 -150 q 415 -310 571 -310 q 140 -237 256 -310 l 160 -146 q 285 -200 226 -183 q 415 -217 344 -217 q 568 -163 517 -217 q 619 -4 619 -110 l 619 161 q 526 58 588 94 q 379 21 464 21 q 216 64 288 21 q 106 186 144 107 q 67 368 67 265 q 106 550 67 471 q 216 672 144 629 q 379 715 288 715 q 524 679 463 715 q 618 578 586 643 l 618 699 l 731 699 m 401 115 q 560 183 503 115 q 618 368 618 250 q 560 553 618 486 q 401 621 503 621 q 240 553 299 621 q 181 368 181 486 q 240 183 181 250 q 401 115 299 115 m 217 789 l 382 1072 l 461 1072 l 626 789 l 522 789 l 422 989 l 321 789 l 217 789 z "},"ģ":{"ha":839,"x_min":67,"x_max":731,"o":"m 731 699 l 731 6 q 651 -230 731 -150 q 415 -310 571 -310 q 140 -237 256 -310 l 160 -146 q 285 -200 226 -183 q 415 -217 344 -217 q 568 -163 517 -217 q 619 -4 619 -110 l 619 161 q 526 58 588 94 q 379 21 464 21 q 216 64 288 21 q 106 186 144 107 q 67 368 67 265 q 106 550 67 471 q 216 672 144 629 q 379 715 288 715 q 524 679 463 715 q 618 578 586 643 l 618 699 l 731 699 m 401 115 q 560 183 503 115 q 618 368 618 250 q 560 553 618 486 q 401 621 503 621 q 240 553 299 621 q 181 368 181 486 q 240 183 181 250 q 401 115 299 115 m 490 944 l 490 829 l 353 829 l 353 910 q 369 1009 353 965 q 424 1092 385 1053 l 475 1053 q 439 1001 450 1026 q 425 944 428 975 l 490 944 z "},"ġ":{"ha":839,"x_min":67,"x_max":731,"o":"m 731 699 l 731 6 q 651 -230 731 -150 q 415 -310 571 -310 q 140 -237 256 -310 l 160 -146 q 285 -200 226 -183 q 415 -217 344 -217 q 568 -163 517 -217 q 619 -4 619 -110 l 619 161 q 526 58 588 94 q 379 21 464 21 q 216 64 288 21 q 106 186 144 107 q 67 368 67 265 q 106 550 67 471 q 216 672 144 629 q 379 715 288 715 q 524 679 463 715 q 618 578 586 643 l 618 699 l 731 699 m 401 115 q 560 183 503 115 q 618 368 618 250 q 560 553 618 486 q 401 621 503 621 q 240 553 299 621 q 181 368 181 486 q 240 183 181 250 q 401 115 299 115 m 490 994 l 490 867 l 353 867 l 353 994 l 490 994 z "},"ḡ":{"ha":839,"x_min":67,"x_max":731,"o":"m 731 699 l 731 6 q 651 -230 731 -150 q 415 -310 571 -310 q 140 -237 256 -310 l 160 -146 q 285 -200 226 -183 q 415 -217 344 -217 q 568 -163 517 -217 q 619 -4 619 -110 l 619 161 q 526 58 588 94 q 379 21 464 21 q 216 64 288 21 q 106 186 144 107 q 67 368 67 265 q 106 550 67 471 q 216 672 144 629 q 379 715 288 715 q 524 679 463 715 q 618 578 586 643 l 618 699 l 731 699 m 401 115 q 560 183 503 115 q 618 368 618 250 q 560 553 618 486 q 401 621 503 621 q 240 553 299 621 q 181 368 181 486 q 240 183 181 250 q 401 115 299 115 m 211 974 l 632 974 l 632 888 l 211 888 l 211 974 z "},"h":{"ha":813,"x_min":108,"x_max":708,"o":"m 457 715 q 708 439 708 715 l 708 0 l 596 0 l 596 433 q 557 576 596 531 q 435 621 518 621 q 279 561 338 621 q 221 400 221 501 l 221 0 l 108 0 l 108 1022 l 221 1022 l 221 585 q 316 682 254 649 q 457 715 378 715 z "},"ħ":{"ha":813,"x_min":-24,"x_max":708,"o":"m 457 715 q 708 439 708 715 l 708 0 l 596 0 l 596 433 q 557 576 596 531 q 435 621 518 621 q 279 561 338 621 q 221 400 221 501 l 221 0 l 108 0 l 108 808 l -24 808 l -24 893 l 108 893 l 108 1022 l 221 1022 l 221 893 l 499 893 l 499 808 l 221 808 l 221 585 q 316 682 254 649 q 457 715 378 715 z "},"ḫ":{"ha":813,"x_min":108,"x_max":708,"o":"m 457 715 q 708 439 708 715 l 708 0 l 596 0 l 596 433 q 557 576 596 531 q 435 621 518 621 q 279 561 338 621 q 221 400 221 501 l 221 0 l 108 0 l 108 1022 l 221 1022 l 221 585 q 316 682 254 649 q 457 715 378 715 m 408 -296 q 268 -253 331 -296 q 176 -119 206 -210 l 247 -89 q 318 -184 278 -156 q 408 -212 358 -212 q 498 -183 458 -212 q 568 -89 538 -154 l 639 -118 q 548 -252 610 -208 q 408 -296 486 -296 z "},"ĥ":{"ha":813,"x_min":-39,"x_max":708,"o":"m 457 715 q 708 439 708 715 l 708 0 l 596 0 l 596 433 q 557 576 596 531 q 435 621 518 621 q 279 561 338 621 q 221 400 221 501 l 221 0 l 108 0 l 108 1022 l 221 1022 l 221 585 q 316 682 254 649 q 457 715 378 715 m -39 1107 l 128 1319 l 204 1319 l 371 1107 l 268 1107 l 167 1251 l 64 1107 l -39 1107 z "},"ḥ":{"ha":813,"x_min":108,"x_max":708,"o":"m 457 715 q 708 439 708 715 l 708 0 l 596 0 l 596 433 q 557 576 596 531 q 435 621 518 621 q 279 561 338 621 q 221 400 221 501 l 221 0 l 108 0 l 108 1022 l 221 1022 l 221 585 q 316 682 254 649 q 457 715 378 715 m 472 -132 l 472 -256 l 343 -256 l 343 -132 l 472 -132 z "},"i":{"ha":331,"x_min":97,"x_max":235,"o":"m 108 699 l 221 699 l 221 0 l 108 0 l 108 699 m 235 994 l 235 867 l 97 867 l 97 994 l 235 994 z "},"ı":{"ha":331,"x_min":108,"x_max":221,"o":"m 108 699 l 221 699 l 221 0 l 108 0 l 108 699 z "},"í":{"ha":331,"x_min":108,"x_max":396,"o":"m 108 699 l 221 699 l 221 0 l 108 0 l 108 699 m 126 789 l 265 1072 l 396 1072 l 206 789 l 126 789 z "},"ĭ":{"ha":331,"x_min":-65,"x_max":397,"o":"m 108 699 l 221 699 l 221 0 l 108 0 l 108 699 m 167 831 q 26 874 89 831 q -65 1008 -36 918 l 6 1039 q 76 943 36 972 q 167 914 117 914 q 326 1039 268 914 l 397 1008 q 306 874 368 918 q 167 831 244 831 z "},"î":{"ha":331,"x_min":-39,"x_max":371,"o":"m 108 699 l 221 699 l 221 0 l 108 0 l 108 699 m -39 789 l 126 1072 l 206 1072 l 371 789 l 267 789 l 167 989 l 65 789 l -39 789 z "},"ȉ":{"ha":331,"x_min":-58,"x_max":279,"o":"m 108 699 l 221 699 l 221 0 l 108 0 l 108 699 m -58 1072 l 47 1072 l 110 789 l 53 789 l -58 1072 m 111 1072 l 215 1072 l 279 789 l 222 789 l 111 1072 z "},"ï":{"ha":331,"x_min":-17,"x_max":349,"o":"m 108 699 l 221 699 l 221 0 l 108 0 l 108 699 m 108 990 l 108 871 l -17 871 l -17 990 l 108 990 m 349 990 l 349 871 l 224 871 l 224 990 l 349 990 z "},"ḯ":{"ha":331,"x_min":-17,"x_max":396,"o":"m 108 699 l 221 699 l 221 0 l 108 0 l 108 699 m 108 990 l 108 871 l -17 871 l -17 990 l 108 990 m 349 990 l 349 871 l 224 871 l 224 990 l 349 990 m 126 1060 l 265 1343 l 396 1343 l 206 1060 l 126 1060 z "},"ị":{"ha":331,"x_min":97,"x_max":235,"o":"m 108 699 l 221 699 l 221 0 l 108 0 l 108 699 m 235 994 l 235 867 l 97 867 l 97 994 l 235 994 m 228 -132 l 228 -256 l 99 -256 l 99 -132 l 228 -132 z "},"ì":{"ha":331,"x_min":-64,"x_max":221,"o":"m 108 699 l 221 699 l 221 0 l 108 0 l 108 699 m -64 1072 l 67 1072 l 206 789 l 126 789 l -64 1072 z "},"ỉ":{"ha":331,"x_min":61,"x_max":313,"o":"m 108 699 l 221 699 l 221 0 l 108 0 l 108 699 m 206 789 l 132 789 l 132 828 q 146 876 132 856 q 186 921 160 896 q 213 950 206 940 q 221 972 221 960 q 206 998 221 989 q 164 1007 192 1007 q 82 992 126 1007 l 61 1053 q 174 1078 115 1078 q 276 1050 239 1078 q 313 981 313 1022 q 298 929 313 949 q 254 885 283 910 q 218 851 231 867 q 206 813 206 835 l 206 789 z "},"ȋ":{"ha":331,"x_min":-65,"x_max":397,"o":"m 108 699 l 221 699 l 221 0 l 108 0 l 108 699 m 167 1036 q 306 993 244 1036 q 397 860 368 950 l 326 829 q 256 924 296 894 q 167 953 217 953 q 76 924 117 953 q 6 829 36 896 l -65 858 q 26 992 -36 949 q 167 1036 88 1036 z "},"ī":{"ha":331,"x_min":-44,"x_max":376,"o":"m 108 699 l 221 699 l 221 0 l 108 0 l 108 699 m -44 974 l 376 974 l 376 888 l -44 888 l -44 974 z "},"į":{"ha":331,"x_min":-4,"x_max":286,"o":"m 235 872 l 96 872 l 96 1000 l 235 1000 l 235 872 m 286 -244 q 163 -276 229 -276 q 42 -235 89 -276 q -4 -125 -4 -193 q 25 -32 -4 -74 q 108 35 54 10 l 108 699 l 221 699 l 221 0 l 214 0 q 118 -32 153 0 q 83 -111 83 -64 q 110 -179 83 -156 q 181 -203 136 -203 q 263 -176 219 -203 l 286 -244 z "},"ĩ":{"ha":331,"x_min":-60,"x_max":392,"o":"m 108 699 l 221 699 l 221 0 l 108 0 l 108 699 m -60 854 q -26 972 -60 931 q 65 1014 8 1014 q 121 1002 94 1014 q 183 968 147 990 q 230 942 213 950 q 264 933 247 933 q 312 956 294 933 q 329 1010 329 978 l 392 1010 q 358 892 392 933 q 267 850 324 850 q 211 862 238 850 q 149 896 185 874 q 102 922 119 914 q 68 931 85 931 q 20 908 38 931 q 3 854 3 886 l -60 854 z "},"j":{"ha":331,"x_min":-76,"x_max":233,"o":"m -76 -197 q -8 -208 -39 -208 q 108 -69 108 -208 l 108 699 l 221 699 l 221 -83 q 166 -249 221 -193 q 15 -306 111 -306 q -76 -293 -31 -306 l -76 -197 m 233 994 l 233 867 l 96 867 l 96 994 l 233 994 z "},"ȷ":{"ha":331,"x_min":-76,"x_max":221,"o":"m -76 -197 q -8 -208 -39 -208 q 108 -69 108 -208 l 108 699 l 221 699 l 221 -83 q 166 -249 221 -193 q 15 -306 111 -306 q -76 -293 -31 -306 l -76 -197 z "},"ĵ":{"ha":331,"x_min":-76,"x_max":369,"o":"m -76 -197 q -8 -208 -39 -208 q 108 -69 108 -208 l 108 699 l 221 699 l 221 -83 q 166 -249 221 -193 q 15 -306 111 -306 q -76 -293 -31 -306 l -76 -197 m -40 789 l 125 1072 l 204 1072 l 369 789 l 265 789 l 165 989 l 64 789 l -40 789 z "},"k":{"ha":715,"x_min":108,"x_max":726,"o":"m 579 0 l 221 336 l 221 0 l 108 0 l 108 1022 l 221 1022 l 221 378 l 550 697 l 693 697 l 343 363 l 726 0 l 579 0 z "},"ķ":{"ha":715,"x_min":108,"x_max":726,"o":"m 579 0 l 221 336 l 221 0 l 108 0 l 108 1022 l 221 1022 l 221 378 l 550 697 l 693 697 l 343 363 l 726 0 l 579 0 m 425 -101 l 425 -182 q 409 -281 425 -237 q 353 -364 393 -325 l 301 -325 q 339 -272 328 -297 q 353 -217 350 -247 l 288 -217 l 288 -101 l 425 -101 z "},"ĸ":{"ha":715,"x_min":108,"x_max":726,"o":"m 579 0 l 221 336 l 221 0 l 108 0 l 108 699 l 221 699 l 221 378 l 550 697 l 693 697 l 343 363 l 726 0 l 579 0 z "},"l":{"ha":331,"x_min":108,"x_max":221,"o":"m 108 1022 l 221 1022 l 221 0 l 108 0 l 108 1022 z "},"ĺ":{"ha":331,"x_min":108,"x_max":392,"o":"m 108 1022 l 221 1022 l 221 0 l 108 0 l 108 1022 m 126 1107 l 268 1319 l 392 1319 l 206 1107 l 126 1107 z "},"ľ":{"ha":331,"x_min":108,"x_max":364,"o":"m 108 1022 l 221 1022 l 221 0 l 108 0 l 108 1022 m 274 750 l 274 1022 l 364 1022 l 326 750 l 274 750 z "},"ļ":{"ha":331,"x_min":97,"x_max":235,"o":"m 108 1022 l 221 1022 l 221 0 l 108 0 l 108 1022 m 235 -101 l 235 -182 q 219 -281 235 -237 q 163 -364 203 -325 l 111 -325 q 149 -272 138 -297 q 163 -217 160 -247 l 97 -217 l 97 -101 l 235 -101 z "},"ŀ":{"ha":371,"x_min":108,"x_max":414,"o":"m 108 1022 l 221 1022 l 221 0 l 108 0 l 108 1022 m 414 564 l 414 432 l 271 432 l 271 564 l 414 564 z "},"ḷ":{"ha":331,"x_min":101,"x_max":231,"o":"m 108 1022 l 221 1022 l 221 0 l 108 0 l 108 1022 m 231 -132 l 231 -256 l 101 -256 l 101 -132 l 231 -132 z "},"ǉ":{"ha":661,"x_min":108,"x_max":564,"o":"m 108 1022 l 221 1022 l 221 0 l 108 0 l 108 1022 m 254 -197 q 322 -208 292 -208 q 439 -69 439 -208 l 439 699 l 551 699 l 551 -83 q 497 -249 551 -193 q 346 -306 442 -306 q 254 -293 300 -306 l 254 -197 m 564 994 l 564 867 l 426 867 l 426 994 l 564 994 z "},"ḻ":{"ha":331,"x_min":-44,"x_max":376,"o":"m 108 1022 l 221 1022 l 221 0 l 108 0 l 108 1022 m -44 -153 l 376 -153 l 376 -236 l -44 -236 l -44 -153 z "},"ł":{"ha":401,"x_min":-10,"x_max":413,"o":"m 257 490 l 257 0 l 144 0 l 144 425 l 36 363 l -10 443 l 144 533 l 144 1022 l 257 1022 l 257 599 l 365 661 l 413 579 l 257 490 z "},"m":{"ha":1221,"x_min":97,"x_max":1115,"o":"m 883 715 q 1115 439 1115 715 l 1115 0 l 1003 0 l 1003 433 q 969 576 1003 532 q 858 621 935 621 q 719 561 769 621 q 669 399 669 501 l 669 0 l 557 0 l 557 433 q 522 576 557 531 q 411 621 488 621 q 272 561 322 621 q 221 399 221 501 l 221 0 l 108 0 l 108 503 q 97 699 108 611 l 204 699 l 215 576 q 302 679 244 643 q 436 715 360 715 q 572 682 519 715 q 650 579 625 649 q 744 678 682 642 q 883 715 806 715 z "},"ṃ":{"ha":1221,"x_min":97,"x_max":1115,"o":"m 883 715 q 1115 439 1115 715 l 1115 0 l 1003 0 l 1003 433 q 969 576 1003 532 q 858 621 935 621 q 719 561 769 621 q 669 399 669 501 l 669 0 l 557 0 l 557 433 q 522 576 557 531 q 411 621 488 621 q 272 561 322 621 q 221 399 221 501 l 221 0 l 108 0 l 108 503 q 97 699 108 611 l 204 699 l 215 576 q 302 679 244 643 q 436 715 360 715 q 572 682 519 715 q 650 579 625 649 q 744 678 682 642 q 883 715 806 715 m 676 -132 l 676 -256 l 547 -256 l 547 -132 l 676 -132 z "},"n":{"ha":813,"x_min":97,"x_max":708,"o":"m 457 715 q 708 439 708 715 l 708 0 l 596 0 l 596 433 q 557 576 596 531 q 435 621 518 621 q 279 561 338 621 q 221 400 221 501 l 221 0 l 108 0 l 108 503 q 97 699 108 611 l 204 699 l 215 574 q 311 678 247 642 q 457 715 375 715 z "},"ń":{"ha":813,"x_min":97,"x_max":708,"o":"m 457 715 q 708 439 708 715 l 708 0 l 596 0 l 596 433 q 557 576 596 531 q 435 621 518 621 q 279 561 338 621 q 221 400 221 501 l 221 0 l 108 0 l 108 503 q 97 699 108 611 l 204 699 l 215 574 q 311 678 247 642 q 457 715 375 715 m 368 789 l 507 1072 l 638 1072 l 447 789 l 368 789 z "},"ŉ":{"ha":813,"x_min":97,"x_max":708,"o":"m 275 1057 l 275 976 q 259 877 275 921 q 204 794 243 833 l 153 833 q 190 886 179 861 q 203 942 200 911 l 138 942 l 138 1057 l 275 1057 m 457 715 q 708 439 708 715 l 708 0 l 596 0 l 596 433 q 557 576 596 531 q 435 621 518 621 q 279 561 338 621 q 221 400 221 501 l 221 0 l 108 0 l 108 503 q 97 699 108 611 l 204 699 l 215 574 q 311 678 247 642 q 457 715 375 715 z "},"ň":{"ha":813,"x_min":97,"x_max":708,"o":"m 457 715 q 708 439 708 715 l 708 0 l 596 0 l 596 433 q 557 576 596 531 q 435 621 518 621 q 279 561 338 621 q 221 400 221 501 l 221 0 l 108 0 l 108 503 q 97 699 108 611 l 204 699 l 215 574 q 311 678 247 642 q 457 715 375 715 m 613 1072 l 447 789 l 368 789 l 203 1072 l 307 1072 l 408 871 l 508 1072 l 613 1072 z "},"ņ":{"ha":813,"x_min":97,"x_max":708,"o":"m 457 715 q 708 439 708 715 l 708 0 l 596 0 l 596 433 q 557 576 596 531 q 435 621 518 621 q 279 561 338 621 q 221 400 221 501 l 221 0 l 108 0 l 108 503 q 97 699 108 611 l 204 699 l 215 574 q 311 678 247 642 q 457 715 375 715 m 476 -101 l 476 -182 q 460 -281 476 -237 q 404 -364 444 -325 l 353 -325 q 390 -272 379 -297 q 404 -217 401 -247 l 339 -217 l 339 -101 l 476 -101 z "},"ṅ":{"ha":813,"x_min":97,"x_max":708,"o":"m 457 715 q 708 439 708 715 l 708 0 l 596 0 l 596 433 q 557 576 596 531 q 435 621 518 621 q 279 561 338 621 q 221 400 221 501 l 221 0 l 108 0 l 108 503 q 97 699 108 611 l 204 699 l 215 574 q 311 678 247 642 q 457 715 375 715 m 476 994 l 476 867 l 339 867 l 339 994 l 476 994 z "},"ṇ":{"ha":813,"x_min":97,"x_max":708,"o":"m 457 715 q 708 439 708 715 l 708 0 l 596 0 l 596 433 q 557 576 596 531 q 435 621 518 621 q 279 561 338 621 q 221 400 221 501 l 221 0 l 108 0 l 108 503 q 97 699 108 611 l 204 699 l 215 574 q 311 678 247 642 q 457 715 375 715 m 472 -132 l 472 -256 l 343 -256 l 343 -132 l 472 -132 z "},"ŋ":{"ha":813,"x_min":97,"x_max":708,"o":"m 457 715 q 708 439 708 715 l 708 -54 q 503 -306 708 -306 q 411 -294 458 -306 l 411 -197 q 479 -208 449 -208 q 565 -172 535 -208 q 596 -40 596 -136 l 596 433 q 557 576 596 531 q 435 621 518 621 q 279 561 338 621 q 221 400 221 501 l 221 0 l 108 0 l 108 503 q 97 699 108 611 l 204 699 l 215 574 q 311 678 247 642 q 457 715 375 715 z "},"ǌ":{"ha":1143,"x_min":97,"x_max":1046,"o":"m 457 715 q 708 439 708 715 l 708 0 l 596 0 l 596 433 q 557 576 596 531 q 435 621 518 621 q 279 561 338 621 q 221 400 221 501 l 221 0 l 108 0 l 108 503 q 97 699 108 611 l 204 699 l 215 574 q 311 678 247 642 q 457 715 375 715 m 736 -197 q 804 -208 774 -208 q 921 -69 921 -208 l 921 699 l 1033 699 l 1033 -83 q 978 -249 1033 -193 q 828 -306 924 -306 q 736 -293 782 -306 l 736 -197 m 1046 994 l 1046 867 l 908 867 l 908 994 l 1046 994 z "},"ṉ":{"ha":813,"x_min":97,"x_max":708,"o":"m 457 715 q 708 439 708 715 l 708 0 l 596 0 l 596 433 q 557 576 596 531 q 435 621 518 621 q 279 561 338 621 q 221 400 221 501 l 221 0 l 108 0 l 108 503 q 97 699 108 611 l 204 699 l 215 574 q 311 678 247 642 q 457 715 375 715 m 197 -153 l 618 -153 l 618 -236 l 197 -236 l 197 -153 z "},"ñ":{"ha":813,"x_min":97,"x_max":708,"o":"m 457 715 q 708 439 708 715 l 708 0 l 596 0 l 596 433 q 557 576 596 531 q 435 621 518 621 q 279 561 338 621 q 221 400 221 501 l 221 0 l 108 0 l 108 503 q 97 699 108 611 l 204 699 l 215 574 q 311 678 247 642 q 457 715 375 715 m 182 854 q 216 972 182 931 q 307 1014 250 1014 q 363 1002 336 1014 q 425 968 389 990 q 472 942 454 950 q 506 933 489 933 q 553 956 536 933 q 571 1010 571 978 l 633 1010 q 599 892 633 933 q 508 850 565 850 q 453 862 479 850 q 390 896 426 874 q 344 922 361 914 q 310 931 326 931 q 262 908 279 931 q 244 854 244 886 l 182 854 z "},"o":{"ha":794,"x_min":67,"x_max":728,"o":"m 397 -10 q 224 35 299 -10 q 108 161 149 79 q 67 353 67 243 q 108 544 67 463 q 224 671 149 626 q 397 715 299 715 q 571 671 496 715 q 687 544 646 626 q 728 353 728 463 q 687 161 728 243 q 571 35 646 79 q 397 -10 496 -10 m 397 83 q 557 152 501 83 q 613 353 613 221 q 556 551 613 481 q 397 621 499 621 q 238 551 294 621 q 181 353 181 481 q 237 152 181 221 q 397 83 293 83 z "},"ó":{"ha":794,"x_min":67,"x_max":728,"o":"m 397 -10 q 224 35 299 -10 q 108 161 149 79 q 67 353 67 243 q 108 544 67 463 q 224 671 149 626 q 397 715 299 715 q 571 671 496 715 q 687 544 646 626 q 728 353 728 463 q 687 161 728 243 q 571 35 646 79 q 397 -10 496 -10 m 397 83 q 557 152 501 83 q 613 353 613 221 q 556 551 613 481 q 397 621 499 621 q 238 551 294 621 q 181 353 181 481 q 237 152 181 221 q 397 83 293 83 m 357 789 l 496 1072 l 626 1072 l 436 789 l 357 789 z "},"ŏ":{"ha":794,"x_min":67,"x_max":728,"o":"m 397 -10 q 224 35 299 -10 q 108 161 149 79 q 67 353 67 243 q 108 544 67 463 q 224 671 149 626 q 397 715 299 715 q 571 671 496 715 q 687 544 646 626 q 728 353 728 463 q 687 161 728 243 q 571 35 646 79 q 397 -10 496 -10 m 397 83 q 557 152 501 83 q 613 353 613 221 q 556 551 613 481 q 397 621 499 621 q 238 551 294 621 q 181 353 181 481 q 237 152 181 221 q 397 83 293 83 m 397 831 q 257 874 319 831 q 165 1008 194 918 l 236 1039 q 307 943 267 972 q 397 914 347 914 q 557 1039 499 914 l 628 1008 q 537 874 599 918 q 397 831 475 831 z "},"ô":{"ha":794,"x_min":67,"x_max":728,"o":"m 397 -10 q 224 35 299 -10 q 108 161 149 79 q 67 353 67 243 q 108 544 67 463 q 224 671 149 626 q 397 715 299 715 q 571 671 496 715 q 687 544 646 626 q 728 353 728 463 q 687 161 728 243 q 571 35 646 79 q 397 -10 496 -10 m 397 83 q 557 152 501 83 q 613 353 613 221 q 556 551 613 481 q 397 621 499 621 q 238 551 294 621 q 181 353 181 481 q 237 152 181 221 q 397 83 293 83 m 192 789 l 357 1072 l 436 1072 l 601 789 l 497 789 l 397 989 l 296 789 l 192 789 z "},"ố":{"ha":794,"x_min":67,"x_max":763,"o":"m 397 -10 q 224 35 299 -10 q 108 161 149 79 q 67 353 67 243 q 108 544 67 463 q 224 671 149 626 q 397 715 299 715 q 571 671 496 715 q 687 544 646 626 q 728 353 728 463 q 687 161 728 243 q 571 35 646 79 q 397 -10 496 -10 m 397 83 q 557 152 501 83 q 613 353 613 221 q 556 551 613 481 q 397 621 499 621 q 238 551 294 621 q 181 353 181 481 q 237 152 181 221 q 397 83 293 83 m 515 933 l 643 1132 l 763 1132 l 585 933 l 515 933 m 192 789 l 358 994 l 435 994 l 601 789 l 499 789 l 397 928 l 294 789 l 192 789 z "},"ộ":{"ha":794,"x_min":67,"x_max":728,"o":"m 397 -10 q 224 35 299 -10 q 108 161 149 79 q 67 353 67 243 q 108 544 67 463 q 224 671 149 626 q 397 715 299 715 q 571 671 496 715 q 687 544 646 626 q 728 353 728 463 q 687 161 728 243 q 571 35 646 79 q 397 -10 496 -10 m 397 83 q 557 152 501 83 q 613 353 613 221 q 556 551 613 481 q 397 621 499 621 q 238 551 294 621 q 181 353 181 481 q 237 152 181 221 q 397 83 293 83 m 461 -132 l 461 -256 l 332 -256 l 332 -132 l 461 -132 m 192 789 l 357 1072 l 436 1072 l 601 789 l 497 789 l 397 989 l 296 789 l 192 789 z "},"ồ":{"ha":794,"x_min":67,"x_max":728,"o":"m 397 -10 q 224 35 299 -10 q 108 161 149 79 q 67 353 67 243 q 108 544 67 463 q 224 671 149 626 q 397 715 299 715 q 571 671 496 715 q 687 544 646 626 q 728 353 728 463 q 687 161 728 243 q 571 35 646 79 q 397 -10 496 -10 m 397 83 q 557 152 501 83 q 613 353 613 221 q 556 551 613 481 q 397 621 499 621 q 238 551 294 621 q 181 353 181 481 q 237 152 181 221 q 397 83 293 83 m 418 1132 l 536 1132 l 644 933 l 575 933 l 418 1132 m 192 789 l 358 994 l 435 994 l 601 789 l 499 789 l 397 928 l 294 789 l 192 789 z "},"ổ":{"ha":794,"x_min":67,"x_max":728,"o":"m 397 -10 q 224 35 299 -10 q 108 161 149 79 q 67 353 67 243 q 108 544 67 463 q 224 671 149 626 q 397 715 299 715 q 571 671 496 715 q 687 544 646 626 q 728 353 728 463 q 687 161 728 243 q 571 35 646 79 q 397 -10 496 -10 m 397 83 q 557 152 501 83 q 613 353 613 221 q 556 551 613 481 q 397 621 499 621 q 238 551 294 621 q 181 353 181 481 q 237 152 181 221 q 397 83 293 83 m 589 933 l 514 933 l 514 957 q 530 993 514 981 q 574 1018 546 1006 q 600 1032 592 1026 q 608 1046 608 1038 q 593 1065 608 1057 q 551 1072 578 1072 q 465 1054 508 1072 l 446 1115 q 560 1139 504 1139 q 661 1115 624 1139 q 699 1050 699 1090 q 683 1013 699 1025 q 635 985 667 1000 q 601 967 613 975 q 589 946 589 958 l 589 933 m 192 789 l 358 994 l 435 994 l 601 789 l 499 789 l 397 928 l 294 789 l 192 789 z "},"ỗ":{"ha":794,"x_min":67,"x_max":728,"o":"m 397 -10 q 224 35 299 -10 q 108 161 149 79 q 67 353 67 243 q 108 544 67 463 q 224 671 149 626 q 397 715 299 715 q 571 671 496 715 q 687 544 646 626 q 728 353 728 463 q 687 161 728 243 q 571 35 646 79 q 397 -10 496 -10 m 397 83 q 557 152 501 83 q 613 353 613 221 q 556 551 613 481 q 397 621 499 621 q 238 551 294 621 q 181 353 181 481 q 237 152 181 221 q 397 83 293 83 m 171 1015 q 206 1115 171 1076 q 296 1154 240 1154 q 351 1145 325 1154 q 414 1119 376 1136 q 456 1102 435 1110 q 494 1094 478 1094 q 542 1113 525 1094 q 560 1156 560 1131 l 622 1156 q 588 1057 622 1096 q 497 1018 553 1018 q 442 1027 468 1018 q 379 1053 417 1036 q 337 1070 358 1063 q 299 1078 315 1078 q 251 1059 268 1078 q 233 1015 233 1040 l 171 1015 m 192 789 l 358 994 l 435 994 l 601 789 l 499 789 l 397 928 l 294 789 l 192 789 z "},"ȍ":{"ha":794,"x_min":67,"x_max":728,"o":"m 397 -10 q 224 35 299 -10 q 108 161 149 79 q 67 353 67 243 q 108 544 67 463 q 224 671 149 626 q 397 715 299 715 q 571 671 496 715 q 687 544 646 626 q 728 353 728 463 q 687 161 728 243 q 571 35 646 79 q 397 -10 496 -10 m 397 83 q 557 152 501 83 q 613 353 613 221 q 556 551 613 481 q 397 621 499 621 q 238 551 294 621 q 181 353 181 481 q 237 152 181 221 q 397 83 293 83 m 172 1072 l 278 1072 l 340 789 l 283 789 l 172 1072 m 342 1072 l 446 1072 l 510 789 l 453 789 l 342 1072 z "},"ö":{"ha":794,"x_min":67,"x_max":728,"o":"m 397 -10 q 224 35 299 -10 q 108 161 149 79 q 67 353 67 243 q 108 544 67 463 q 224 671 149 626 q 397 715 299 715 q 571 671 496 715 q 687 544 646 626 q 728 353 728 463 q 687 161 728 243 q 571 35 646 79 q 397 -10 496 -10 m 397 83 q 557 152 501 83 q 613 353 613 221 q 556 551 613 481 q 397 621 499 621 q 238 551 294 621 q 181 353 181 481 q 237 152 181 221 q 397 83 293 83 m 339 990 l 339 871 l 214 871 l 214 990 l 339 990 m 579 990 l 579 871 l 454 871 l 454 990 l 579 990 z "},"ȫ":{"ha":794,"x_min":67,"x_max":728,"o":"m 397 -10 q 224 35 299 -10 q 108 161 149 79 q 67 353 67 243 q 108 544 67 463 q 224 671 149 626 q 397 715 299 715 q 571 671 496 715 q 687 544 646 626 q 728 353 728 463 q 687 161 728 243 q 571 35 646 79 q 397 -10 496 -10 m 397 83 q 557 152 501 83 q 613 353 613 221 q 556 551 613 481 q 397 621 499 621 q 238 551 294 621 q 181 353 181 481 q 237 152 181 221 q 397 83 293 83 m 339 990 l 339 871 l 214 871 l 214 990 l 339 990 m 579 990 l 579 871 l 454 871 l 454 990 l 579 990 m 186 1244 l 607 1244 l 607 1158 l 186 1158 l 186 1244 z "},"ȱ":{"ha":794,"x_min":67,"x_max":728,"o":"m 397 -10 q 224 35 299 -10 q 108 161 149 79 q 67 353 67 243 q 108 544 67 463 q 224 671 149 626 q 397 715 299 715 q 571 671 496 715 q 687 544 646 626 q 728 353 728 463 q 687 161 728 243 q 571 35 646 79 q 397 -10 496 -10 m 397 83 q 557 152 501 83 q 613 353 613 221 q 556 551 613 481 q 397 621 499 621 q 238 551 294 621 q 181 353 181 481 q 237 152 181 221 q 397 83 293 83 m 465 994 l 465 867 l 328 867 l 328 994 l 465 994 m 186 1244 l 607 1244 l 607 1158 l 186 1158 l 186 1244 z "},"ọ":{"ha":794,"x_min":67,"x_max":728,"o":"m 397 -10 q 224 35 299 -10 q 108 161 149 79 q 67 353 67 243 q 108 544 67 463 q 224 671 149 626 q 397 715 299 715 q 571 671 496 715 q 687 544 646 626 q 728 353 728 463 q 687 161 728 243 q 571 35 646 79 q 397 -10 496 -10 m 397 83 q 557 152 501 83 q 613 353 613 221 q 556 551 613 481 q 397 621 499 621 q 238 551 294 621 q 181 353 181 481 q 237 152 181 221 q 397 83 293 83 m 461 -132 l 461 -256 l 332 -256 l 332 -132 l 461 -132 z "},"ò":{"ha":794,"x_min":67,"x_max":728,"o":"m 397 -10 q 224 35 299 -10 q 108 161 149 79 q 67 353 67 243 q 108 544 67 463 q 224 671 149 626 q 397 715 299 715 q 571 671 496 715 q 687 544 646 626 q 728 353 728 463 q 687 161 728 243 q 571 35 646 79 q 397 -10 496 -10 m 397 83 q 557 152 501 83 q 613 353 613 221 q 556 551 613 481 q 397 621 499 621 q 238 551 294 621 q 181 353 181 481 q 237 152 181 221 q 397 83 293 83 m 167 1072 l 297 1072 l 436 789 l 357 789 l 167 1072 z "},"ỏ":{"ha":794,"x_min":67,"x_max":728,"o":"m 397 -10 q 224 35 299 -10 q 108 161 149 79 q 67 353 67 243 q 108 544 67 463 q 224 671 149 626 q 397 715 299 715 q 571 671 496 715 q 687 544 646 626 q 728 353 728 463 q 687 161 728 243 q 571 35 646 79 q 397 -10 496 -10 m 397 83 q 557 152 501 83 q 613 353 613 221 q 556 551 613 481 q 397 621 499 621 q 238 551 294 621 q 181 353 181 481 q 237 152 181 221 q 397 83 293 83 m 436 789 l 363 789 l 363 828 q 376 876 363 856 q 417 921 390 896 q 444 950 436 940 q 451 972 451 960 q 437 998 451 989 q 394 1007 422 1007 q 313 992 357 1007 l 292 1053 q 404 1078 346 1078 q 506 1050 469 1078 q 543 981 543 1022 q 528 929 543 949 q 485 885 514 910 q 449 851 461 867 q 436 813 436 835 l 436 789 z "},"ơ":{"ha":794,"x_min":67,"x_max":731,"o":"m 731 847 q 697 721 731 772 q 600 647 663 669 q 694 526 661 601 q 728 353 728 450 q 687 161 728 243 q 571 35 646 79 q 397 -10 496 -10 q 224 35 299 -10 q 108 161 149 79 q 67 353 67 243 q 108 544 67 463 q 224 671 149 626 q 397 715 299 715 q 460 710 421 715 q 499 706 483 706 q 599 742 567 706 q 631 863 631 778 l 631 883 l 731 883 l 731 847 m 397 83 q 557 152 501 83 q 613 353 613 221 q 556 551 613 481 q 397 621 499 621 q 238 551 294 621 q 181 353 181 481 q 237 152 181 221 q 397 83 293 83 z "},"ớ":{"ha":794,"x_min":67,"x_max":731,"o":"m 731 847 q 697 721 731 772 q 600 647 663 669 q 694 526 661 601 q 728 353 728 450 q 687 161 728 243 q 571 35 646 79 q 397 -10 496 -10 q 224 35 299 -10 q 108 161 149 79 q 67 353 67 243 q 108 544 67 463 q 224 671 149 626 q 397 715 299 715 q 460 710 421 715 q 499 706 483 706 q 599 742 567 706 q 631 863 631 778 l 631 883 l 731 883 l 731 847 m 397 83 q 557 152 501 83 q 613 353 613 221 q 556 551 613 481 q 397 621 499 621 q 238 551 294 621 q 181 353 181 481 q 237 152 181 221 q 397 83 293 83 m 357 789 l 496 1072 l 626 1072 l 436 789 l 357 789 z "},"ợ":{"ha":794,"x_min":67,"x_max":731,"o":"m 731 847 q 697 721 731 772 q 600 647 663 669 q 694 526 661 601 q 728 353 728 450 q 687 161 728 243 q 571 35 646 79 q 397 -10 496 -10 q 224 35 299 -10 q 108 161 149 79 q 67 353 67 243 q 108 544 67 463 q 224 671 149 626 q 397 715 299 715 q 460 710 421 715 q 499 706 483 706 q 599 742 567 706 q 631 863 631 778 l 631 883 l 731 883 l 731 847 m 397 83 q 557 152 501 83 q 613 353 613 221 q 556 551 613 481 q 397 621 499 621 q 238 551 294 621 q 181 353 181 481 q 237 152 181 221 q 397 83 293 83 m 461 -132 l 461 -256 l 332 -256 l 332 -132 l 461 -132 z "},"ờ":{"ha":794,"x_min":67,"x_max":731,"o":"m 731 847 q 697 721 731 772 q 600 647 663 669 q 694 526 661 601 q 728 353 728 450 q 687 161 728 243 q 571 35 646 79 q 397 -10 496 -10 q 224 35 299 -10 q 108 161 149 79 q 67 353 67 243 q 108 544 67 463 q 224 671 149 626 q 397 715 299 715 q 460 710 421 715 q 499 706 483 706 q 599 742 567 706 q 631 863 631 778 l 631 883 l 731 883 l 731 847 m 397 83 q 557 152 501 83 q 613 353 613 221 q 556 551 613 481 q 397 621 499 621 q 238 551 294 621 q 181 353 181 481 q 237 152 181 221 q 397 83 293 83 m 167 1072 l 297 1072 l 436 789 l 357 789 l 167 1072 z "},"ở":{"ha":794,"x_min":67,"x_max":731,"o":"m 731 847 q 697 721 731 772 q 600 647 663 669 q 694 526 661 601 q 728 353 728 450 q 687 161 728 243 q 571 35 646 79 q 397 -10 496 -10 q 224 35 299 -10 q 108 161 149 79 q 67 353 67 243 q 108 544 67 463 q 224 671 149 626 q 397 715 299 715 q 460 710 421 715 q 499 706 483 706 q 599 742 567 706 q 631 863 631 778 l 631 883 l 731 883 l 731 847 m 397 83 q 557 152 501 83 q 613 353 613 221 q 556 551 613 481 q 397 621 499 621 q 238 551 294 621 q 181 353 181 481 q 237 152 181 221 q 397 83 293 83 m 436 789 l 363 789 l 363 828 q 376 876 363 856 q 417 921 390 896 q 444 950 436 940 q 451 972 451 960 q 437 998 451 989 q 394 1007 422 1007 q 313 992 357 1007 l 292 1053 q 404 1078 346 1078 q 506 1050 469 1078 q 543 981 543 1022 q 528 929 543 949 q 485 885 514 910 q 449 851 461 867 q 436 813 436 835 l 436 789 z "},"ỡ":{"ha":794,"x_min":67,"x_max":731,"o":"m 731 847 q 697 721 731 772 q 600 647 663 669 q 694 526 661 601 q 728 353 728 450 q 687 161 728 243 q 571 35 646 79 q 397 -10 496 -10 q 224 35 299 -10 q 108 161 149 79 q 67 353 67 243 q 108 544 67 463 q 224 671 149 626 q 397 715 299 715 q 460 710 421 715 q 499 706 483 706 q 599 742 567 706 q 631 863 631 778 l 631 883 l 731 883 l 731 847 m 397 83 q 557 152 501 83 q 613 353 613 221 q 556 551 613 481 q 397 621 499 621 q 238 551 294 621 q 181 353 181 481 q 237 152 181 221 q 397 83 293 83 m 171 854 q 205 972 171 931 q 296 1014 239 1014 q 351 1002 325 1014 q 414 968 378 990 q 460 942 443 950 q 494 933 478 933 q 542 956 525 933 q 560 1010 560 978 l 622 1010 q 588 892 622 933 q 497 850 554 850 q 442 862 468 850 q 379 896 415 874 q 333 922 350 914 q 299 931 315 931 q 251 908 268 931 q 233 854 233 886 l 171 854 z "},"ő":{"ha":794,"x_min":67,"x_max":728,"o":"m 397 -10 q 224 35 299 -10 q 108 161 149 79 q 67 353 67 243 q 108 544 67 463 q 224 671 149 626 q 397 715 299 715 q 571 671 496 715 q 687 544 646 626 q 728 353 728 463 q 687 161 728 243 q 571 35 646 79 q 397 -10 496 -10 m 397 83 q 557 152 501 83 q 613 353 613 221 q 556 551 613 481 q 397 621 499 621 q 238 551 294 621 q 181 353 181 481 q 237 152 181 221 q 397 83 293 83 m 283 789 l 347 1072 l 451 1072 l 340 789 l 283 789 m 453 789 l 515 1072 l 621 1072 l 510 789 l 453 789 z "},"ȏ":{"ha":794,"x_min":67,"x_max":728,"o":"m 397 -10 q 224 35 299 -10 q 108 161 149 79 q 67 353 67 243 q 108 544 67 463 q 224 671 149 626 q 397 715 299 715 q 571 671 496 715 q 687 544 646 626 q 728 353 728 463 q 687 161 728 243 q 571 35 646 79 q 397 -10 496 -10 m 397 83 q 557 152 501 83 q 613 353 613 221 q 556 551 613 481 q 397 621 499 621 q 238 551 294 621 q 181 353 181 481 q 237 152 181 221 q 397 83 293 83 m 397 1036 q 537 993 475 1036 q 628 860 599 950 l 557 829 q 487 924 526 894 q 397 953 447 953 q 307 924 347 953 q 236 829 267 896 l 165 858 q 256 992 194 949 q 397 1036 318 1036 z "},"ō":{"ha":794,"x_min":67,"x_max":728,"o":"m 397 -10 q 224 35 299 -10 q 108 161 149 79 q 67 353 67 243 q 108 544 67 463 q 224 671 149 626 q 397 715 299 715 q 571 671 496 715 q 687 544 646 626 q 728 353 728 463 q 687 161 728 243 q 571 35 646 79 q 397 -10 496 -10 m 397 83 q 557 152 501 83 q 613 353 613 221 q 556 551 613 481 q 397 621 499 621 q 238 551 294 621 q 181 353 181 481 q 237 152 181 221 q 397 83 293 83 m 186 974 l 607 974 l 607 888 l 186 888 l 186 974 z "},"ṓ":{"ha":794,"x_min":67,"x_max":728,"o":"m 397 -10 q 224 35 299 -10 q 108 161 149 79 q 67 353 67 243 q 108 544 67 463 q 224 671 149 626 q 397 715 299 715 q 571 671 496 715 q 687 544 646 626 q 728 353 728 463 q 687 161 728 243 q 571 35 646 79 q 397 -10 496 -10 m 397 83 q 557 152 501 83 q 613 353 613 221 q 556 551 613 481 q 397 621 499 621 q 238 551 294 621 q 181 353 181 481 q 237 152 181 221 q 397 83 293 83 m 186 974 l 607 974 l 607 888 l 186 888 l 186 974 m 357 1060 l 496 1343 l 626 1343 l 436 1060 l 357 1060 z "},"ṑ":{"ha":794,"x_min":67,"x_max":728,"o":"m 397 -10 q 224 35 299 -10 q 108 161 149 79 q 67 353 67 243 q 108 544 67 463 q 224 671 149 626 q 397 715 299 715 q 571 671 496 715 q 687 544 646 626 q 728 353 728 463 q 687 161 728 243 q 571 35 646 79 q 397 -10 496 -10 m 397 83 q 557 152 501 83 q 613 353 613 221 q 556 551 613 481 q 397 621 499 621 q 238 551 294 621 q 181 353 181 481 q 237 152 181 221 q 397 83 293 83 m 186 974 l 607 974 l 607 888 l 186 888 l 186 974 m 167 1343 l 297 1343 l 436 1060 l 357 1060 l 167 1343 z "},"ǫ":{"ha":794,"x_min":67,"x_max":728,"o":"m 518 10 q 426 -37 454 -8 q 399 -111 399 -65 q 424 -178 399 -154 q 493 -203 449 -203 q 576 -176 528 -203 l 599 -244 q 478 -276 550 -276 q 357 -235 404 -276 q 310 -126 310 -193 q 361 -8 310 -53 q 147 101 226 4 q 67 353 67 199 q 108 544 67 463 q 224 671 149 626 q 397 715 299 715 q 571 671 496 715 q 687 544 646 626 q 728 353 728 463 q 672 133 728 224 q 518 10 617 42 m 181 353 q 237 152 181 221 q 397 83 293 83 q 557 152 501 83 q 613 353 613 221 q 556 551 613 481 q 397 621 499 621 q 238 551 294 621 q 181 353 181 481 z "},"ø":{"ha":794,"x_min":67,"x_max":728,"o":"m 611 642 q 697 520 667 594 q 728 353 728 446 q 687 161 728 243 q 571 35 646 79 q 397 -10 496 -10 q 250 21 318 -10 l 200 -65 l 132 -25 l 183 64 q 97 185 128 111 q 67 353 67 260 q 108 544 67 463 q 224 671 149 626 q 397 715 299 715 q 544 685 476 715 l 593 768 l 663 731 l 611 642 m 181 353 q 236 153 181 224 l 496 601 q 397 622 454 622 q 238 552 294 622 q 181 353 181 482 m 397 83 q 558 152 501 83 q 614 353 614 221 q 558 550 614 479 l 299 103 q 397 83 342 83 z "},"ǿ":{"ha":794,"x_min":67,"x_max":728,"o":"m 611 642 q 697 520 667 594 q 728 353 728 446 q 687 161 728 243 q 571 35 646 79 q 397 -10 496 -10 q 250 21 318 -10 l 200 -65 l 132 -25 l 183 64 q 97 185 128 111 q 67 353 67 260 q 108 544 67 463 q 224 671 149 626 q 397 715 299 715 q 544 685 476 715 l 593 768 l 663 731 l 611 642 m 181 353 q 236 153 181 224 l 496 601 q 397 622 454 622 q 238 552 294 622 q 181 353 181 482 m 397 83 q 558 152 501 83 q 614 353 614 221 q 558 550 614 479 l 299 103 q 397 83 342 83 m 357 789 l 496 1072 l 626 1072 l 436 789 l 357 789 z "},"õ":{"ha":794,"x_min":67,"x_max":728,"o":"m 397 -10 q 224 35 299 -10 q 108 161 149 79 q 67 353 67 243 q 108 544 67 463 q 224 671 149 626 q 397 715 299 715 q 571 671 496 715 q 687 544 646 626 q 728 353 728 463 q 687 161 728 243 q 571 35 646 79 q 397 -10 496 -10 m 397 83 q 557 152 501 83 q 613 353 613 221 q 556 551 613 481 q 397 621 499 621 q 238 551 294 621 q 181 353 181 481 q 237 152 181 221 q 397 83 293 83 m 171 854 q 205 972 171 931 q 296 1014 239 1014 q 351 1002 325 1014 q 414 968 378 990 q 460 942 443 950 q 494 933 478 933 q 542 956 525 933 q 560 1010 560 978 l 622 1010 q 588 892 622 933 q 497 850 554 850 q 442 862 468 850 q 379 896 415 874 q 333 922 350 914 q 299 931 315 931 q 251 908 268 931 q 233 854 233 886 l 171 854 z "},"ṍ":{"ha":794,"x_min":67,"x_max":728,"o":"m 397 -10 q 224 35 299 -10 q 108 161 149 79 q 67 353 67 243 q 108 544 67 463 q 224 671 149 626 q 397 715 299 715 q 571 671 496 715 q 687 544 646 626 q 728 353 728 463 q 687 161 728 243 q 571 35 646 79 q 397 -10 496 -10 m 397 83 q 557 152 501 83 q 613 353 613 221 q 556 551 613 481 q 397 621 499 621 q 238 551 294 621 q 181 353 181 481 q 237 152 181 221 q 397 83 293 83 m 171 854 q 205 972 171 931 q 296 1014 239 1014 q 351 1002 325 1014 q 414 968 378 990 q 460 942 443 950 q 494 933 478 933 q 542 956 525 933 q 560 1010 560 978 l 622 1010 q 588 892 622 933 q 497 850 554 850 q 442 862 468 850 q 379 896 415 874 q 333 922 350 914 q 299 931 315 931 q 251 908 268 931 q 233 854 233 886 l 171 854 m 357 1060 l 496 1343 l 626 1343 l 436 1060 l 357 1060 z "},"ṏ":{"ha":794,"x_min":67,"x_max":728,"o":"m 397 -10 q 224 35 299 -10 q 108 161 149 79 q 67 353 67 243 q 108 544 67 463 q 224 671 149 626 q 397 715 299 715 q 571 671 496 715 q 687 544 646 626 q 728 353 728 463 q 687 161 728 243 q 571 35 646 79 q 397 -10 496 -10 m 397 83 q 557 152 501 83 q 613 353 613 221 q 556 551 613 481 q 397 621 499 621 q 238 551 294 621 q 181 353 181 481 q 237 152 181 221 q 397 83 293 83 m 171 854 q 205 972 171 931 q 296 1014 239 1014 q 351 1002 325 1014 q 414 968 378 990 q 460 942 443 950 q 494 933 478 933 q 542 956 525 933 q 560 1010 560 978 l 622 1010 q 588 892 622 933 q 497 850 554 850 q 442 862 468 850 q 379 896 415 874 q 333 922 350 914 q 299 931 315 931 q 251 908 268 931 q 233 854 233 886 l 171 854 m 339 1261 l 339 1142 l 214 1142 l 214 1261 l 339 1261 m 579 1261 l 579 1142 l 454 1142 l 454 1261 l 579 1261 z "},"ȭ":{"ha":794,"x_min":67,"x_max":728,"o":"m 397 -10 q 224 35 299 -10 q 108 161 149 79 q 67 353 67 243 q 108 544 67 463 q 224 671 149 626 q 397 715 299 715 q 571 671 496 715 q 687 544 646 626 q 728 353 728 463 q 687 161 728 243 q 571 35 646 79 q 397 -10 496 -10 m 397 83 q 557 152 501 83 q 613 353 613 221 q 556 551 613 481 q 397 621 499 621 q 238 551 294 621 q 181 353 181 481 q 237 152 181 221 q 397 83 293 83 m 171 854 q 205 972 171 931 q 296 1014 239 1014 q 351 1002 325 1014 q 414 968 378 990 q 460 942 443 950 q 494 933 478 933 q 542 956 525 933 q 560 1010 560 978 l 622 1010 q 588 892 622 933 q 497 850 554 850 q 442 862 468 850 q 379 896 415 874 q 333 922 350 914 q 299 931 315 931 q 251 908 268 931 q 233 854 233 886 l 171 854 m 186 1244 l 607 1244 l 607 1158 l 186 1158 l 186 1244 z "},"œ":{"ha":1296,"x_min":67,"x_max":1233,"o":"m 1233 332 l 726 332 q 792 146 733 208 q 960 83 850 83 q 1183 165 1078 83 l 1222 83 q 1105 15 1176 40 q 961 -10 1033 -10 q 785 33 858 -10 q 671 157 711 76 q 561 34 632 78 q 396 -10 490 -10 q 223 35 297 -10 q 108 161 149 79 q 67 353 67 243 q 108 544 67 463 q 223 671 149 626 q 396 715 297 715 q 560 672 490 715 q 669 550 631 629 q 781 672 710 628 q 944 715 851 715 q 1156 624 1078 715 q 1233 374 1233 532 l 1233 332 m 943 628 q 796 569 851 628 q 729 406 740 511 l 1135 406 q 1081 571 1131 514 q 943 628 1032 628 m 396 83 q 556 152 500 83 q 611 353 611 221 q 555 551 611 482 q 397 621 499 621 q 238 551 294 621 q 181 353 181 481 q 236 152 181 221 q 396 83 292 83 z "},"p":{"ha":833,"x_min":97,"x_max":768,"o":"m 457 715 q 619 669 549 715 q 729 541 690 624 q 768 350 768 458 q 729 160 768 242 q 620 35 690 79 q 457 -10 550 -10 q 314 26 375 -10 q 221 129 253 63 l 221 -300 l 108 -300 l 108 503 q 97 699 108 611 l 204 699 l 215 564 q 308 676 244 636 q 457 715 371 715 m 436 83 q 595 153 539 83 q 651 350 651 222 q 594 549 651 478 q 436 621 538 621 q 276 551 332 621 q 221 353 221 482 q 276 153 221 224 q 436 83 332 83 z "},"þ":{"ha":833,"x_min":108,"x_max":768,"o":"m 457 715 q 617 671 546 715 q 728 543 688 626 q 768 350 768 460 q 728 158 768 239 q 617 33 688 76 q 457 -10 547 -10 q 314 26 375 -10 q 221 129 253 63 l 221 -300 l 108 -300 l 108 1022 l 221 1022 l 221 575 q 313 679 251 643 q 457 715 375 715 m 436 83 q 596 153 540 83 q 651 350 651 224 q 595 549 651 476 q 436 621 539 621 q 276 551 332 621 q 221 353 221 482 q 276 153 221 224 q 436 83 332 83 z "},"q":{"ha":833,"x_min":67,"x_max":735,"o":"m 735 699 q 724 503 724 611 l 724 -300 l 611 -300 l 611 124 q 519 25 581 60 q 376 -10 458 -10 q 213 35 283 -10 q 105 160 143 79 q 67 350 67 242 q 106 541 67 458 q 215 669 144 624 q 376 715 285 715 q 524 677 461 715 q 617 568 586 639 l 631 699 l 735 699 m 399 83 q 557 153 501 83 q 613 353 613 224 q 557 551 613 482 q 399 621 501 621 q 238 549 296 621 q 181 350 181 478 q 238 153 181 222 q 399 83 294 83 z "},"r":{"ha":503,"x_min":97,"x_max":497,"o":"m 433 715 q 497 707 468 715 l 494 604 q 421 615 463 615 q 270 552 319 615 q 221 399 221 489 l 221 0 l 108 0 l 108 503 q 97 699 108 611 l 204 699 l 215 569 q 300 678 242 640 q 433 715 358 715 z "},"ŕ":{"ha":503,"x_min":97,"x_max":536,"o":"m 433 715 q 497 707 468 715 l 494 604 q 421 615 463 615 q 270 552 319 615 q 221 399 221 489 l 221 0 l 108 0 l 108 503 q 97 699 108 611 l 204 699 l 215 569 q 300 678 242 640 q 433 715 358 715 m 267 789 l 406 1072 l 536 1072 l 346 789 l 267 789 z "},"ř":{"ha":503,"x_min":97,"x_max":511,"o":"m 433 715 q 497 707 468 715 l 494 604 q 421 615 463 615 q 270 552 319 615 q 221 399 221 489 l 221 0 l 108 0 l 108 503 q 97 699 108 611 l 204 699 l 215 569 q 300 678 242 640 q 433 715 358 715 m 511 1072 l 346 789 l 267 789 l 101 1072 l 206 1072 l 307 871 l 407 1072 l 511 1072 z "},"ŗ":{"ha":503,"x_min":97,"x_max":497,"o":"m 433 715 q 497 707 468 715 l 494 604 q 421 615 463 615 q 270 552 319 615 q 221 399 221 489 l 221 0 l 108 0 l 108 503 q 97 699 108 611 l 204 699 l 215 569 q 300 678 242 640 q 433 715 358 715 m 235 -101 l 235 -182 q 219 -281 235 -237 q 163 -364 203 -325 l 111 -325 q 149 -272 138 -297 q 163 -217 160 -247 l 97 -217 l 97 -101 l 235 -101 z "},"ȑ":{"ha":503,"x_min":82,"x_max":497,"o":"m 433 715 q 497 707 468 715 l 494 604 q 421 615 463 615 q 270 552 319 615 q 221 399 221 489 l 221 0 l 108 0 l 108 503 q 97 699 108 611 l 204 699 l 215 569 q 300 678 242 640 q 433 715 358 715 m 82 1072 l 188 1072 l 250 789 l 193 789 l 82 1072 m 251 1072 l 356 1072 l 419 789 l 363 789 l 251 1072 z "},"ṛ":{"ha":503,"x_min":97,"x_max":497,"o":"m 433 715 q 497 707 468 715 l 494 604 q 421 615 463 615 q 270 552 319 615 q 221 399 221 489 l 221 0 l 108 0 l 108 503 q 97 699 108 611 l 204 699 l 215 569 q 300 678 242 640 q 433 715 358 715 m 231 -132 l 231 -256 l 101 -256 l 101 -132 l 231 -132 z "},"ȓ":{"ha":503,"x_min":75,"x_max":538,"o":"m 433 715 q 497 707 468 715 l 494 604 q 421 615 463 615 q 270 552 319 615 q 221 399 221 489 l 221 0 l 108 0 l 108 503 q 97 699 108 611 l 204 699 l 215 569 q 300 678 242 640 q 433 715 358 715 m 307 1036 q 447 993 385 1036 q 538 860 508 950 l 467 829 q 397 924 436 894 q 307 953 357 953 q 217 924 257 953 q 146 829 176 896 l 75 858 q 166 992 104 949 q 307 1036 228 1036 z "},"ṟ":{"ha":503,"x_min":-44,"x_max":497,"o":"m 433 715 q 497 707 468 715 l 494 604 q 421 615 463 615 q 270 552 319 615 q 221 399 221 489 l 221 0 l 108 0 l 108 503 q 97 699 108 611 l 204 699 l 215 569 q 300 678 242 640 q 433 715 358 715 m -44 -153 l 376 -153 l 376 -236 l -44 -236 l -44 -153 z "},"s":{"ha":689,"x_min":65,"x_max":618,"o":"m 344 -10 q 65 81 168 -10 l 103 164 q 218 100 160 119 q 349 81 276 81 q 469 108 428 81 q 510 186 510 135 q 482 253 510 228 q 390 292 454 278 l 272 319 q 137 389 185 339 q 89 508 89 439 q 163 658 89 600 q 357 715 236 715 q 496 692 431 715 q 606 624 561 668 l 568 542 q 357 624 469 624 q 241 595 282 624 q 200 515 200 567 q 226 447 200 472 q 308 408 251 422 l 426 379 q 571 310 524 357 q 618 189 618 264 q 544 44 618 99 q 344 -10 471 -10 z "},"ś":{"ha":689,"x_min":65,"x_max":618,"o":"m 344 -10 q 65 81 168 -10 l 103 164 q 218 100 160 119 q 349 81 276 81 q 469 108 428 81 q 510 186 510 135 q 482 253 510 228 q 390 292 454 278 l 272 319 q 137 389 185 339 q 89 508 89 439 q 163 658 89 600 q 357 715 236 715 q 496 692 431 715 q 606 624 561 668 l 568 542 q 357 624 469 624 q 241 595 282 624 q 200 515 200 567 q 226 447 200 472 q 308 408 251 422 l 426 379 q 571 310 524 357 q 618 189 618 264 q 544 44 618 99 q 344 -10 471 -10 m 317 789 l 456 1072 l 586 1072 l 396 789 l 317 789 z "},"ṥ":{"ha":689,"x_min":65,"x_max":618,"o":"m 344 -10 q 65 81 168 -10 l 103 164 q 218 100 160 119 q 349 81 276 81 q 469 108 428 81 q 510 186 510 135 q 482 253 510 228 q 390 292 454 278 l 272 319 q 137 389 185 339 q 89 508 89 439 q 163 658 89 600 q 357 715 236 715 q 496 692 431 715 q 606 624 561 668 l 568 542 q 357 624 469 624 q 241 595 282 624 q 200 515 200 567 q 226 447 200 472 q 308 408 251 422 l 426 379 q 571 310 524 357 q 618 189 618 264 q 544 44 618 99 q 344 -10 471 -10 m 322 785 l 461 1068 l 592 1068 l 401 785 l 322 785 m 285 1060 l 285 932 l 147 932 l 147 1060 l 285 1060 z "},"š":{"ha":689,"x_min":65,"x_max":618,"o":"m 344 -10 q 65 81 168 -10 l 103 164 q 218 100 160 119 q 349 81 276 81 q 469 108 428 81 q 510 186 510 135 q 482 253 510 228 q 390 292 454 278 l 272 319 q 137 389 185 339 q 89 508 89 439 q 163 658 89 600 q 357 715 236 715 q 496 692 431 715 q 606 624 561 668 l 568 542 q 357 624 469 624 q 241 595 282 624 q 200 515 200 567 q 226 447 200 472 q 308 408 251 422 l 426 379 q 571 310 524 357 q 618 189 618 264 q 544 44 618 99 q 344 -10 471 -10 m 561 1072 l 396 789 l 317 789 l 151 1072 l 256 1072 l 357 871 l 457 1072 l 561 1072 z "},"ṧ":{"ha":689,"x_min":65,"x_max":618,"o":"m 344 -10 q 65 81 168 -10 l 103 164 q 218 100 160 119 q 349 81 276 81 q 469 108 428 81 q 510 186 510 135 q 482 253 510 228 q 390 292 454 278 l 272 319 q 137 389 185 339 q 89 508 89 439 q 163 658 89 600 q 357 715 236 715 q 496 692 431 715 q 606 624 561 668 l 568 542 q 357 624 469 624 q 241 595 282 624 q 200 515 200 567 q 226 447 200 472 q 308 408 251 422 l 426 379 q 571 310 524 357 q 618 189 618 264 q 544 44 618 99 q 344 -10 471 -10 m 561 1072 l 396 789 l 317 789 l 151 1072 l 256 1072 l 357 871 l 457 1072 l 561 1072 m 425 1265 l 425 1138 l 288 1138 l 288 1265 l 425 1265 z "},"ş":{"ha":689,"x_min":65,"x_max":618,"o":"m 618 189 q 551 49 618 103 q 368 -10 485 -4 l 363 -60 q 396 -57 385 -57 q 472 -82 440 -57 q 503 -154 503 -107 q 460 -238 503 -206 q 340 -271 417 -271 q 276 -264 311 -271 q 217 -244 242 -257 l 235 -183 q 340 -203 285 -203 q 398 -190 378 -203 q 418 -154 418 -178 q 406 -126 418 -136 q 369 -117 393 -117 q 306 -129 338 -117 l 278 -107 l 289 -7 q 65 81 150 6 l 103 164 q 218 100 160 119 q 349 81 276 81 q 469 108 428 81 q 510 186 510 135 q 482 253 510 228 q 390 292 454 278 l 272 319 q 137 389 185 339 q 89 508 89 439 q 163 658 89 600 q 357 715 236 715 q 496 692 431 715 q 606 624 561 668 l 568 542 q 357 624 469 624 q 241 595 282 624 q 200 515 200 567 q 226 447 200 472 q 308 408 251 422 l 426 379 q 571 310 524 357 q 618 189 618 264 z "},"ŝ":{"ha":689,"x_min":65,"x_max":618,"o":"m 344 -10 q 65 81 168 -10 l 103 164 q 218 100 160 119 q 349 81 276 81 q 469 108 428 81 q 510 186 510 135 q 482 253 510 228 q 390 292 454 278 l 272 319 q 137 389 185 339 q 89 508 89 439 q 163 658 89 600 q 357 715 236 715 q 496 692 431 715 q 606 624 561 668 l 568 542 q 357 624 469 624 q 241 595 282 624 q 200 515 200 567 q 226 447 200 472 q 308 408 251 422 l 426 379 q 571 310 524 357 q 618 189 618 264 q 544 44 618 99 q 344 -10 471 -10 m 151 789 l 317 1072 l 396 1072 l 561 789 l 457 789 l 357 989 l 256 789 l 151 789 z "},"ș":{"ha":689,"x_min":65,"x_max":618,"o":"m 344 -10 q 65 81 168 -10 l 103 164 q 218 100 160 119 q 349 81 276 81 q 469 108 428 81 q 510 186 510 135 q 482 253 510 228 q 390 292 454 278 l 272 319 q 137 389 185 339 q 89 508 89 439 q 163 658 89 600 q 357 715 236 715 q 496 692 431 715 q 606 624 561 668 l 568 542 q 357 624 469 624 q 241 595 282 624 q 200 515 200 567 q 226 447 200 472 q 308 408 251 422 l 426 379 q 571 310 524 357 q 618 189 618 264 q 544 44 618 99 q 344 -10 471 -10 m 411 -101 l 411 -182 q 395 -281 411 -237 q 339 -364 379 -325 l 288 -325 q 325 -272 314 -297 q 339 -217 336 -247 l 274 -217 l 274 -101 l 411 -101 z "},"ṡ":{"ha":689,"x_min":65,"x_max":618,"o":"m 344 -10 q 65 81 168 -10 l 103 164 q 218 100 160 119 q 349 81 276 81 q 469 108 428 81 q 510 186 510 135 q 482 253 510 228 q 390 292 454 278 l 272 319 q 137 389 185 339 q 89 508 89 439 q 163 658 89 600 q 357 715 236 715 q 496 692 431 715 q 606 624 561 668 l 568 542 q 357 624 469 624 q 241 595 282 624 q 200 515 200 567 q 226 447 200 472 q 308 408 251 422 l 426 379 q 571 310 524 357 q 618 189 618 264 q 544 44 618 99 q 344 -10 471 -10 m 425 994 l 425 867 l 288 867 l 288 994 l 425 994 z "},"ṣ":{"ha":689,"x_min":65,"x_max":618,"o":"m 344 -10 q 65 81 168 -10 l 103 164 q 218 100 160 119 q 349 81 276 81 q 469 108 428 81 q 510 186 510 135 q 482 253 510 228 q 390 292 454 278 l 272 319 q 137 389 185 339 q 89 508 89 439 q 163 658 89 600 q 357 715 236 715 q 496 692 431 715 q 606 624 561 668 l 568 542 q 357 624 469 624 q 241 595 282 624 q 200 515 200 567 q 226 447 200 472 q 308 408 251 422 l 426 379 q 571 310 524 357 q 618 189 618 264 q 544 44 618 99 q 344 -10 471 -10 m 407 -132 l 407 -256 l 278 -256 l 278 -132 l 407 -132 z "},"ṩ":{"ha":689,"x_min":65,"x_max":618,"o":"m 344 -10 q 65 81 168 -10 l 103 164 q 218 100 160 119 q 349 81 276 81 q 469 108 428 81 q 510 186 510 135 q 482 253 510 228 q 390 292 454 278 l 272 319 q 137 389 185 339 q 89 508 89 439 q 163 658 89 600 q 357 715 236 715 q 496 692 431 715 q 606 624 561 668 l 568 542 q 357 624 469 624 q 241 595 282 624 q 200 515 200 567 q 226 447 200 472 q 308 408 251 422 l 426 379 q 571 310 524 357 q 618 189 618 264 q 544 44 618 99 q 344 -10 471 -10 m 407 -132 l 407 -256 l 278 -256 l 278 -132 l 407 -132 m 425 994 l 425 867 l 288 867 l 288 994 l 425 994 z "},"ß":{"ha":881,"x_min":108,"x_max":836,"o":"m 499 518 q 755 399 674 475 q 836 217 836 324 q 765 51 836 113 q 574 -10 694 -10 q 429 14 497 -10 q 314 81 361 38 l 353 167 q 464 102 410 122 q 576 82 518 82 q 690 117 651 82 q 728 219 728 153 q 649 355 728 297 q 379 464 571 413 l 379 550 q 556 658 506 599 q 607 799 607 717 q 565 903 607 867 q 443 939 524 939 q 278 878 335 939 q 221 699 221 818 l 221 0 l 108 0 l 108 686 q 195 941 108 853 q 443 1029 282 1029 q 642 969 569 1029 q 714 800 714 908 q 665 638 714 707 q 499 518 615 569 z "},"t":{"ha":486,"x_min":10,"x_max":458,"o":"m 258 610 l 258 228 q 290 119 258 150 q 381 88 322 88 q 456 100 419 88 l 456 4 q 358 -10 413 -10 q 202 47 258 -10 q 146 213 146 103 l 146 610 l 10 610 l 10 699 l 146 699 l 146 878 l 258 918 l 258 699 l 458 699 l 458 610 l 258 610 z "},"ŧ":{"ha":500,"x_min":17,"x_max":465,"o":"m 265 610 l 265 444 l 436 444 l 436 360 l 265 360 l 265 228 q 297 119 265 150 q 388 88 329 88 q 463 100 426 88 l 463 4 q 365 -10 419 -10 q 210 47 265 -10 q 154 213 154 103 l 154 360 l 46 360 l 46 444 l 154 444 l 154 610 l 17 610 l 17 699 l 154 699 l 154 878 l 265 918 l 265 699 l 465 699 l 465 610 l 265 610 z "},"ť":{"ha":486,"x_min":10,"x_max":458,"o":"m 393 751 l 331 751 l 331 992 l 432 992 l 393 751 m 258 610 l 258 228 q 290 119 258 150 q 381 88 322 88 q 456 100 419 88 l 456 4 q 358 -10 413 -10 q 202 47 258 -10 q 146 213 146 103 l 146 610 l 10 610 l 10 699 l 146 699 l 146 878 l 258 918 l 258 699 l 458 699 l 458 610 l 258 610 z "},"ţ":{"ha":486,"x_min":10,"x_max":472,"o":"m 365 -57 q 441 -82 410 -57 q 472 -154 472 -107 q 429 -238 472 -206 q 310 -271 386 -271 q 246 -264 281 -271 q 186 -244 211 -257 l 204 -183 q 310 -203 254 -203 q 367 -190 347 -203 q 388 -154 388 -178 q 375 -126 388 -136 q 339 -117 363 -117 q 275 -129 307 -117 l 247 -107 l 260 8 q 175 82 204 31 q 146 213 146 133 l 146 610 l 10 610 l 10 699 l 146 699 l 146 878 l 258 918 l 258 699 l 458 699 l 458 610 l 258 610 l 258 228 q 290 119 258 150 q 381 88 322 88 q 456 100 419 88 l 456 4 q 358 -10 413 -10 l 338 -10 l 332 -60 q 365 -57 354 -57 z "},"ț":{"ha":486,"x_min":10,"x_max":458,"o":"m 258 610 l 258 228 q 290 119 258 150 q 381 88 322 88 q 456 100 419 88 l 456 4 q 358 -10 413 -10 q 202 47 258 -10 q 146 213 146 103 l 146 610 l 10 610 l 10 699 l 146 699 l 146 878 l 258 918 l 258 699 l 458 699 l 458 610 l 258 610 m 381 -101 l 381 -182 q 365 -281 381 -237 q 308 -364 349 -325 l 257 -325 q 294 -272 283 -297 q 308 -217 306 -247 l 243 -217 l 243 -101 l 381 -101 z "},"ẗ":{"ha":486,"x_min":10,"x_max":458,"o":"m 258 610 l 258 228 q 290 119 258 150 q 381 88 322 88 q 456 100 419 88 l 456 4 q 358 -10 413 -10 q 202 47 258 -10 q 146 213 146 103 l 146 610 l 10 610 l 10 699 l 146 699 l 146 878 l 258 918 l 258 699 l 458 699 l 458 610 l 258 610 m 144 1163 l 144 1043 l 19 1043 l 19 1163 l 144 1163 m 385 1163 l 385 1043 l 260 1043 l 260 1163 l 385 1163 z "},"ṭ":{"ha":486,"x_min":10,"x_max":458,"o":"m 258 610 l 258 228 q 290 119 258 150 q 381 88 322 88 q 456 100 419 88 l 456 4 q 358 -10 413 -10 q 202 47 258 -10 q 146 213 146 103 l 146 610 l 10 610 l 10 699 l 146 699 l 146 878 l 258 918 l 258 699 l 458 699 l 458 610 l 258 610 m 376 -132 l 376 -256 l 247 -256 l 247 -132 l 376 -132 z "},"ṯ":{"ha":486,"x_min":10,"x_max":522,"o":"m 258 610 l 258 228 q 290 119 258 150 q 381 88 322 88 q 456 100 419 88 l 456 4 q 358 -10 413 -10 q 202 47 258 -10 q 146 213 146 103 l 146 610 l 10 610 l 10 699 l 146 699 l 146 878 l 258 918 l 258 699 l 458 699 l 458 610 l 258 610 m 101 -153 l 522 -153 l 522 -236 l 101 -236 l 101 -153 z "},"u":{"ha":801,"x_min":104,"x_max":693,"o":"m 693 699 l 693 0 l 583 0 l 583 121 q 490 24 550 57 q 356 -10 431 -10 q 168 60 232 -10 q 104 265 104 129 l 104 699 l 217 699 l 217 268 q 256 129 217 174 q 374 85 294 85 q 524 145 467 85 q 581 304 581 206 l 581 699 l 693 699 z "},"ú":{"ha":801,"x_min":104,"x_max":693,"o":"m 693 699 l 693 0 l 583 0 l 583 121 q 490 24 550 57 q 356 -10 431 -10 q 168 60 232 -10 q 104 265 104 129 l 104 699 l 217 699 l 217 268 q 256 129 217 174 q 374 85 294 85 q 524 145 467 85 q 581 304 581 206 l 581 699 l 693 699 m 361 789 l 500 1072 l 631 1072 l 440 789 l 361 789 z "},"ŭ":{"ha":801,"x_min":104,"x_max":693,"o":"m 693 699 l 693 0 l 583 0 l 583 121 q 490 24 550 57 q 356 -10 431 -10 q 168 60 232 -10 q 104 265 104 129 l 104 699 l 217 699 l 217 268 q 256 129 217 174 q 374 85 294 85 q 524 145 467 85 q 581 304 581 206 l 581 699 l 693 699 m 401 831 q 261 874 324 831 q 169 1008 199 918 l 240 1039 q 311 943 271 972 q 401 914 351 914 q 561 1039 503 914 l 632 1008 q 541 874 603 918 q 401 831 479 831 z "},"û":{"ha":801,"x_min":104,"x_max":693,"o":"m 693 699 l 693 0 l 583 0 l 583 121 q 490 24 550 57 q 356 -10 431 -10 q 168 60 232 -10 q 104 265 104 129 l 104 699 l 217 699 l 217 268 q 256 129 217 174 q 374 85 294 85 q 524 145 467 85 q 581 304 581 206 l 581 699 l 693 699 m 196 789 l 361 1072 l 440 1072 l 606 789 l 501 789 l 401 989 l 300 789 l 196 789 z "},"ȕ":{"ha":801,"x_min":104,"x_max":693,"o":"m 693 699 l 693 0 l 583 0 l 583 121 q 490 24 550 57 q 356 -10 431 -10 q 168 60 232 -10 q 104 265 104 129 l 104 699 l 217 699 l 217 268 q 256 129 217 174 q 374 85 294 85 q 524 145 467 85 q 581 304 581 206 l 581 699 l 693 699 m 176 1072 l 282 1072 l 344 789 l 288 789 l 176 1072 m 346 1072 l 450 1072 l 514 789 l 457 789 l 346 1072 z "},"ü":{"ha":801,"x_min":104,"x_max":693,"o":"m 693 699 l 693 0 l 583 0 l 583 121 q 490 24 550 57 q 356 -10 431 -10 q 168 60 232 -10 q 104 265 104 129 l 104 699 l 217 699 l 217 268 q 256 129 217 174 q 374 85 294 85 q 524 145 467 85 q 581 304 581 206 l 581 699 l 693 699 m 343 990 l 343 871 l 218 871 l 218 990 l 343 990 m 583 990 l 583 871 l 458 871 l 458 990 l 583 990 z "},"ụ":{"ha":801,"x_min":104,"x_max":693,"o":"m 693 699 l 693 0 l 583 0 l 583 121 q 490 24 550 57 q 356 -10 431 -10 q 168 60 232 -10 q 104 265 104 129 l 104 699 l 217 699 l 217 268 q 256 129 217 174 q 374 85 294 85 q 524 145 467 85 q 581 304 581 206 l 581 699 l 693 699 m 465 -132 l 465 -256 l 336 -256 l 336 -132 l 465 -132 z "},"ù":{"ha":801,"x_min":104,"x_max":693,"o":"m 693 699 l 693 0 l 583 0 l 583 121 q 490 24 550 57 q 356 -10 431 -10 q 168 60 232 -10 q 104 265 104 129 l 104 699 l 217 699 l 217 268 q 256 129 217 174 q 374 85 294 85 q 524 145 467 85 q 581 304 581 206 l 581 699 l 693 699 m 171 1072 l 301 1072 l 440 789 l 361 789 l 171 1072 z "},"ủ":{"ha":801,"x_min":104,"x_max":693,"o":"m 693 699 l 693 0 l 583 0 l 583 121 q 490 24 550 57 q 356 -10 431 -10 q 168 60 232 -10 q 104 265 104 129 l 104 699 l 217 699 l 217 268 q 256 129 217 174 q 374 85 294 85 q 524 145 467 85 q 581 304 581 206 l 581 699 l 693 699 m 440 789 l 367 789 l 367 828 q 381 876 367 856 q 421 921 394 896 q 448 950 440 940 q 456 972 456 960 q 441 998 456 989 q 399 1007 426 1007 q 317 992 361 1007 l 296 1053 q 408 1078 350 1078 q 510 1050 474 1078 q 547 981 547 1022 q 533 929 547 949 q 489 885 518 910 q 453 851 465 867 q 440 813 440 835 l 440 789 z "},"ư":{"ha":821,"x_min":104,"x_max":861,"o":"m 861 883 l 861 847 q 817 704 861 760 q 693 636 774 649 l 693 0 l 583 0 l 583 121 q 490 24 550 57 q 356 -10 431 -10 q 168 60 232 -10 q 104 265 104 129 l 104 699 l 217 699 l 217 268 q 256 129 217 174 q 374 85 294 85 q 524 145 467 85 q 581 304 581 206 l 581 699 l 613 699 q 726 737 692 699 q 761 863 761 775 l 761 883 l 861 883 z "},"ứ":{"ha":821,"x_min":104,"x_max":861,"o":"m 861 883 l 861 847 q 817 704 861 760 q 693 636 774 649 l 693 0 l 583 0 l 583 121 q 490 24 550 57 q 356 -10 431 -10 q 168 60 232 -10 q 104 265 104 129 l 104 699 l 217 699 l 217 268 q 256 129 217 174 q 374 85 294 85 q 524 145 467 85 q 581 304 581 206 l 581 699 l 613 699 q 726 737 692 699 q 761 863 761 775 l 761 883 l 861 883 m 361 789 l 500 1072 l 631 1072 l 440 789 l 361 789 z "},"ự":{"ha":821,"x_min":104,"x_max":861,"o":"m 861 883 l 861 847 q 817 704 861 760 q 693 636 774 649 l 693 0 l 583 0 l 583 121 q 490 24 550 57 q 356 -10 431 -10 q 168 60 232 -10 q 104 265 104 129 l 104 699 l 217 699 l 217 268 q 256 129 217 174 q 374 85 294 85 q 524 145 467 85 q 581 304 581 206 l 581 699 l 613 699 q 726 737 692 699 q 761 863 761 775 l 761 883 l 861 883 m 465 -132 l 465 -256 l 336 -256 l 336 -132 l 465 -132 z "},"ừ":{"ha":821,"x_min":104,"x_max":861,"o":"m 861 883 l 861 847 q 817 704 861 760 q 693 636 774 649 l 693 0 l 583 0 l 583 121 q 490 24 550 57 q 356 -10 431 -10 q 168 60 232 -10 q 104 265 104 129 l 104 699 l 217 699 l 217 268 q 256 129 217 174 q 374 85 294 85 q 524 145 467 85 q 581 304 581 206 l 581 699 l 613 699 q 726 737 692 699 q 761 863 761 775 l 761 883 l 861 883 m 171 1072 l 301 1072 l 440 789 l 361 789 l 171 1072 z "},"ử":{"ha":821,"x_min":104,"x_max":861,"o":"m 861 883 l 861 847 q 817 704 861 760 q 693 636 774 649 l 693 0 l 583 0 l 583 121 q 490 24 550 57 q 356 -10 431 -10 q 168 60 232 -10 q 104 265 104 129 l 104 699 l 217 699 l 217 268 q 256 129 217 174 q 374 85 294 85 q 524 145 467 85 q 581 304 581 206 l 581 699 l 613 699 q 726 737 692 699 q 761 863 761 775 l 761 883 l 861 883 m 440 789 l 367 789 l 367 828 q 381 876 367 856 q 421 921 394 896 q 448 950 440 940 q 456 972 456 960 q 441 998 456 989 q 399 1007 426 1007 q 317 992 361 1007 l 296 1053 q 408 1078 350 1078 q 510 1050 474 1078 q 547 981 547 1022 q 533 929 547 949 q 489 885 518 910 q 453 851 465 867 q 440 813 440 835 l 440 789 z "},"ữ":{"ha":821,"x_min":104,"x_max":861,"o":"m 861 883 l 861 847 q 817 704 861 760 q 693 636 774 649 l 693 0 l 583 0 l 583 121 q 490 24 550 57 q 356 -10 431 -10 q 168 60 232 -10 q 104 265 104 129 l 104 699 l 217 699 l 217 268 q 256 129 217 174 q 374 85 294 85 q 524 145 467 85 q 581 304 581 206 l 581 699 l 613 699 q 726 737 692 699 q 761 863 761 775 l 761 883 l 861 883 m 175 854 q 209 972 175 931 q 300 1014 243 1014 q 356 1002 329 1014 q 418 968 382 990 q 465 942 447 950 q 499 933 482 933 q 547 956 529 933 q 564 1010 564 978 l 626 1010 q 592 892 626 933 q 501 850 558 850 q 446 862 472 850 q 383 896 419 874 q 337 922 354 914 q 303 931 319 931 q 255 908 272 931 q 238 854 238 886 l 175 854 z "},"ű":{"ha":801,"x_min":104,"x_max":693,"o":"m 693 699 l 693 0 l 583 0 l 583 121 q 490 24 550 57 q 356 -10 431 -10 q 168 60 232 -10 q 104 265 104 129 l 104 699 l 217 699 l 217 268 q 256 129 217 174 q 374 85 294 85 q 524 145 467 85 q 581 304 581 206 l 581 699 l 693 699 m 288 789 l 351 1072 l 456 1072 l 344 789 l 288 789 m 457 789 l 519 1072 l 625 1072 l 514 789 l 457 789 z "},"ȗ":{"ha":801,"x_min":104,"x_max":693,"o":"m 693 699 l 693 0 l 583 0 l 583 121 q 490 24 550 57 q 356 -10 431 -10 q 168 60 232 -10 q 104 265 104 129 l 104 699 l 217 699 l 217 268 q 256 129 217 174 q 374 85 294 85 q 524 145 467 85 q 581 304 581 206 l 581 699 l 693 699 m 401 1036 q 541 993 479 1036 q 632 860 603 950 l 561 829 q 491 924 531 894 q 401 953 451 953 q 311 924 351 953 q 240 829 271 896 l 169 858 q 260 992 199 949 q 401 1036 322 1036 z "},"ū":{"ha":801,"x_min":104,"x_max":693,"o":"m 693 699 l 693 0 l 583 0 l 583 121 q 490 24 550 57 q 356 -10 431 -10 q 168 60 232 -10 q 104 265 104 129 l 104 699 l 217 699 l 217 268 q 256 129 217 174 q 374 85 294 85 q 524 145 467 85 q 581 304 581 206 l 581 699 l 693 699 m 190 974 l 611 974 l 611 888 l 190 888 l 190 974 z "},"ṻ":{"ha":801,"x_min":104,"x_max":693,"o":"m 693 699 l 693 0 l 583 0 l 583 121 q 490 24 550 57 q 356 -10 431 -10 q 168 60 232 -10 q 104 265 104 129 l 104 699 l 217 699 l 217 268 q 256 129 217 174 q 374 85 294 85 q 524 145 467 85 q 581 304 581 206 l 581 699 l 693 699 m 190 974 l 611 974 l 611 888 l 190 888 l 190 974 m 343 1261 l 343 1142 l 218 1142 l 218 1261 l 343 1261 m 583 1261 l 583 1142 l 458 1142 l 458 1261 l 583 1261 z "},"ų":{"ha":801,"x_min":104,"x_max":757,"o":"m 757 -244 q 635 -276 706 -276 q 515 -235 561 -276 q 468 -125 468 -193 q 499 -29 468 -71 q 583 36 529 13 l 583 121 q 490 24 550 57 q 356 -10 431 -10 q 168 60 232 -10 q 104 265 104 129 l 104 699 l 217 699 l 217 268 q 256 129 217 174 q 374 85 294 85 q 524 145 467 85 q 581 304 581 206 l 581 699 l 693 699 l 693 0 l 685 0 q 592 -31 628 0 q 557 -111 557 -62 q 582 -178 557 -154 q 651 -203 607 -203 q 733 -176 688 -203 l 757 -244 z "},"ů":{"ha":801,"x_min":104,"x_max":693,"o":"m 693 699 l 693 0 l 583 0 l 583 121 q 490 24 550 57 q 356 -10 431 -10 q 168 60 232 -10 q 104 265 104 129 l 104 699 l 217 699 l 217 268 q 256 129 217 174 q 374 85 294 85 q 524 145 467 85 q 581 304 581 206 l 581 699 l 693 699 m 401 792 q 301 831 342 792 q 260 931 260 871 q 301 1029 260 989 q 401 1069 342 1069 q 501 1029 460 1069 q 542 931 542 989 q 501 832 542 872 q 401 792 460 792 m 401 860 q 449 880 431 860 q 468 931 468 900 q 449 980 468 960 q 401 1000 431 1000 q 353 980 372 1000 q 333 931 333 960 q 352 880 333 900 q 401 860 371 860 z "},"ũ":{"ha":801,"x_min":104,"x_max":693,"o":"m 693 699 l 693 0 l 583 0 l 583 121 q 490 24 550 57 q 356 -10 431 -10 q 168 60 232 -10 q 104 265 104 129 l 104 699 l 217 699 l 217 268 q 256 129 217 174 q 374 85 294 85 q 524 145 467 85 q 581 304 581 206 l 581 699 l 693 699 m 175 854 q 209 972 175 931 q 300 1014 243 1014 q 356 1002 329 1014 q 418 968 382 990 q 465 942 447 950 q 499 933 482 933 q 547 956 529 933 q 564 1010 564 978 l 626 1010 q 592 892 626 933 q 501 850 558 850 q 446 862 472 850 q 383 896 419 874 q 337 922 354 914 q 303 931 319 931 q 255 908 272 931 q 238 854 238 886 l 175 854 z "},"ṹ":{"ha":801,"x_min":104,"x_max":693,"o":"m 693 699 l 693 0 l 583 0 l 583 121 q 490 24 550 57 q 356 -10 431 -10 q 168 60 232 -10 q 104 265 104 129 l 104 699 l 217 699 l 217 268 q 256 129 217 174 q 374 85 294 85 q 524 145 467 85 q 581 304 581 206 l 581 699 l 693 699 m 175 854 q 209 972 175 931 q 300 1014 243 1014 q 356 1002 329 1014 q 418 968 382 990 q 465 942 447 950 q 499 933 482 933 q 547 956 529 933 q 564 1010 564 978 l 626 1010 q 592 892 626 933 q 501 850 558 850 q 446 862 472 850 q 383 896 419 874 q 337 922 354 914 q 303 931 319 931 q 255 908 272 931 q 238 854 238 886 l 175 854 m 361 1060 l 500 1343 l 631 1343 l 440 1060 l 361 1060 z "},"v":{"ha":738,"x_min":17,"x_max":722,"o":"m 722 697 l 421 0 l 314 0 l 17 697 l 135 697 l 371 122 l 610 697 l 722 697 z "},"w":{"ha":1207,"x_min":38,"x_max":1169,"o":"m 1169 699 l 911 0 l 803 0 l 603 546 l 404 0 l 296 0 l 38 699 l 156 699 l 353 135 l 557 699 l 656 699 l 857 133 l 1058 699 l 1169 699 z "},"ẃ":{"ha":1207,"x_min":38,"x_max":1169,"o":"m 1169 699 l 911 0 l 803 0 l 603 546 l 404 0 l 296 0 l 38 699 l 156 699 l 353 135 l 557 699 l 656 699 l 857 133 l 1058 699 l 1169 699 m 564 789 l 703 1072 l 833 1072 l 643 789 l 564 789 z "},"ŵ":{"ha":1207,"x_min":38,"x_max":1169,"o":"m 1169 699 l 911 0 l 803 0 l 603 546 l 404 0 l 296 0 l 38 699 l 156 699 l 353 135 l 557 699 l 656 699 l 857 133 l 1058 699 l 1169 699 m 399 789 l 564 1072 l 643 1072 l 808 789 l 704 789 l 604 989 l 503 789 l 399 789 z "},"ẅ":{"ha":1207,"x_min":38,"x_max":1169,"o":"m 1169 699 l 911 0 l 803 0 l 603 546 l 404 0 l 296 0 l 38 699 l 156 699 l 353 135 l 557 699 l 656 699 l 857 133 l 1058 699 l 1169 699 m 546 990 l 546 871 l 421 871 l 421 990 l 546 990 m 786 990 l 786 871 l 661 871 l 661 990 l 786 990 z "},"ẁ":{"ha":1207,"x_min":38,"x_max":1169,"o":"m 1169 699 l 911 0 l 803 0 l 603 546 l 404 0 l 296 0 l 38 699 l 156 699 l 353 135 l 557 699 l 656 699 l 857 133 l 1058 699 l 1169 699 m 374 1072 l 504 1072 l 643 789 l 564 789 l 374 1072 z "}}}
